<svg width="836" height="442" fill="none" xmlns="http://www.w3.org/2000/svg"><g filter="url(#a)"><rect x="16" y="6" width="804" height="410" rx="5" fill="#fff"/><g clip-path="url(#b)"><path d="M59.271 147.664a1.135 1.135 0 0 0-.667.235c-.568-1.502-1.448-2.468-2.437-2.468-.989 0-1.869.966-2.438 2.468a1.135 1.135 0 0 0-.666-.235c-1.124 0-2.034 1.9-2.034 4.243h10.276c0-2.343-.91-4.243-2.034-4.243Z" fill="#00BAFC"/><path d="M100.102 151.671H48v.473h52.102v-.473Z" fill="#3F3D56"/><path d="M244.469 137.712a1.13 1.13 0 0 0-.667.234c-.568-1.502-1.448-2.468-2.437-2.468-.989 0-1.869.966-2.437 2.468a1.128 1.128 0 0 0-.667-.234c-1.123 0-2.034 1.899-2.034 4.243h10.276c0-2.344-.91-4.243-2.034-4.243Z" fill="#00BAFC"/><path d="M222.359 59.753h-49.613v-1.022h-22.497v1.022h-49.817a3.357 3.357 0 0 0-3.356 3.356v67.935a3.355 3.355 0 0 0 3.356 3.356h121.927a3.355 3.355 0 0 0 3.355-3.356V63.109a3.35 3.35 0 0 0-2.071-3.1 3.358 3.358 0 0 0-1.284-.256Z" fill="#3F3D56"/><path opacity=".2" d="M221.214 65.683H101.577v67.491h119.637v-67.49Z" fill="#000"/><path d="M161.293 63.844a1.227 1.227 0 1 0 0-2.454 1.227 1.227 0 0 0 0 2.454Z" fill="#00BAFC"/><path d="M248 141.481H74.406v.474H248v-.474Z" fill="#3F3D56"/><path d="M177.741 90.899v-4.993a6.124 6.124 0 0 0-6.126-6.127h-4.993c0-.674-2.166-1.226-4.919-1.278v-6.022a3.42 3.42 0 1 0-.855 0v6.022c-2.752.052-4.918.604-4.918 1.278h-5.849a6.12 6.12 0 0 0-4.332 1.795 6.127 6.127 0 0 0-1.794 4.332v4.993c-.709 0-1.283 2.393-1.283 5.346 0 2.952.574 5.346 1.283 5.346v5.848a6.124 6.124 0 0 0 6.126 6.127h21.534a6.141 6.141 0 0 0 4.332-1.794 6.133 6.133 0 0 0 1.794-4.333v-5.848c.709 0 1.283-2.394 1.283-5.346 0-2.953-.574-5.346-1.283-5.346Z" fill="#00BAFC"/><path d="M151.308 81.704h19.08a5.429 5.429 0 0 1 5.429 5.428v19.081a5.427 5.427 0 0 1-5.429 5.428h-19.08a5.43 5.43 0 0 1-5.429-5.428v-19.08a5.429 5.429 0 0 1 5.429-5.43Z" fill="#3F3D56"/><path d="M154.005 95.924a3.852 3.852 0 0 1-3.849-3.849.215.215 0 0 1 .365-.151c.04.04.063.094.063.151a3.42 3.42 0 1 0 6.842 0 .215.215 0 0 1 .366-.151c.04.04.062.094.062.151a3.855 3.855 0 0 1-3.849 3.85ZM160.848 103.195a2.998 2.998 0 0 1-2.994-2.994.213.213 0 0 1 .365-.151c.04.04.063.094.063.151a2.564 2.564 0 0 0 4.38 1.814 2.561 2.561 0 0 0 .752-1.814.213.213 0 1 1 .428 0 2.998 2.998 0 0 1-2.994 2.994ZM167.691 95.924a3.855 3.855 0 0 1-3.849-3.849.214.214 0 1 1 .427 0 3.424 3.424 0 0 0 3.422 3.421 3.422 3.422 0 0 0 3.421-3.421.215.215 0 0 1 .365-.151c.04.04.063.094.063.151a3.852 3.852 0 0 1-3.849 3.85Z" fill="#00BAFC"/><path d="M154.005 94.213a1.925 1.925 0 1 0 0-3.85 1.925 1.925 0 0 0 0 3.85ZM167.691 94.213a1.924 1.924 0 1 0 0-3.848 1.924 1.924 0 0 0 0 3.848ZM160.848 102.126c.945 0 1.711-.383 1.711-.856 0-.472-.766-.855-1.711-.855-.945 0-1.711.383-1.711.855 0 .473.766.856 1.711.856Z" fill="#00BAFC"/><path d="M229.074 131.946h-11.676v-.841a.174.174 0 0 0-.049-.118.16.16 0 0 0-.054-.036.16.16 0 0 0-.064-.013h-4.003a.156.156 0 0 0-.064.013.15.15 0 0 0-.054.036.15.15 0 0 0-.036.054.156.156 0 0 0-.013.064v.841h-2.502v-.841a.174.174 0 0 0-.049-.118.16.16 0 0 0-.054-.036.156.156 0 0 0-.064-.013h-4.003a.156.156 0 0 0-.064.013.15.15 0 0 0-.054.036.15.15 0 0 0-.036.054.156.156 0 0 0-.013.064v.841h-2.502v-.841a.156.156 0 0 0-.013-.064.15.15 0 0 0-.036-.054.15.15 0 0 0-.054-.036.156.156 0 0 0-.064-.013h-4.003a.156.156 0 0 0-.064.013.165.165 0 0 0-.103.154v.841h-2.502v-.841a.156.156 0 0 0-.013-.064.15.15 0 0 0-.036-.054.15.15 0 0 0-.054-.036.156.156 0 0 0-.064-.013h-4.003a.16.16 0 0 0-.064.013.165.165 0 0 0-.103.154v.841h-2.502v-.841a.173.173 0 0 0-.012-.064.168.168 0 0 0-.037-.054.142.142 0 0 0-.054-.036.155.155 0 0 0-.063-.013h-4.004a.16.16 0 0 0-.064.013.16.16 0 0 0-.054.036.174.174 0 0 0-.049.118v.841h-2.502v-.841a.173.173 0 0 0-.012-.064.182.182 0 0 0-.036-.054.16.16 0 0 0-.054-.036.16.16 0 0 0-.064-.013h-4.004a.155.155 0 0 0-.063.013.142.142 0 0 0-.054.036.168.168 0 0 0-.037.054.173.173 0 0 0-.012.064v.841h-2.502v-.841a.174.174 0 0 0-.049-.118.16.16 0 0 0-.054-.036.16.16 0 0 0-.064-.013h-31.359a.16.16 0 0 0-.064.013.16.16 0 0 0-.054.036.182.182 0 0 0-.036.054.173.173 0 0 0-.012.064v.841h-2.502v-.841a.174.174 0 0 0-.049-.118.16.16 0 0 0-.054-.036.16.16 0 0 0-.064-.013H138a.155.155 0 0 0-.063.013.142.142 0 0 0-.054.036.168.168 0 0 0-.037.054.173.173 0 0 0-.012.064v.841h-2.502v-.841a.174.174 0 0 0-.049-.118.16.16 0 0 0-.054-.036.16.16 0 0 0-.064-.013h-4.003a.156.156 0 0 0-.064.013.15.15 0 0 0-.054.036.15.15 0 0 0-.036.054.156.156 0 0 0-.013.064v.841h-2.502v-.841a.165.165 0 0 0-.167-.167h-4.003a.156.156 0 0 0-.064.013.15.15 0 0 0-.054.036.15.15 0 0 0-.036.054.156.156 0 0 0-.013.064v.841h-2.502v-.841a.156.156 0 0 0-.013-.064.15.15 0 0 0-.036-.054.15.15 0 0 0-.054-.036.156.156 0 0 0-.064-.013h-4.003a.156.156 0 0 0-.064.013.165.165 0 0 0-.103.154v.841h-2.502v-.841a.156.156 0 0 0-.013-.064.15.15 0 0 0-.036-.054.15.15 0 0 0-.054-.036.156.156 0 0 0-.064-.013h-4.003a.16.16 0 0 0-.064.013.165.165 0 0 0-.103.154v.841h-2.502v-.841a.173.173 0 0 0-.012-.064.168.168 0 0 0-.037-.054.142.142 0 0 0-.054-.036.155.155 0 0 0-.063-.013h-4.004a.16.16 0 0 0-.064.013.16.16 0 0 0-.054.036.182.182 0 0 0-.036.054.173.173 0 0 0-.012.064v.841h-7.673a4.007 4.007 0 0 0-3.699 2.471 4.007 4.007 0 0 0-.305 1.532v1.81a4.004 4.004 0 0 0 4.004 4.004h133.107a4 4 0 0 0 4.003-4.004v-1.81a4.01 4.01 0 0 0-1.173-2.83 3.993 3.993 0 0 0-2.83-1.173Z" fill="#3F3D56"/><path d="M199.687 113.299h-79.81v.473h79.81v-.473Z" fill="#00BAFC"/><path d="M125.561 113.062h-19.657c.629-7.408.629-14.855 0-22.262h19.657c-1.082 7.624-1.146 15.057 0 22.262Z" fill="#D0CDE1"/><path d="M122.956 95.3h-14.21v.947h14.21V95.3ZM122.956 98.379h-14.21v.947h14.21v-.947ZM122.956 101.457h-14.21v.948h14.21v-.948ZM122.956 104.536h-14.21v.947h14.21v-.947ZM122.956 107.615h-14.21v.947h14.21v-.947Z" fill="#3F3D56"/><path d="M73.327 38.76s-3.088-1.103-5.074 3.309c-1.985 4.412-5.074 9.265-5.074 9.265l1.765.441s.441-3.088 1.544-3.53l-.44 3.972s13.236 4.632 19.192-.442l-.22-1.544s.882.22.882 1.544l.662-.661s-.662-1.324-2.648-3.089c-1.303-1.158-1.75-3.362-1.904-4.74a5.736 5.736 0 0 0-1.321-3.124c-1.32-1.529-3.724-3.154-7.364-1.401Z" fill="#2F2E41"/><path d="m64.42 136.078.948 5.447 3.789-.71.71-4.737H64.42Z" fill="#FFB9B9"/><path d="m69.867 139.157-5.21.474.237 4.263-.237 5.447s-3.079 6.157 1.421 5.684c4.5-.474 4.026-2.842 4.026-2.842l1.184-1.421-.71-3.553-.71-8.052Z" fill="#2F2E41"/><path d="m85.735 136.078-.948 5.447-3.789-.71-.71-4.737h5.447Z" fill="#FFB9B9"/><path d="m80.288 139.157 5.21.474-.237 4.263.237 5.447s3.079 6.157-1.421 5.684c-4.5-.474-4.026-2.842-4.026-2.842l-1.184-1.421.71-3.553.71-8.052Z" fill="#2F2E41"/><path d="M74.84 53.426a5.447 5.447 0 1 0 0-10.894 5.447 5.447 0 0 0 0 10.894Z" fill="#FFB9B9"/><path d="m71.288 50.82.71 8.527 6.632-.237s-1.895-5.447-.71-7.579l-6.632-.71Z" fill="#FFB9B9"/><path d="m75.078 57.689 2.727-1.702 2.956 1.465 4.737 2.132-1.658 20.13s3.79 12.552 3.079 18.709c-.71 6.158 7.815 36.945.947 38.366-6.868 1.421-11.841 2.842-12.078.474-.237-2.369-.71-38.603-.71-38.603s-.71 38.366-3.553 38.839c-2.842.474-15.157 2.369-14.21-.473.948-2.842 7.342-52.576 10.42-55.418l.475-2.368-4.026-19.183 7.56-3.768 3.334 1.4Z" fill="#2F2E41"/><path d="m60.868 87.055-.237 9.71s-2.28 9.587 1.584 9.53c3.863-.057 1.021-9.53 1.021-9.53l1.658-9.473-4.026-.237ZM96.68 76.864l6.655 7.074s8.095 5.62 5.179 8.155c-2.915 2.536-7.119-6.416-7.119-6.416l-7.556-5.95 2.84-2.863Z" fill="#FFB9B9"/><path d="m67.854 81.016 16.22-.497-.21-1.101v-.005l-15.678-.284-.332 1.887Z" fill="#D0CDE1"/><path d="M71.17 81.49a1.421 1.421 0 1 0 0-2.842 1.421 1.421 0 0 0 0 2.842ZM66.078 60.294l-1.54-.355s-2.012.829-2.486 3.434c-.474 2.605-6.631 22.972-3.552 24.156 3.078 1.184 7.578 1.658 7.578 1.184 0-.473 1.895-18.235 1.895-18.235l-1.895-10.184ZM80.564 61.197l4.934-1.614s2.368 0 2.368 2.606c0 1.074 4.54 9.902 4.54 9.902s10.905 7.774 9.235 8.052c-2.842.474-4.5 5.447-4.5 5.447l-10.657-9.473-5.92-14.92ZM68.197 48.385s1.765-2.427 3.31-2.868c1.544-.442 1.764-2.648 1.764-2.648s3.971 4.413 6.398 4.633c2.427.22.22-5.294.22-5.294l-4.411-1.103-4.192.44-3.31 2.207.221 4.633Z" fill="#2F2E41"/><path d="M69.512 48.216c.392 0 .71-.477.71-1.066 0-.588-.317-1.066-.71-1.066-.392 0-.71.477-.71 1.066 0 .589.318 1.066.71 1.066Z" fill="#FFB9B9"/></g><path d="M295.305 59h-3.028V47.242H288.4v-2.52h10.782v2.52h-3.877V59Zm10.361-9.004c-.631 0-1.126.202-1.484.606-.358.397-.564.963-.616 1.699h4.18c-.013-.736-.205-1.302-.576-1.7-.371-.403-.872-.605-1.504-.605Zm.42 9.2c-1.758 0-3.132-.486-4.121-1.456-.99-.97-1.485-2.343-1.485-4.12 0-1.83.456-3.243 1.368-4.24.918-1.002 2.184-1.503 3.798-1.503 1.543 0 2.745.44 3.604 1.318.859.88 1.289 2.093 1.289 3.643v1.445h-7.041c.033.847.283 1.507.752 1.983.469.475 1.126.712 1.973.712.657 0 1.279-.068 1.865-.205a9.33 9.33 0 0 0 1.836-.654v2.305a6.855 6.855 0 0 1-1.67.576c-.593.13-1.315.195-2.168.195Zm9.853-.196h-2.978V43.805h2.978V59Zm7.657-9.004c-.632 0-1.127.202-1.485.606-.358.397-.563.963-.615 1.699h4.18c-.013-.736-.205-1.302-.576-1.7-.371-.403-.873-.605-1.504-.605Zm.42 9.2c-1.758 0-3.132-.486-4.121-1.456-.99-.97-1.485-2.343-1.485-4.12 0-1.83.456-3.243 1.367-4.24.918-1.002 2.185-1.503 3.799-1.503 1.543 0 2.744.44 3.604 1.318.859.88 1.289 2.093 1.289 3.643v1.445h-7.041c.032.847.283 1.507.752 1.983.468.475 1.126.712 1.972.712.658 0 1.28-.068 1.866-.205a9.352 9.352 0 0 0 1.836-.654v2.305a6.855 6.855 0 0 1-1.67.576c-.593.13-1.316.195-2.168.195Zm16.377-11.114v1.514l-1.709.44c.312.487.468 1.034.468 1.64 0 1.172-.41 2.086-1.23 2.744-.814.651-1.947.977-3.399.977l-.537-.03-.439-.049c-.306.235-.459.495-.459.782 0 .43.547.644 1.641.644h1.855c1.198 0 2.109.257 2.734.772.632.514.948 1.27.948 2.265 0 1.276-.534 2.266-1.602 2.969-1.061.703-2.588 1.055-4.58 1.055-1.523 0-2.689-.267-3.496-.801-.801-.527-1.201-1.27-1.201-2.227 0-.657.205-1.207.615-1.65.41-.443 1.012-.759 1.807-.947a2.01 2.01 0 0 1-.801-.635c-.228-.3-.342-.615-.342-.947 0-.417.12-.762.361-1.035.241-.28.59-.554 1.045-.82a2.959 2.959 0 0 1-1.367-1.192c-.332-.547-.498-1.192-.498-1.934 0-1.191.387-2.112 1.162-2.764.775-.65 1.882-.976 3.32-.976.306 0 .668.03 1.084.088.424.052.694.091.811.117h3.809Zm-8.428 12.461c0 .41.195.732.586.967.397.234.95.351 1.66.351 1.068 0 1.904-.146 2.51-.44.605-.292.908-.693.908-1.2 0-.41-.179-.694-.537-.85-.358-.156-.912-.234-1.66-.234h-1.543c-.547 0-1.006.127-1.377.38-.365.261-.547.603-.547 1.026Zm1.084-8.887c0 .593.133 1.061.4 1.407.274.345.687.517 1.24.517.56 0 .971-.172 1.231-.517.26-.346.391-.814.391-1.407 0-1.315-.541-1.972-1.622-1.972-1.093 0-1.64.657-1.64 1.972Zm15.244-3.779c.404 0 .739.03 1.006.088l-.225 2.793a3.414 3.414 0 0 0-.879-.098c-.95 0-1.692.244-2.226.733-.528.488-.791 1.172-.791 2.05V59h-2.979V48.082h2.256l.44 1.836h.146a4.081 4.081 0 0 1 1.367-1.475 3.388 3.388 0 0 1 1.885-.566ZM358.215 59l-.576-1.484h-.078c-.502.631-1.019 1.07-1.553 1.318-.528.24-1.218.361-2.07.361-1.049 0-1.876-.3-2.481-.898-.599-.6-.898-1.452-.898-2.559 0-1.159.403-2.011 1.211-2.558.813-.554 2.037-.86 3.671-.918l1.895-.059v-.478c0-1.107-.566-1.66-1.699-1.66-.873 0-1.898.263-3.076.79l-.987-2.011c1.257-.658 2.65-.987 4.18-.987 1.465 0 2.588.32 3.369.958.781.638 1.172 1.608 1.172 2.91V59h-2.08Zm-.879-5.059-1.152.04c-.866.026-1.511.182-1.934.468-.423.287-.635.723-.635 1.309 0 .84.482 1.26 1.446 1.26.69 0 1.24-.199 1.65-.596.417-.397.625-.925.625-1.582v-.899ZM373.146 59h-2.978v-6.377c0-.788-.133-1.377-.4-1.767-.261-.398-.674-.596-1.241-.596-.761 0-1.315.28-1.66.84-.345.56-.517 1.48-.517 2.763V59h-2.979V48.082h2.275l.401 1.396h.166a2.997 2.997 0 0 1 1.269-1.171c.554-.287 1.189-.43 1.905-.43 1.634 0 2.741.534 3.32 1.601h.264c.293-.507.722-.901 1.289-1.181.573-.28 1.217-.42 1.933-.42 1.237 0 2.172.319 2.803.957.638.631.957 1.647.957 3.047V59h-2.988v-6.377c0-.788-.134-1.377-.401-1.767-.26-.398-.673-.596-1.24-.596-.729 0-1.276.26-1.64.781-.358.52-.538 1.348-.538 2.48V59Zm21.143-11.123c1.289 0 2.298.505 3.027 1.514.73 1.002 1.094 2.38 1.094 4.13 0 1.804-.377 3.2-1.133 4.19-.748.99-1.77 1.484-3.066 1.484-1.283 0-2.288-.465-3.018-1.396h-.205L390.49 59h-2.275V43.805h2.978v3.535c0 .45-.039 1.168-.117 2.158h.117c.697-1.08 1.729-1.621 3.096-1.621Zm-.957 2.383c-.736 0-1.273.228-1.611.683-.339.45-.515 1.195-.528 2.237v.322c0 1.172.173 2.012.518 2.52.351.507.905.761 1.66.761.612 0 1.097-.28 1.455-.84.365-.566.547-1.386.547-2.46 0-1.075-.182-1.879-.547-2.413-.364-.54-.862-.81-1.494-.81Zm9.912 3.262c0 1.08.176 1.897.527 2.45.359.554.938.83 1.739.83.794 0 1.364-.273 1.709-.82.351-.553.527-1.373.527-2.46 0-1.081-.176-1.892-.527-2.432-.352-.54-.928-.81-1.729-.81-.794 0-1.367.27-1.719.81-.351.534-.527 1.344-.527 2.431Zm7.549 0c0 1.777-.469 3.167-1.406 4.17-.938 1.002-2.243 1.503-3.916 1.503-1.048 0-1.973-.228-2.774-.683a4.604 4.604 0 0 1-1.845-1.983c-.43-.86-.645-1.862-.645-3.008 0-1.783.466-3.17 1.397-4.16.931-.99 2.239-1.484 3.925-1.484 1.048 0 1.973.228 2.774.683a4.557 4.557 0 0 1 1.845 1.963c.43.853.645 1.853.645 2.998Zm7.061 3.3c.52 0 1.145-.114 1.875-.342v2.217c-.743.332-1.654.498-2.735.498-1.191 0-2.06-.3-2.607-.898-.541-.606-.811-1.51-.811-2.715v-5.264h-1.426v-1.26l1.641-.995.859-2.305h1.905v2.324h3.056v2.236h-3.056v5.264c0 .423.117.736.351.938.241.201.557.302.948.302Zm13.886 0c.521 0 1.146-.114 1.875-.342v2.217c-.742.332-1.653.498-2.734.498-1.192 0-2.061-.3-2.608-.898-.54-.606-.81-1.51-.81-2.715v-5.264h-1.426v-1.26l1.641-.995.859-2.305h1.904v2.324h3.057v2.236h-3.057v5.264c0 .423.118.736.352.938.241.201.557.302.947.302ZM443.566 59l-.4-1.397h-.156c-.319.508-.772.902-1.358 1.182-.586.274-1.253.41-2.002.41-1.282 0-2.249-.342-2.9-1.025-.651-.69-.977-1.68-.977-2.969v-7.119h2.979v6.377c0 .788.14 1.38.42 1.777.28.391.726.586 1.338.586.833 0 1.435-.276 1.806-.83.372-.56.557-1.484.557-2.773v-5.137h2.979V59h-2.286Zm13.008 0h-8.623v-1.758l5.059-6.885h-4.756v-2.275h8.144v1.934l-4.921 6.709h5.097V59Zm2.041-13.74c0-.97.541-1.455 1.621-1.455 1.081 0 1.621.485 1.621 1.455 0 .462-.136.823-.41 1.084-.267.254-.67.38-1.211.38-1.08 0-1.621-.488-1.621-1.464ZM461.721 59h-2.979V48.082h2.979V59Zm10.752-3.242c0 1.12-.391 1.972-1.172 2.558-.775.586-1.937.88-3.487.88-.794 0-1.471-.056-2.031-.167a7.468 7.468 0 0 1-1.572-.469V56.1c.553.26 1.175.478 1.865.654.697.176 1.309.264 1.836.264 1.081 0 1.621-.313 1.621-.938 0-.234-.071-.423-.215-.566-.143-.15-.39-.316-.742-.498-.351-.19-.82-.407-1.406-.655-.84-.351-1.458-.677-1.856-.976-.39-.3-.677-.642-.859-1.026-.176-.39-.264-.869-.264-1.435 0-.97.375-1.719 1.123-2.246.756-.534 1.823-.801 3.204-.801 1.315 0 2.594.286 3.837.86l-.898 2.148a16.548 16.548 0 0 0-1.533-.576 4.813 4.813 0 0 0-1.455-.225c-.879 0-1.319.238-1.319.713 0 .267.14.498.42.693.287.195.909.485 1.866.87.852.344 1.477.667 1.875.966.397.3.69.645.878 1.035.189.391.284.856.284 1.397ZM484.875 59h-2.979v-6.377c0-1.575-.585-2.363-1.757-2.363-.834 0-1.436.283-1.807.85-.371.566-.557 1.484-.557 2.753V59h-2.978V43.805h2.978V46.9c0 .241-.022.808-.068 1.7l-.068.878h.156c.664-1.067 1.719-1.601 3.164-1.601 1.283 0 2.256.345 2.92 1.035.664.69.996 1.68.996 2.969V59ZM295.584 98h-6.432V86.544h1.472v10.048h4.96V98Zm.833-3.92c0-1.205.378-2.203 1.136-2.992.768-.79 1.733-1.184 2.896-1.184 1.162 0 2.122.395 2.88 1.184.768.79 1.152 1.787 1.152 2.992 0 1.216-.384 2.213-1.152 2.992-.758.79-1.718 1.184-2.88 1.184-1.163 0-2.128-.395-2.896-1.184-.758-.79-1.136-1.787-1.136-2.992Zm1.472 0c0 .843.245 1.525.736 2.048.49.523 1.098.784 1.824.784.725 0 1.333-.261 1.824-.784.49-.523.736-1.205.736-2.048 0-.832-.246-1.51-.736-2.032-.502-.533-1.11-.8-1.824-.8-.715 0-1.323.267-1.824.8-.491.523-.736 1.2-.736 2.032Zm9.245 3.92h-1.472v-7.84h1.408v1.28h.064c.149-.416.453-.768.912-1.056.469-.299.928-.448 1.376-.448.426 0 .789.064 1.088.192l-.448 1.424c-.182-.075-.47-.112-.864-.112-.555 0-1.04.224-1.456.672a2.26 2.26 0 0 0-.608 1.568V98Zm7.376.256c-1.152 0-2.102-.395-2.848-1.184-.747-.79-1.12-1.787-1.12-2.992 0-1.195.362-2.187 1.088-2.976.725-.8 1.653-1.2 2.784-1.2 1.162 0 2.085.379 2.768 1.136.693.747 1.04 1.797 1.04 3.152l-.016.16h-6.16c.021.768.277 1.387.768 1.856.49.47 1.077.704 1.76.704.938 0 1.674-.47 2.208-1.408l1.312.64a3.896 3.896 0 0 1-1.472 1.552c-.619.373-1.323.56-2.112.56Zm-2.352-5.12h4.496a1.914 1.914 0 0 0-.672-1.344c-.395-.363-.928-.544-1.6-.544-.555 0-1.035.17-1.44.512-.395.341-.656.8-.784 1.376ZM321.04 98h-1.472v-7.84h1.408v1.088h.064c.224-.384.565-.704 1.024-.96.469-.256.933-.384 1.392-.384.576 0 1.083.133 1.52.4.437.267.757.635.96 1.104.651-1.003 1.552-1.504 2.704-1.504.907 0 1.605.277 2.096.832.491.555.736 1.344.736 2.368V98H330v-4.672c0-.736-.133-1.264-.4-1.584-.267-.33-.715-.496-1.344-.496-.565 0-1.04.24-1.424.72-.384.48-.576 1.045-.576 1.696V98h-1.472v-4.672c0-.736-.133-1.264-.4-1.584-.267-.33-.715-.496-1.344-.496-.565 0-1.04.24-1.424.72-.384.48-.576 1.045-.576 1.696V98Zm17.573-10.544c0 .288-.102.533-.304.736a1.003 1.003 0 0 1-.736.304c-.288 0-.534-.101-.736-.304a1.001 1.001 0 0 1-.304-.736c0-.288.101-.533.304-.736.202-.203.448-.304.736-.304s.533.101.736.304c.202.203.304.448.304.736Zm-.304 2.704V98h-1.472v-7.84h1.472Zm5.755 6.752c.704 0 1.296-.267 1.776-.8.48-.523.72-1.2.72-2.032 0-.821-.24-1.499-.72-2.032-.48-.533-1.072-.8-1.776-.8-.715 0-1.312.267-1.792.8-.469.533-.704 1.21-.704 2.032 0 .832.235 1.515.704 2.048.48.523 1.077.784 1.792.784Zm.24 1.344a3.43 3.43 0 0 1-1.584-.368 2.772 2.772 0 0 1-1.088-.976h-.064l.064 1.088v3.456h-1.472V90.16h1.408v1.088h.064c.256-.405.619-.73 1.088-.976a3.43 3.43 0 0 1 1.584-.368c1.035 0 1.909.405 2.624 1.216.736.821 1.104 1.808 1.104 2.96 0 1.163-.368 2.15-1.104 2.96-.715.81-1.589 1.216-2.624 1.216Zm10.998-2.432c0 .683-.298 1.259-.896 1.728-.597.47-1.349.704-2.256.704-.789 0-1.482-.203-2.08-.608a3.444 3.444 0 0 1-1.28-1.632l1.312-.56c.192.47.47.837.832 1.104a2.11 2.11 0 0 0 1.216.384c.47 0 .859-.101 1.168-.304.32-.203.48-.443.48-.72 0-.501-.384-.87-1.152-1.104l-1.344-.336c-1.525-.384-2.288-1.12-2.288-2.208 0-.715.288-1.285.864-1.712.587-.437 1.334-.656 2.24-.656.694 0 1.318.165 1.872.496.566.33.96.773 1.184 1.328l-1.312.544a1.599 1.599 0 0 0-.736-.768 2.187 2.187 0 0 0-1.12-.288c-.384 0-.73.096-1.04.288-.298.192-.448.427-.448.704 0 .448.422.768 1.264.96l1.184.304c1.558.384 2.336 1.168 2.336 2.352ZM363.464 98h-1.408v-1.088h-.064c-.224.384-.571.704-1.04.96a2.916 2.916 0 0 1-1.44.384c-.96 0-1.702-.272-2.224-.816-.512-.555-.768-1.339-.768-2.352V90.16h1.472v4.832c.032 1.28.677 1.92 1.936 1.92.586 0 1.077-.235 1.472-.704.394-.48.592-1.05.592-1.712V90.16h1.472V98Zm3.263 0h-1.472v-7.84h1.408v1.088h.064c.224-.384.566-.704 1.024-.96.47-.256.934-.384 1.392-.384.576 0 1.083.133 1.52.4.438.267.758.635.96 1.104.651-1.003 1.552-1.504 2.704-1.504.907 0 1.606.277 2.096.832.491.555.736 1.344.736 2.368V98h-1.472v-4.672c0-.736-.133-1.264-.4-1.584-.266-.33-.714-.496-1.344-.496-.565 0-1.04.24-1.424.72-.384.48-.576 1.045-.576 1.696V98h-1.472v-4.672c0-.736-.133-1.264-.4-1.584-.266-.33-.714-.496-1.344-.496-.565 0-1.04.24-1.424.72-.384.48-.576 1.045-.576 1.696V98Zm19.189-1.088c.725 0 1.317-.261 1.776-.784.48-.523.72-1.205.72-2.048 0-.821-.24-1.499-.72-2.032a2.264 2.264 0 0 0-1.776-.8c-.704 0-1.296.267-1.776.8s-.72 1.21-.72 2.032c0 .832.24 1.51.72 2.032.48.533 1.072.8 1.776.8Zm-.24 1.344c-1.024 0-1.904-.405-2.64-1.216-.725-.821-1.088-1.808-1.088-2.96s.363-2.139 1.088-2.96c.736-.81 1.616-1.216 2.64-1.216.576 0 1.099.123 1.568.368.48.245.848.57 1.104.976h.064l-.064-1.088v-3.616h1.472V98h-1.408v-1.088h-.064c-.256.405-.624.73-1.104.976a3.332 3.332 0 0 1-1.568.368Zm5.413-4.176c0-1.205.378-2.203 1.136-2.992.768-.79 1.733-1.184 2.896-1.184 1.162 0 2.122.395 2.88 1.184.768.79 1.152 1.787 1.152 2.992 0 1.216-.384 2.213-1.152 2.992-.758.79-1.718 1.184-2.88 1.184-1.163 0-2.128-.395-2.896-1.184-.758-.79-1.136-1.787-1.136-2.992Zm1.472 0c0 .843.245 1.525.736 2.048.49.523 1.098.784 1.824.784.725 0 1.333-.261 1.824-.784.49-.523.736-1.205.736-2.048 0-.832-.246-1.51-.736-2.032-.502-.533-1.11-.8-1.824-.8-.715 0-1.323.267-1.824.8-.491.523-.736 1.2-.736 2.032Zm9.323-7.536V98h-1.472V86.544h1.472Zm1.267 7.536c0-1.205.379-2.203 1.136-2.992.768-.79 1.733-1.184 2.896-1.184 1.163 0 2.123.395 2.88 1.184.768.79 1.152 1.787 1.152 2.992 0 1.216-.384 2.213-1.152 2.992-.757.79-1.717 1.184-2.88 1.184-1.163 0-2.128-.395-2.896-1.184-.757-.79-1.136-1.787-1.136-2.992Zm1.472 0c0 .843.245 1.525.736 2.048a2.402 2.402 0 0 0 1.824.784c.725 0 1.333-.261 1.824-.784.491-.523.736-1.205.736-2.048 0-.832-.245-1.51-.736-2.032-.501-.533-1.109-.8-1.824-.8-.715 0-1.323.267-1.824.8-.491.523-.736 1.2-.736 2.032Zm9.245 3.92h-1.472v-7.84h1.408v1.28h.064c.149-.416.453-.768.912-1.056.469-.299.928-.448 1.376-.448.427 0 .789.064 1.088.192l-.448 1.424c-.181-.075-.469-.112-.864-.112-.555 0-1.04.224-1.456.672-.405.448-.608.97-.608 1.568V98Zm13.856-2.176c0 .683-.299 1.259-.896 1.728-.597.47-1.349.704-2.256.704-.789 0-1.483-.203-2.08-.608a3.444 3.444 0 0 1-1.28-1.632l1.312-.56c.192.47.469.837.832 1.104.373.256.779.384 1.216.384.469 0 .859-.101 1.168-.304.32-.203.48-.443.48-.72 0-.501-.384-.87-1.152-1.104l-1.344-.336c-1.525-.384-2.288-1.12-2.288-2.208 0-.715.288-1.285.864-1.712.587-.437 1.333-.656 2.24-.656.693 0 1.317.165 1.872.496.565.33.96.773 1.184 1.328l-1.312.544a1.604 1.604 0 0 0-.736-.768 2.19 2.19 0 0 0-1.12-.288c-.384 0-.731.096-1.04.288-.299.192-.448.427-.448.704 0 .448.421.768 1.264.96l1.184.304c1.557.384 2.336 1.168 2.336 2.352Zm3.107-8.368c0 .288-.101.533-.304.736a1.001 1.001 0 0 1-.736.304c-.288 0-.533-.101-.736-.304a1.005 1.005 0 0 1-.304-.736c0-.288.102-.533.304-.736.203-.203.448-.304.736-.304s.534.101.736.304c.203.203.304.448.304.736Zm-.304 2.704V98h-1.472v-7.84h1.472Zm4.942 7.968c-.64 0-1.174-.197-1.6-.592-.416-.395-.63-.944-.64-1.648v-4.384h-1.376V90.16h1.376v-2.4h1.472v2.4h1.92v1.344h-1.92v3.904c0 .523.101.88.304 1.072.202.181.432.272.688.272.117 0 .229-.01.336-.032a2.25 2.25 0 0 0 .32-.112l.464 1.312c-.384.139-.832.208-1.344.208Zm7.14-2.528c0 .384.16.704.48.96.33.256.714.384 1.152.384.618 0 1.168-.23 1.648-.688.49-.459.736-.997.736-1.616-.459-.363-1.099-.544-1.92-.544-.598 0-1.099.144-1.504.432-.395.288-.592.645-.592 1.072Zm1.904-5.696c1.088 0 1.946.293 2.576.88.629.576.944 1.37.944 2.384V98h-1.408v-1.088h-.064c-.608.896-1.419 1.344-2.432 1.344-.864 0-1.59-.256-2.176-.768a2.462 2.462 0 0 1-.864-1.92c0-.81.304-1.456.912-1.936.618-.48 1.44-.72 2.464-.72.874 0 1.594.16 2.16.48v-.336c0-.512-.203-.944-.608-1.296a2.069 2.069 0 0 0-1.424-.544c-.822 0-1.472.347-1.952 1.04l-1.296-.816c.714-1.024 1.77-1.536 3.168-1.536ZM451.165 98h-1.472v-7.84h1.408v1.088h.064c.224-.384.565-.704 1.024-.96.469-.256.933-.384 1.392-.384.576 0 1.083.133 1.52.4.437.267.757.635.96 1.104.651-1.003 1.552-1.504 2.704-1.504.907 0 1.605.277 2.096.832.491.555.736 1.344.736 2.368V98h-1.472v-4.672c0-.736-.133-1.264-.4-1.584-.267-.33-.715-.496-1.344-.496-.565 0-1.04.24-1.424.72-.384.48-.576 1.045-.576 1.696V98h-1.472v-4.672c0-.736-.133-1.264-.4-1.584-.267-.33-.715-.496-1.344-.496-.565 0-1.04.24-1.424.72-.384.48-.576 1.045-.576 1.696V98Zm15.673.256c-1.152 0-2.101-.395-2.848-1.184-.747-.79-1.12-1.787-1.12-2.992 0-1.195.363-2.187 1.088-2.976.725-.8 1.653-1.2 2.784-1.2 1.163 0 2.085.379 2.768 1.136.693.747 1.04 1.797 1.04 3.152l-.016.16h-6.16c.021.768.277 1.387.768 1.856.491.47 1.077.704 1.76.704.939 0 1.675-.47 2.208-1.408l1.312.64a3.896 3.896 0 0 1-1.472 1.552c-.619.373-1.323.56-2.112.56Zm-2.352-5.12h4.496a1.914 1.914 0 0 0-.672-1.344c-.395-.363-.928-.544-1.6-.544-.555 0-1.035.17-1.44.512-.395.341-.656.8-.784 1.376Zm10.28 4.992c-.64 0-1.174-.197-1.6-.592-.416-.395-.63-.944-.64-1.648v-4.384h-1.376V90.16h1.376v-2.4h1.472v2.4h1.92v1.344h-1.92v3.904c0 .523.101.88.304 1.072.202.181.432.272.688.272.117 0 .229-.01.336-.032a2.25 2.25 0 0 0 .32-.112l.464 1.312c-.384.139-.832.208-1.344.208Zm3.048 1.664-.688-.448.864-1.344a1.004 1.004 0 0 1-.576-.336 1 1 0 0 1-.224-.656c0-.31.107-.565.32-.768.213-.213.469-.32.768-.32.309 0 .565.107.768.32.213.203.32.459.32.768 0 .288-.107.603-.32.944l-1.232 1.84Zm10.322-1.536c-1.162 0-2.128-.395-2.896-1.184-.757-.81-1.136-1.808-1.136-2.992 0-1.205.379-2.203 1.136-2.992.768-.79 1.734-1.184 2.896-1.184.8 0 1.499.203 2.096.608.598.395 1.046.944 1.344 1.648l-1.344.56c-.416-.981-1.146-1.472-2.192-1.472-.672 0-1.253.272-1.744.816-.48.544-.72 1.216-.72 2.016s.24 1.472.72 2.016c.491.544 1.072.816 1.744.816 1.078 0 1.835-.49 2.272-1.472l1.312.56a3.54 3.54 0 0 1-1.36 1.664c-.608.395-1.317.592-2.128.592Zm4.25-4.176c0-1.205.378-2.203 1.136-2.992.768-.79 1.733-1.184 2.896-1.184 1.162 0 2.122.395 2.88 1.184.768.79 1.152 1.787 1.152 2.992 0 1.216-.384 2.213-1.152 2.992-.758.79-1.718 1.184-2.88 1.184-1.163 0-2.128-.395-2.896-1.184-.758-.79-1.136-1.787-1.136-2.992Zm1.472 0c0 .843.245 1.525.736 2.048.49.523 1.098.784 1.824.784.725 0 1.333-.261 1.824-.784.49-.523.736-1.205.736-2.048 0-.832-.246-1.51-.736-2.032-.502-.533-1.11-.8-1.824-.8-.715 0-1.323.267-1.824.8-.491.523-.736 1.2-.736 2.032Zm7.772-3.92h1.408v1.088h.064c.224-.384.566-.704 1.024-.96.47-.256.955-.384 1.456-.384.96 0 1.696.277 2.208.832.523.544.784 1.323.784 2.336V98h-1.472v-4.832c-.032-1.28-.677-1.92-1.936-1.92-.586 0-1.077.24-1.472.72-.394.47-.592 1.035-.592 1.696V98h-1.472v-7.84Zm14.594 5.664c0 .683-.299 1.259-.896 1.728-.597.47-1.349.704-2.256.704-.789 0-1.483-.203-2.08-.608a3.444 3.444 0 0 1-1.28-1.632l1.312-.56c.192.47.469.837.832 1.104.373.256.779.384 1.216.384.469 0 .859-.101 1.168-.304.32-.203.48-.443.48-.72 0-.501-.384-.87-1.152-1.104l-1.344-.336c-1.525-.384-2.288-1.12-2.288-2.208 0-.715.288-1.285.864-1.712.587-.437 1.333-.656 2.24-.656.693 0 1.317.165 1.872.496.565.33.96.773 1.184 1.328l-1.312.544a1.604 1.604 0 0 0-.736-.768 2.19 2.19 0 0 0-1.12-.288c-.384 0-.731.096-1.04.288-.299.192-.448.427-.448.704 0 .448.421.768 1.264.96l1.184.304c1.557.384 2.336 1.168 2.336 2.352Zm4.88 2.432c-1.152 0-2.102-.395-2.848-1.184-.747-.79-1.12-1.787-1.12-2.992 0-1.195.362-2.187 1.088-2.976.725-.8 1.653-1.2 2.784-1.2 1.162 0 2.085.379 2.768 1.136.693.747 1.04 1.797 1.04 3.152l-.016.16h-6.16c.021.768.277 1.387.768 1.856.49.47 1.077.704 1.76.704.938 0 1.674-.47 2.208-1.408l1.312.64a3.896 3.896 0 0 1-1.472 1.552c-.619.373-1.323.56-2.112.56Zm-2.352-5.12h4.496a1.914 1.914 0 0 0-.672-1.344c-.395-.363-.928-.544-1.6-.544-.555 0-1.035.17-1.44.512-.395.341-.656.8-.784 1.376Zm11.072 5.12c-1.163 0-2.128-.395-2.896-1.184-.758-.81-1.136-1.808-1.136-2.992 0-1.205.378-2.203 1.136-2.992.768-.79 1.733-1.184 2.896-1.184.8 0 1.498.203 2.096.608.597.395 1.045.944 1.344 1.648l-1.344.56c-.416-.981-1.147-1.472-2.192-1.472-.672 0-1.254.272-1.744.816-.48.544-.72 1.216-.72 2.016s.24 1.472.72 2.016c.49.544 1.072.816 1.744.816 1.077 0 1.834-.49 2.272-1.472l1.312.56a3.546 3.546 0 0 1-1.36 1.664c-.608.395-1.318.592-2.128.592Zm7.801-.128c-.64 0-1.173-.197-1.6-.592-.416-.395-.629-.944-.64-1.648v-4.384h-1.376V90.16h1.376v-2.4h1.472v2.4h1.92v1.344h-1.92v3.904c0 .523.101.88.304 1.072.203.181.432.272.688.272.117 0 .229-.01.336-.032a2.25 2.25 0 0 0 .32-.112l.464 1.312c-.384.139-.832.208-1.344.208Zm5.994.128c-1.152 0-2.101-.395-2.848-1.184-.747-.79-1.12-1.787-1.12-2.992 0-1.195.363-2.187 1.088-2.976.725-.8 1.653-1.2 2.784-1.2 1.163 0 2.085.379 2.768 1.136.693.747 1.04 1.797 1.04 3.152l-.016.16h-6.16c.021.768.277 1.387.768 1.856.491.47 1.077.704 1.76.704.939 0 1.675-.47 2.208-1.408l1.312.64a3.896 3.896 0 0 1-1.472 1.552c-.619.373-1.323.56-2.112.56Zm-2.352-5.12h4.496a1.914 1.914 0 0 0-.672-1.344c-.395-.363-.928-.544-1.6-.544-.555 0-1.035.17-1.44.512-.395.341-.656.8-.784 1.376Zm10.28 4.992c-.64 0-1.173-.197-1.6-.592-.416-.395-.629-.944-.64-1.648v-4.384h-1.376V90.16h1.376v-2.4h1.472v2.4h1.92v1.344h-1.92v3.904c0 .523.101.88.304 1.072.203.181.432.272.688.272.117 0 .229-.01.336-.032a2.25 2.25 0 0 0 .32-.112l.464 1.312c-.384.139-.832.208-1.344.208Zm9.432-.128h-1.408v-1.088h-.064c-.224.384-.571.704-1.04.96a2.916 2.916 0 0 1-1.44.384c-.96 0-1.701-.272-2.224-.816-.512-.555-.768-1.339-.768-2.352V90.16h1.472v4.832c.032 1.28.677 1.92 1.936 1.92.587 0 1.077-.235 1.472-.704.395-.48.592-1.05.592-1.712V90.16h1.472V98Zm3.264 0h-1.472v-7.84h1.408v1.28h.064c.149-.416.453-.768.912-1.056.469-.299.928-.448 1.376-.448.427 0 .789.064 1.088.192l-.448 1.424c-.181-.075-.469-.112-.864-.112-.555 0-1.04.224-1.456.672-.405.448-.608.97-.608 1.568V98Zm8.928-2.4c0 .384.16.704.48.96a1.83 1.83 0 0 0 1.152.384c.619 0 1.168-.23 1.648-.688.491-.459.736-.997.736-1.616-.459-.363-1.099-.544-1.92-.544-.597 0-1.099.144-1.504.432-.395.288-.592.645-.592 1.072Zm1.904-5.696c1.088 0 1.947.293 2.576.88.629.576.944 1.37.944 2.384V98h-1.408v-1.088h-.064c-.608.896-1.419 1.344-2.432 1.344-.864 0-1.589-.256-2.176-.768a2.462 2.462 0 0 1-.864-1.92c0-.81.304-1.456.912-1.936.619-.48 1.44-.72 2.464-.72.875 0 1.595.16 2.16.48v-.336c0-.512-.203-.944-.608-1.296a2.067 2.067 0 0 0-1.424-.544c-.821 0-1.472.347-1.952 1.04l-1.296-.816c.715-1.024 1.771-1.536 3.168-1.536Zm8.622 7.008c.726 0 1.318-.261 1.776-.784.48-.523.72-1.205.72-2.048 0-.821-.24-1.499-.72-2.032a2.264 2.264 0 0 0-1.776-.8c-.704 0-1.296.267-1.776.8s-.72 1.21-.72 2.032c0 .832.24 1.51.72 2.032.48.533 1.072.8 1.776.8Zm-.24 1.344c-1.024 0-1.904-.405-2.64-1.216-.725-.821-1.088-1.808-1.088-2.96s.363-2.139 1.088-2.96c.736-.81 1.616-1.216 2.64-1.216.576 0 1.099.123 1.568.368.48.245.848.57 1.104.976h.064l-.064-1.088v-3.616h1.472V98h-1.408v-1.088h-.064c-.256.405-.624.73-1.104.976a3.332 3.332 0 0 1-1.568.368Zm7.843-10.8c0 .288-.101.533-.304.736a1.003 1.003 0 0 1-.736.304c-.288 0-.533-.101-.736-.304a1.001 1.001 0 0 1-.304-.736c0-.288.101-.533.304-.736.203-.203.448-.304.736-.304s.533.101.736.304c.203.203.304.448.304.736Zm-.304 2.704V98h-1.472v-7.84h1.472Zm5.756 6.752c.704 0 1.296-.267 1.776-.8.48-.523.72-1.2.72-2.032 0-.821-.24-1.499-.72-2.032-.48-.533-1.072-.8-1.776-.8-.715 0-1.312.267-1.792.8-.47.533-.704 1.21-.704 2.032 0 .832.234 1.515.704 2.048.48.523 1.077.784 1.792.784Zm.24 1.344a3.43 3.43 0 0 1-1.584-.368 2.765 2.765 0 0 1-1.088-.976h-.064L594.32 98v3.456h-1.472V90.16h1.408v1.088h.064c.256-.405.618-.73 1.088-.976a3.43 3.43 0 0 1 1.584-.368c1.034 0 1.909.405 2.624 1.216.736.821 1.104 1.808 1.104 2.96 0 1.163-.368 2.15-1.104 2.96-.715.81-1.59 1.216-2.624 1.216Zm6.902-10.8c0 .288-.102.533-.304.736a1.003 1.003 0 0 1-.736.304c-.288 0-.534-.101-.736-.304a1.001 1.001 0 0 1-.304-.736c0-.288.101-.533.304-.736.202-.203.448-.304.736-.304s.533.101.736.304c.202.203.304.448.304.736Zm-.304 2.704V98h-1.472v-7.84h1.472Zm7.915 5.664c0 .683-.298 1.259-.896 1.728-.597.47-1.349.704-2.256.704-.789 0-1.482-.203-2.08-.608a3.444 3.444 0 0 1-1.28-1.632l1.312-.56c.192.47.47.837.832 1.104a2.11 2.11 0 0 0 1.216.384c.47 0 .859-.101 1.168-.304.32-.203.48-.443.48-.72 0-.501-.384-.87-1.152-1.104l-1.344-.336c-1.525-.384-2.288-1.12-2.288-2.208 0-.715.288-1.285.864-1.712.587-.437 1.334-.656 2.24-.656.694 0 1.318.165 1.872.496.566.33.96.773 1.184 1.328l-1.312.544a1.599 1.599 0 0 0-.736-.768 2.187 2.187 0 0 0-1.12-.288c-.384 0-.73.096-1.04.288-.298.192-.448.427-.448.704 0 .448.422.768 1.264.96l1.184.304c1.558.384 2.336 1.168 2.336 2.352Zm4.944 2.432c-1.163 0-2.128-.395-2.896-1.184-.758-.81-1.136-1.808-1.136-2.992 0-1.205.378-2.203 1.136-2.992.768-.79 1.733-1.184 2.896-1.184.8 0 1.498.203 2.096.608.597.395 1.045.944 1.344 1.648l-1.344.56c-.416-.981-1.147-1.472-2.192-1.472-.672 0-1.254.272-1.744.816-.48.544-.72 1.216-.72 2.016s.24 1.472.72 2.016c.49.544 1.072.816 1.744.816 1.077 0 1.834-.49 2.272-1.472l1.312.56a3.546 3.546 0 0 1-1.36 1.664c-.608.395-1.318.592-2.128.592Zm6.679-10.8c0 .288-.101.533-.304.736a1.003 1.003 0 0 1-.736.304c-.288 0-.533-.101-.736-.304a1.001 1.001 0 0 1-.304-.736c0-.288.101-.533.304-.736.203-.203.448-.304.736-.304s.533.101.736.304c.203.203.304.448.304.736Zm-.304 2.704V98h-1.472v-7.84h1.472Zm1.916 0h1.408v1.088h.064c.224-.384.565-.704 1.024-.96a3 3 0 0 1 1.456-.384c.96 0 1.696.277 2.208.832.522.544.784 1.323.784 2.336V98h-1.472v-4.832c-.032-1.28-.678-1.92-1.936-1.92-.587 0-1.078.24-1.472.72-.395.47-.592 1.035-.592 1.696V98h-1.472v-7.84Zm12.114 6.752c.725 0 1.317-.261 1.776-.784.48-.523.72-1.205.72-2.048 0-.821-.24-1.499-.72-2.032a2.267 2.267 0 0 0-1.776-.8c-.704 0-1.296.267-1.776.8s-.72 1.21-.72 2.032c0 .832.24 1.51.72 2.032.48.533 1.072.8 1.776.8Zm-.048 4.8c-.438 0-.848-.059-1.232-.176a3.923 3.923 0 0 1-1.056-.464 3.452 3.452 0 0 1-.8-.72 3.025 3.025 0 0 1-.512-.928l1.392-.576c.16.459.437.827.832 1.104.394.277.853.416 1.376.416.8 0 1.424-.24 1.872-.72.448-.48.672-1.141.672-1.984v-.752h-.064a2.948 2.948 0 0 1-1.136.992 3.39 3.39 0 0 1-1.536.352c-1.024 0-1.904-.4-2.64-1.2-.726-.821-1.088-1.813-1.088-2.976s.362-2.15 1.088-2.96c.736-.81 1.616-1.216 2.64-1.216a3.27 3.27 0 0 1 1.536.368c.48.235.858.56 1.136.976h.064V90.16h1.408v7.504c0 1.259-.358 2.245-1.072 2.96-.726.725-1.686 1.088-2.88 1.088Zm12.782-3.456c-1.152 0-2.101-.395-2.848-1.184-.747-.79-1.12-1.787-1.12-2.992 0-1.195.363-2.187 1.088-2.976.725-.8 1.653-1.2 2.784-1.2 1.163 0 2.085.379 2.768 1.136.693.747 1.04 1.797 1.04 3.152l-.016.16h-6.16c.021.768.277 1.387.768 1.856.491.47 1.077.704 1.76.704.939 0 1.675-.47 2.208-1.408l1.312.64a3.896 3.896 0 0 1-1.472 1.552c-.619.373-1.323.56-2.112.56Zm-2.352-5.12h4.496a1.914 1.914 0 0 0-.672-1.344c-.395-.363-.928-.544-1.6-.544-.555 0-1.035.17-1.44.512-.395.341-.656.8-.784 1.376Zm8.882-6.592V98h-1.472V86.544h1.472Zm3.698.912c0 .288-.102.533-.304.736a1.003 1.003 0 0 1-.736.304c-.288 0-.534-.101-.736-.304a1.001 1.001 0 0 1-.304-.736c0-.288.101-.533.304-.736.202-.203.448-.304.736-.304s.533.101.736.304c.202.203.304.448.304.736Zm-.304 2.704V98h-1.472v-7.84h1.472Zm4.941 7.968c-.64 0-1.173-.197-1.6-.592-.416-.395-.629-.944-.64-1.648v-4.384h-1.376V90.16h1.376v-2.4h1.472v2.4h1.92v1.344h-1.92v3.904c0 .523.101.88.304 1.072.203.181.432.272.688.272.117 0 .229-.01.336-.032a2.25 2.25 0 0 0 .32-.112l.464 1.312c-.384.139-.832.208-1.344.208Zm4.6-1.12c0 .299-.106.555-.32.768-.202.213-.458.32-.768.32a1.05 1.05 0 0 1-.768-.32 1.049 1.049 0 0 1-.32-.768c0-.31.107-.565.32-.768.214-.213.47-.32.768-.32.31 0 .566.107.768.32.214.203.32.459.32.768Zm12.03-2.064c0 1.003-.368 1.808-1.104 2.416-.746.597-1.653.896-2.72.896-.949 0-1.786-.277-2.512-.832-.725-.555-1.226-1.312-1.504-2.272l1.408-.576c.096.341.23.65.4.928.171.277.368.517.592.72.235.192.491.347.768.464.278.107.571.16.88.16.672 0 1.222-.17 1.648-.512.427-.352.64-.816.64-1.392 0-.48-.176-.89-.528-1.232-.33-.33-.949-.65-1.856-.96-.917-.33-1.488-.555-1.712-.672-1.216-.619-1.824-1.53-1.824-2.736 0-.843.336-1.563 1.008-2.16.683-.597 1.52-.896 2.512-.896.875 0 1.632.224 2.272.672.64.437 1.067.987 1.28 1.648l-1.376.576a1.982 1.982 0 0 0-.768-1.056c-.373-.288-.832-.432-1.376-.432-.576 0-1.061.16-1.456.48-.394.299-.592.688-.592 1.168 0 .395.155.736.464 1.024.342.288 1.083.63 2.224 1.024 1.163.395 1.99.88 2.48 1.456.502.565.752 1.264.752 2.096Zm5.036 3.312c-1.152 0-2.101-.395-2.848-1.184-.747-.79-1.12-1.787-1.12-2.992 0-1.195.363-2.187 1.088-2.976.725-.8 1.653-1.2 2.784-1.2 1.163 0 2.085.379 2.768 1.136.693.747 1.04 1.797 1.04 3.152l-.016.16h-6.16c.021.768.277 1.387.768 1.856.491.47 1.077.704 1.76.704.939 0 1.675-.47 2.208-1.408l1.312.64a3.896 3.896 0 0 1-1.472 1.552c-.619.373-1.323.56-2.112.56Zm-2.352-5.12h4.496a1.914 1.914 0 0 0-.672-1.344c-.395-.363-.928-.544-1.6-.544-.555 0-1.035.17-1.44.512-.395.341-.656.8-.784 1.376Zm11.008 3.776c.726 0 1.318-.261 1.776-.784.48-.523.72-1.205.72-2.048 0-.821-.24-1.499-.72-2.032a2.264 2.264 0 0 0-1.776-.8c-.704 0-1.296.267-1.776.8s-.72 1.21-.72 2.032c0 .832.24 1.51.72 2.032.48.533 1.072.8 1.776.8Zm-.24 1.344c-1.024 0-1.904-.405-2.64-1.216-.725-.821-1.088-1.808-1.088-2.96s.363-2.139 1.088-2.96c.736-.81 1.616-1.216 2.64-1.216.576 0 1.099.123 1.568.368.48.245.848.57 1.104.976h.064l-.064-1.088v-3.616h1.472V98h-1.408v-1.088h-.064c-.256.405-.624.73-1.104.976a3.332 3.332 0 0 1-1.568.368Zm13.295-1.344c.704 0 1.296-.267 1.776-.8.48-.523.72-1.2.72-2.032 0-.821-.24-1.499-.72-2.032-.48-.533-1.072-.8-1.776-.8-.715 0-1.312.267-1.792.8-.47.533-.704 1.21-.704 2.032 0 .832.234 1.515.704 2.048.48.523 1.077.784 1.792.784Zm.24 1.344a3.43 3.43 0 0 1-1.584-.368 2.765 2.765 0 0 1-1.088-.976h-.064l.064 1.088v3.456h-1.472V90.16h1.408v1.088h.064c.256-.405.618-.73 1.088-.976a3.43 3.43 0 0 1 1.584-.368c1.034 0 1.909.405 2.624 1.216.736.821 1.104 1.808 1.104 2.96 0 1.163-.368 2.15-1.104 2.96-.715.81-1.59 1.216-2.624 1.216Zm6.47-.256h-1.472v-7.84h1.408v1.28h.064c.149-.416.453-.768.912-1.056.469-.299.928-.448 1.376-.448.427 0 .789.064 1.088.192l-.448 1.424c-.181-.075-.469-.112-.864-.112-.555 0-1.04.224-1.456.672-.405.448-.608.97-.608 1.568V98Zm7.376.256c-1.152 0-2.101-.395-2.848-1.184-.747-.79-1.12-1.787-1.12-2.992 0-1.195.363-2.187 1.088-2.976.725-.8 1.653-1.2 2.784-1.2 1.163 0 2.085.379 2.768 1.136.693.747 1.04 1.797 1.04 3.152l-.016.16h-6.16c.021.768.277 1.387.768 1.856.491.47 1.077.704 1.76.704.939 0 1.675-.47 2.208-1.408l1.312.64a3.896 3.896 0 0 1-1.472 1.552c-.619.373-1.323.56-2.112.56Zm-2.352-5.12h4.496a1.914 1.914 0 0 0-.672-1.344c-.395-.363-.928-.544-1.6-.544-.555 0-1.035.17-1.44.512-.395.341-.656.8-.784 1.376Zm10.28 4.992c-.64 0-1.174-.197-1.6-.592-.416-.395-.63-.944-.64-1.648v-4.384h-1.376V90.16h1.376v-2.4h1.472v2.4h1.92v1.344h-1.92v3.904c0 .523.101.88.304 1.072.202.181.432.272.688.272.117 0 .229-.01.336-.032a2.25 2.25 0 0 0 .32-.112l.464 1.312c-.384.139-.832.208-1.344.208Zm4.534-10.672c0 .288-.101.533-.304.736a1.003 1.003 0 0 1-.736.304c-.288 0-.533-.101-.736-.304a1.001 1.001 0 0 1-.304-.736c0-.288.101-.533.304-.736.203-.203.448-.304.736-.304s.533.101.736.304c.203.203.304.448.304.736Zm-.304 2.704V98h-1.472v-7.84h1.472ZM742.87 98h-1.408v-1.088h-.064c-.224.384-.571.704-1.04.96a2.916 2.916 0 0 1-1.44.384c-.96 0-1.702-.272-2.224-.816-.512-.555-.768-1.339-.768-2.352V90.16h1.472v4.832c.032 1.28.677 1.92 1.936 1.92.586 0 1.077-.235 1.472-.704.394-.48.592-1.05.592-1.712V90.16h1.472V98Zm3.264 0h-1.472v-7.84h1.408v1.088h.064c.224-.384.565-.704 1.024-.96.469-.256.933-.384 1.392-.384.576 0 1.082.133 1.52.4.437.267.757.635.96 1.104.65-1.003 1.552-1.504 2.704-1.504.906 0 1.605.277 2.096.832.49.555.736 1.344.736 2.368V98h-1.472v-4.672c0-.736-.134-1.264-.4-1.584-.267-.33-.715-.496-1.344-.496-.566 0-1.04.24-1.424.72-.384.48-.576 1.045-.576 1.696V98h-1.472v-4.672c0-.736-.134-1.264-.4-1.584-.267-.33-.715-.496-1.344-.496-.566 0-1.04.24-1.424.72-.384.48-.576 1.045-.576 1.696V98Zm15.22-3.92c0-1.205.379-2.203 1.136-2.992.768-.79 1.734-1.184 2.896-1.184 1.163 0 2.123.395 2.88 1.184.768.79 1.152 1.787 1.152 2.992 0 1.216-.384 2.213-1.152 2.992-.757.79-1.717 1.184-2.88 1.184-1.162 0-2.128-.395-2.896-1.184-.757-.79-1.136-1.787-1.136-2.992Zm1.472 0c0 .843.246 1.525.736 2.048a2.402 2.402 0 0 0 1.824.784c.726 0 1.334-.261 1.824-.784.491-.523.736-1.205.736-2.048 0-.832-.245-1.51-.736-2.032-.501-.533-1.109-.8-1.824-.8-.714 0-1.322.267-1.824.8-.49.523-.736 1.2-.736 2.032Zm9.245 3.92h-1.472v-7.84h1.408v1.28h.064c.149-.416.453-.768.912-1.056.469-.299.928-.448 1.376-.448.427 0 .789.064 1.088.192l-.448 1.424c-.181-.075-.469-.112-.864-.112-.555 0-1.04.224-1.456.672-.405.448-.608.97-.608 1.568V98Zm7.44.256c-1.162 0-2.128-.395-2.896-1.184-.757-.81-1.136-1.808-1.136-2.992 0-1.205.379-2.203 1.136-2.992.768-.79 1.734-1.184 2.896-1.184.8 0 1.499.203 2.096.608.598.395 1.046.944 1.344 1.648l-1.344.56c-.416-.981-1.146-1.472-2.192-1.472-.672 0-1.253.272-1.744.816-.48.544-.72 1.216-.72 2.016s.24 1.472.72 2.016c.491.544 1.072.816 1.744.816 1.078 0 1.835-.49 2.272-1.472l1.312.56a3.54 3.54 0 0 1-1.36 1.664c-.608.395-1.317.592-2.128.592Zm6.68-10.8c0 .288-.102.533-.304.736a1.003 1.003 0 0 1-.736.304c-.288 0-.534-.101-.736-.304a1.001 1.001 0 0 1-.304-.736c0-.288.101-.533.304-.736.202-.203.448-.304.736-.304s.533.101.736.304c.202.203.304.448.304.736Zm-.304 2.704V98h-1.472v-7.84h1.472Zm-496.991 24h1.408v1.088h.064c.224-.384.565-.704 1.024-.96a3.003 3.003 0 0 1 1.456-.384c.96 0 1.696.277 2.208.832.523.544.784 1.323.784 2.336V122h-1.472v-4.832c-.032-1.28-.677-1.92-1.936-1.92-.587 0-1.077.24-1.472.72-.395.469-.592 1.035-.592 1.696V122h-1.472v-7.84Zm12.192 8.096c-1.152 0-2.101-.395-2.848-1.184-.747-.789-1.12-1.787-1.12-2.992 0-1.195.363-2.187 1.088-2.976.725-.8 1.653-1.2 2.784-1.2 1.163 0 2.085.379 2.768 1.136.693.747 1.04 1.797 1.04 3.152l-.016.16h-6.16c.021.768.277 1.387.768 1.856a2.459 2.459 0 0 0 1.76.704c.939 0 1.675-.469 2.208-1.408l1.312.64a3.896 3.896 0 0 1-1.472 1.552c-.619.373-1.323.56-2.112.56Zm-2.352-5.12h4.496a1.914 1.914 0 0 0-.672-1.344c-.395-.363-.928-.544-1.6-.544-.555 0-1.035.171-1.44.512-.395.341-.656.8-.784 1.376Zm11.072 5.12c-1.163 0-2.128-.395-2.896-1.184-.757-.811-1.136-1.808-1.136-2.992 0-1.205.379-2.203 1.136-2.992.768-.789 1.733-1.184 2.896-1.184.8 0 1.499.203 2.096.608.597.395 1.045.944 1.344 1.648l-1.344.56c-.416-.981-1.147-1.472-2.192-1.472-.672 0-1.253.272-1.744.816-.48.544-.72 1.216-.72 2.016s.24 1.472.72 2.016c.491.544 1.072.816 1.744.816 1.077 0 1.835-.491 2.272-1.472l1.312.56a3.539 3.539 0 0 1-1.36 1.664c-.608.395-1.317.592-2.128.592Zm8.291-8.096h1.408v1.088h.064c.224-.384.565-.704 1.024-.96a3.003 3.003 0 0 1 1.456-.384c.96 0 1.696.277 2.208.832.523.544.784 1.323.784 2.336V122h-1.472v-4.832c-.032-1.28-.677-1.92-1.936-1.92-.587 0-1.077.24-1.472.72-.395.469-.592 1.035-.592 1.696V122h-1.472v-7.84Zm12.192 8.096c-1.152 0-2.101-.395-2.848-1.184-.747-.789-1.12-1.787-1.12-2.992 0-1.195.363-2.187 1.088-2.976.725-.8 1.653-1.2 2.784-1.2 1.163 0 2.085.379 2.768 1.136.693.747 1.04 1.797 1.04 3.152l-.016.16h-6.16c.021.768.277 1.387.768 1.856a2.459 2.459 0 0 0 1.76.704c.939 0 1.675-.469 2.208-1.408l1.312.64a3.896 3.896 0 0 1-1.472 1.552c-.619.373-1.323.56-2.112.56Zm-2.352-5.12h4.496a1.914 1.914 0 0 0-.672-1.344c-.395-.363-.928-.544-1.6-.544-.555 0-1.035.171-1.44.512-.395.341-.656.8-.784 1.376Zm14.912 8.32h-1.472V122l.064-1.088h-.064c-.256.405-.624.731-1.104.976a3.336 3.336 0 0 1-1.568.368c-1.024 0-1.904-.405-2.64-1.216-.725-.821-1.088-1.808-1.088-2.96s.363-2.139 1.088-2.96c.736-.811 1.616-1.216 2.64-1.216.576 0 1.099.123 1.568.368.48.245.848.571 1.104.976h.064v-1.088h1.408v11.296Zm-3.904-4.544c.726 0 1.318-.261 1.776-.784.48-.523.72-1.205.72-2.048 0-.821-.24-1.499-.72-2.032a2.265 2.265 0 0 0-1.776-.8c-.704 0-1.296.267-1.776.8s-.72 1.211-.72 2.032c0 .832.24 1.509.72 2.032.48.533 1.072.8 1.776.8ZM351.464 122h-1.408v-1.088h-.064c-.224.384-.571.704-1.04.96a2.916 2.916 0 0 1-1.44.384c-.96 0-1.702-.272-2.224-.816-.512-.555-.768-1.339-.768-2.352v-4.928h1.472v4.832c.032 1.28.677 1.92 1.936 1.92.586 0 1.077-.235 1.472-.704.394-.48.592-1.051.592-1.712v-4.336h1.472V122Zm5.233.256c-1.152 0-2.101-.395-2.848-1.184-.746-.789-1.12-1.787-1.12-2.992 0-1.195.363-2.187 1.088-2.976.726-.8 1.654-1.2 2.784-1.2 1.163 0 2.086.379 2.768 1.136.694.747 1.04 1.797 1.04 3.152l-.016.16h-6.16c.022.768.278 1.387.768 1.856a2.46 2.46 0 0 0 1.76.704c.939 0 1.675-.469 2.208-1.408l1.312.64a3.889 3.889 0 0 1-1.472 1.552c-.618.373-1.322.56-2.112.56Zm-2.352-5.12h4.496a1.906 1.906 0 0 0-.672-1.344c-.394-.363-.928-.544-1.6-.544-.554 0-1.034.171-1.44.512-.394.341-.656.8-.784 1.376Zm18.342-5.68c0 .288-.102.533-.304.736a1.002 1.002 0 0 1-.736.304 1 1 0 0 1-.736-.304 1.002 1.002 0 0 1-.304-.736c0-.288.101-.533.304-.736a1 1 0 0 1 .736-.304c.288 0 .533.101.736.304.202.203.304.448.304.736Zm-5.296 4.048V122h-1.472v-6.496h-1.472v-1.344h1.472v-1.136c0-.384.064-.736.192-1.056.138-.32.325-.592.56-.816.234-.235.512-.416.832-.544.33-.128.688-.192 1.072-.192.533 0 .97.091 1.312.272l-.4 1.296a1.905 1.905 0 0 0-.864-.192 1.16 1.16 0 0 0-.896.384c-.224.245-.336.576-.336.992v.992h4.992V122h-1.472v-6.496h-3.52Zm6.911-1.344h1.408v1.088h.064c.224-.384.566-.704 1.024-.96.47-.256.955-.384 1.456-.384.96 0 1.696.277 2.208.832.523.544.784 1.323.784 2.336V122h-1.472v-4.832c-.032-1.28-.677-1.92-1.936-1.92-.586 0-1.077.24-1.472.72-.394.469-.592 1.035-.592 1.696V122h-1.472v-7.84Zm10.576-2.704c0 .288-.101.533-.304.736a1.002 1.002 0 0 1-.736.304c-.288 0-.533-.101-.736-.304a1.002 1.002 0 0 1-.304-.736c0-.288.101-.533.304-.736.203-.203.448-.304.736-.304s.533.101.736.304c.203.203.304.448.304.736Zm-.304 2.704V122h-1.472v-7.84h1.472Zm6.06 8.096a3.433 3.433 0 0 1-1.584-.368 2.765 2.765 0 0 1-1.088-.976h-.064V122h-1.408v-11.456h1.472v3.616l-.064 1.088h.064a2.765 2.765 0 0 1 1.088-.976 3.433 3.433 0 0 1 1.584-.368c1.034 0 1.909.405 2.624 1.216.736.821 1.104 1.808 1.104 2.96 0 1.163-.368 2.149-1.104 2.96-.715.811-1.59 1.216-2.624 1.216Zm-.24-1.344c.704 0 1.296-.267 1.776-.8.48-.523.72-1.2.72-2.032 0-.821-.24-1.499-.72-2.032-.48-.533-1.072-.8-1.776-.8-.715 0-1.312.267-1.792.8-.47.533-.704 1.211-.704 2.032 0 .832.234 1.515.704 2.048.48.523 1.077.784 1.792.784ZM402.51 122h-1.408v-1.088h-.064c-.224.384-.57.704-1.04.96a2.91 2.91 0 0 1-1.44.384c-.96 0-1.701-.272-2.224-.816-.512-.555-.768-1.339-.768-2.352v-4.928h1.472v4.832c.032 1.28.678 1.92 1.936 1.92.587 0 1.078-.235 1.472-.704.395-.48.592-1.051.592-1.712v-4.336h1.472V122Zm7.714-2.176c0 .683-.299 1.259-.896 1.728-.597.469-1.349.704-2.256.704-.789 0-1.483-.203-2.08-.608a3.444 3.444 0 0 1-1.28-1.632l1.312-.56c.192.469.469.837.832 1.104.373.256.779.384 1.216.384.469 0 .859-.101 1.168-.304.32-.203.48-.443.48-.72 0-.501-.384-.869-1.152-1.104l-1.344-.336c-1.525-.384-2.288-1.12-2.288-2.208 0-.715.288-1.285.864-1.712.587-.437 1.333-.656 2.24-.656.693 0 1.317.165 1.872.496.565.331.96.773 1.184 1.328l-1.312.544a1.601 1.601 0 0 0-.736-.768 2.19 2.19 0 0 0-1.12-.288c-.384 0-.731.096-1.04.288-.299.192-.448.427-.448.704 0 .448.421.768 1.264.96l1.184.304c1.557.384 2.336 1.168 2.336 2.352Zm6.269 2.176h-1.472v-7.84h1.408v1.088h.064c.224-.384.565-.704 1.024-.96.469-.256.933-.384 1.392-.384.576 0 1.083.133 1.52.4.437.267.757.635.96 1.104.651-1.003 1.552-1.504 2.704-1.504.907 0 1.605.277 2.096.832.491.555.736 1.344.736 2.368V122h-1.472v-4.672c0-.736-.133-1.264-.4-1.584-.267-.331-.715-.496-1.344-.496-.565 0-1.04.24-1.424.72-.384.48-.576 1.045-.576 1.696V122h-1.472v-4.672c0-.736-.133-1.264-.4-1.584-.267-.331-.715-.496-1.344-.496-.565 0-1.04.24-1.424.72-.384.48-.576 1.045-.576 1.696V122Zm13.147-2.4c0 .384.16.704.48.96a1.83 1.83 0 0 0 1.152.384c.619 0 1.168-.229 1.648-.688.491-.459.736-.997.736-1.616-.459-.363-1.099-.544-1.92-.544-.597 0-1.099.144-1.504.432-.395.288-.592.645-.592 1.072Zm1.904-5.696c1.088 0 1.947.293 2.576.88.629.576.944 1.371.944 2.384V122h-1.408v-1.088h-.064c-.608.896-1.419 1.344-2.432 1.344-.864 0-1.589-.256-2.176-.768a2.462 2.462 0 0 1-.864-1.92c0-.811.304-1.456.912-1.936.619-.48 1.44-.72 2.464-.72.875 0 1.595.16 2.16.48v-.336c0-.512-.203-.944-.608-1.296a2.066 2.066 0 0 0-1.424-.544c-.821 0-1.472.347-1.952 1.04l-1.296-.816c.715-1.024 1.771-1.536 3.168-1.536Zm13.248 8.224c-.64 0-1.173-.197-1.6-.592-.416-.395-.629-.944-.64-1.648v-4.384h-3.648v3.952c0 .459.091.789.272.992a.897.897 0 0 0 .672.304c.245 0 .48-.048.704-.144l.464 1.312c-.384.139-.832.208-1.344.208-.64 0-1.173-.197-1.6-.592-.416-.395-.629-.944-.64-1.648v-4.384h-1.376v-1.344h1.376v-2.4h1.472v2.4h3.648v-2.4h1.472v2.4h1.92v1.344h-1.92v3.904c0 .523.101.88.304 1.072.203.181.432.272.688.272.117 0 .229-.011.336-.032.117-.032.224-.069.32-.112l.464 1.312c-.384.139-.832.208-1.344.208Zm4.539-10.672c0 .288-.101.533-.304.736a1 1 0 0 1-.736.304c-.288 0-.533-.101-.736-.304a1.006 1.006 0 0 1-.304-.736c0-.288.102-.533.304-.736.203-.203.448-.304.736-.304a1 1 0 0 1 .736.304c.203.203.304.448.304.736Zm-.304 2.704V122h-1.472v-7.84h1.472Zm7.916 5.664c0 .683-.299 1.259-.896 1.728-.597.469-1.349.704-2.256.704-.789 0-1.483-.203-2.08-.608a3.444 3.444 0 0 1-1.28-1.632l1.312-.56c.192.469.469.837.832 1.104.373.256.779.384 1.216.384.469 0 .859-.101 1.168-.304.32-.203.48-.443.48-.72 0-.501-.384-.869-1.152-1.104l-1.344-.336c-1.525-.384-2.288-1.12-2.288-2.208 0-.715.288-1.285.864-1.712.587-.437 1.333-.656 2.24-.656.693 0 1.317.165 1.872.496.565.331.96.773 1.184 1.328l-1.312.544a1.601 1.601 0 0 0-.736-.768 2.19 2.19 0 0 0-1.12-.288c-.384 0-.731.096-1.04.288-.299.192-.448.427-.448.704 0 .448.421.768 1.264.96l1.184.304c1.557.384 2.336 1.168 2.336 2.352Z" fill="#000"/><rect x="288" y="150" width="12" height="12" rx="6" fill="#00BAFC"/><path d="M315.792 162h-1.776l-2.448-3.696-1.2 1.184V162h-1.472v-11.456h1.472v7.056l3.392-3.44h1.888v.064l-3.056 3.04 3.2 4.672V162Zm.156-3.92c0-1.205.379-2.203 1.136-2.992.768-.789 1.733-1.184 2.896-1.184 1.163 0 2.123.395 2.88 1.184.768.789 1.152 1.787 1.152 2.992 0 1.216-.384 2.213-1.152 2.992-.757.789-1.717 1.184-2.88 1.184-1.163 0-2.128-.395-2.896-1.184-.757-.789-1.136-1.787-1.136-2.992Zm1.472 0c0 .843.245 1.525.736 2.048a2.4 2.4 0 0 0 1.824.784 2.4 2.4 0 0 0 1.824-.784c.491-.523.736-1.205.736-2.048 0-.832-.245-1.509-.736-2.032-.501-.533-1.109-.8-1.824-.8-.715 0-1.323.267-1.824.8-.491.523-.736 1.2-.736 2.032Zm7.773-3.92h1.408v1.088h.064c.224-.384.565-.704 1.024-.96a3.003 3.003 0 0 1 1.456-.384c.96 0 1.696.277 2.208.832.523.544.784 1.323.784 2.336V162h-1.472v-4.832c-.032-1.28-.677-1.92-1.936-1.92-.587 0-1.077.24-1.472.72-.395.469-.592 1.035-.592 1.696V162h-1.472v-7.84Zm11.369 7.968c-.639 0-1.173-.197-1.599-.592-.416-.395-.63-.944-.64-1.648v-4.384h-1.376v-1.344h1.376v-2.4h1.472v2.4h1.92v1.344h-1.92v3.904c0 .523.101.88.304 1.072.202.181.432.272.687.272.118 0 .23-.011.337-.032.117-.032.224-.069.32-.112l.464 1.312c-.384.139-.832.208-1.345.208Zm3.469-2.528c0 .384.16.704.48.96.33.256.714.384 1.152.384.618 0 1.168-.229 1.648-.688.49-.459.736-.997.736-1.616-.459-.363-1.099-.544-1.92-.544-.598 0-1.099.144-1.504.432-.395.288-.592.645-.592 1.072Zm1.904-5.696c1.088 0 1.946.293 2.576.88.629.576.944 1.371.944 2.384V162h-1.408v-1.088h-.064c-.608.896-1.419 1.344-2.432 1.344-.864 0-1.59-.256-2.176-.768a2.462 2.462 0 0 1-.864-1.92c0-.811.304-1.456.912-1.936.618-.48 1.44-.72 2.464-.72.874 0 1.594.16 2.16.48v-.336c0-.512-.203-.944-.608-1.296a2.067 2.067 0 0 0-1.424-.544c-.822 0-1.472.347-1.953 1.04l-1.295-.816c.714-1.024 1.77-1.536 3.168-1.536ZM354.011 162h-1.776l-2.448-3.696-1.2 1.184V162h-1.472v-11.456h1.472v7.056l3.392-3.44h1.888v.064l-3.056 3.04 3.2 4.672V162Zm3.942.128c-.64 0-1.173-.197-1.6-.592-.416-.395-.629-.944-.64-1.648v-4.384h-1.376v-1.344h1.376v-2.4h1.472v2.4h1.92v1.344h-1.92v3.904c0 .523.101.88.304 1.072.203.181.432.272.688.272.117 0 .229-.011.336-.032.117-.032.224-.069.32-.112l.464 1.312c-.384.139-.832.208-1.344.208Zm10.212.128a3.433 3.433 0 0 1-1.584-.368 2.772 2.772 0 0 1-1.088-.976h-.064V162h-1.408v-11.456h1.472v3.616l-.064 1.088h.064a2.772 2.772 0 0 1 1.088-.976 3.433 3.433 0 0 1 1.584-.368c1.035 0 1.909.405 2.624 1.216.736.821 1.104 1.808 1.104 2.96 0 1.163-.368 2.149-1.104 2.96-.715.811-1.589 1.216-2.624 1.216Zm-.24-1.344c.704 0 1.296-.267 1.776-.8.48-.523.72-1.2.72-2.032 0-.821-.24-1.499-.72-2.032-.48-.533-1.072-.8-1.776-.8-.715 0-1.312.267-1.792.8-.469.533-.704 1.211-.704 2.032 0 .832.235 1.515.704 2.048.48.523 1.077.784 1.792.784Zm4.867-2.832c0-1.205.378-2.203 1.136-2.992.768-.789 1.733-1.184 2.896-1.184 1.162 0 2.122.395 2.88 1.184.768.789 1.152 1.787 1.152 2.992 0 1.216-.384 2.213-1.152 2.992-.758.789-1.718 1.184-2.88 1.184-1.163 0-2.128-.395-2.896-1.184-.758-.789-1.136-1.787-1.136-2.992Zm1.472 0c0 .843.245 1.525.736 2.048.49.523 1.098.784 1.824.784a2.4 2.4 0 0 0 1.824-.784c.49-.523.736-1.205.736-2.048 0-.832-.246-1.509-.736-2.032-.502-.533-1.11-.8-1.824-.8-.715 0-1.323.267-1.824.8-.491.523-.736 1.2-.736 2.032Zm10.798 4.048c-.639 0-1.173-.197-1.599-.592-.416-.395-.63-.944-.64-1.648v-4.384h-1.376v-1.344h1.376v-2.4h1.472v2.4h1.92v1.344h-1.92v3.904c0 .523.101.88.304 1.072.202.181.432.272.687.272.118 0 .23-.011.337-.032.117-.032.224-.069.32-.112l.464 1.312c-.384.139-.832.208-1.345.208Z" fill="#000"/><rect x="288" y="182" width="12" height="12" rx="6" fill="#00BAFC"/><path d="M313.04 194.256a3.433 3.433 0 0 1-1.584-.368 2.772 2.772 0 0 1-1.088-.976h-.064V194h-1.408v-11.456h1.472v3.616l-.064 1.088h.064a2.772 2.772 0 0 1 1.088-.976 3.433 3.433 0 0 1 1.584-.368c1.035 0 1.909.405 2.624 1.216.736.821 1.104 1.808 1.104 2.96 0 1.163-.368 2.149-1.104 2.96-.715.811-1.589 1.216-2.624 1.216Zm-.24-1.344c.704 0 1.296-.267 1.776-.8.48-.523.72-1.2.72-2.032 0-.821-.24-1.499-.72-2.032-.48-.533-1.072-.8-1.776-.8-.715 0-1.312.267-1.792.8-.469.533-.704 1.211-.704 2.032 0 .832.235 1.515.704 2.048.48.523 1.077.784 1.792.784Zm6.387-1.312c0 .384.16.704.48.96.33.256.714.384 1.152.384.618 0 1.168-.229 1.648-.688.49-.459.736-.997.736-1.616-.459-.363-1.099-.544-1.92-.544-.598 0-1.099.144-1.504.432-.395.288-.592.645-.592 1.072Zm1.904-5.696c1.088 0 1.946.293 2.576.88.629.576.944 1.371.944 2.384V194h-1.408v-1.088h-.064c-.608.896-1.419 1.344-2.432 1.344-.864 0-1.59-.256-2.176-.768a2.462 2.462 0 0 1-.864-1.92c0-.811.304-1.456.912-1.936.618-.48 1.44-.72 2.464-.72.874 0 1.594.16 2.16.48v-.336c0-.512-.203-.944-.608-1.296a2.067 2.067 0 0 0-1.424-.544c-.822 0-1.472.347-1.952 1.04l-1.296-.816c.714-1.024 1.77-1.536 3.168-1.536Zm6.652-3.36V194h-1.472v-11.456h1.472Zm3.266 0V194h-1.472v-11.456h1.472Zm2.787 9.056c0 .384.16.704.48.96a1.83 1.83 0 0 0 1.152.384c.619 0 1.168-.229 1.648-.688.491-.459.736-.997.736-1.616-.459-.363-1.099-.544-1.92-.544-.597 0-1.099.144-1.504.432-.395.288-.592.645-.592 1.072Zm1.904-5.696c1.088 0 1.947.293 2.576.88.629.576.944 1.371.944 2.384V194h-1.408v-1.088h-.064c-.608.896-1.419 1.344-2.432 1.344-.864 0-1.589-.256-2.176-.768a2.462 2.462 0 0 1-.864-1.92c0-.811.304-1.456.912-1.936.619-.48 1.44-.72 2.464-.72.875 0 1.595.16 2.16.48v-.336c0-.512-.203-.944-.608-1.296a2.066 2.066 0 0 0-1.424-.544c-.821 0-1.472.347-1.952 1.04l-1.296-.816c.715-1.024 1.771-1.536 3.168-1.536Zm6.652 8.096h-1.472v-7.84h1.408v1.28h.064c.15-.416.454-.768.912-1.056.47-.299.928-.448 1.376-.448.427 0 .79.064 1.088.192l-.448 1.424c-.181-.075-.469-.112-.864-.112-.554 0-1.04.224-1.456.672a2.266 2.266 0 0 0-.608 1.568V194Zm14.865-7.84-4.912 11.296h-1.52l1.824-3.952-3.232-7.344h1.6l2.335 5.632h.033l2.272-5.632h1.6Zm2.864-2.704c0 .288-.101.533-.304.736a1 1 0 0 1-.736.304c-.288 0-.533-.101-.736-.304a1.006 1.006 0 0 1-.304-.736c0-.288.102-.533.304-.736.203-.203.448-.304.736-.304a1 1 0 0 1 .736.304c.203.203.304.448.304.736Zm-.304 2.704V194h-1.472v-7.84h1.472Zm5.358 6.752c.725 0 1.317-.261 1.776-.784.48-.523.72-1.205.72-2.048 0-.821-.24-1.499-.72-2.032a2.267 2.267 0 0 0-1.776-.8c-.704 0-1.296.267-1.776.8s-.72 1.211-.72 2.032c0 .832.24 1.509.72 2.032.48.533 1.072.8 1.776.8Zm-.048 4.8c-.438 0-.848-.059-1.232-.176a3.923 3.923 0 0 1-1.056-.464 3.452 3.452 0 0 1-.8-.72 3.028 3.028 0 0 1-.512-.928l1.392-.576c.16.459.437.827.832 1.104.394.277.853.416 1.376.416.8 0 1.424-.24 1.872-.72.448-.48.672-1.141.672-1.984v-.752h-.064a2.945 2.945 0 0 1-1.136.992c-.47.235-.982.352-1.536.352-1.024 0-1.904-.4-2.64-1.2-.726-.821-1.088-1.813-1.088-2.976s.362-2.149 1.088-2.96c.736-.811 1.616-1.216 2.64-1.216.554 0 1.066.123 1.536.368.48.235.858.56 1.136.976h.064v-1.088h1.408v7.504c0 1.259-.358 2.245-1.072 2.96-.726.725-1.686 1.088-2.88 1.088Zm6.307-11.68-.688-.448.8-1.216a1.007 1.007 0 0 1-.576-.336.994.994 0 0 1-.224-.656c0-.309.106-.565.32-.768.213-.213.469-.32.768-.32.309 0 .565.107.768.32.213.203.32.459.32.768 0 .299-.112.624-.336.976l-1.152 1.68Zm4.578-2.576c0 .288-.101.533-.304.736a1.002 1.002 0 0 1-.736.304c-.288 0-.533-.101-.736-.304a1.002 1.002 0 0 1-.304-.736c0-.288.101-.533.304-.736.203-.203.448-.304.736-.304s.533.101.736.304c.203.203.304.448.304.736Zm-.304 2.704V194h-1.472v-7.84h1.472Zm7.916 5.664c0 .683-.299 1.259-.896 1.728-.598.469-1.35.704-2.256.704-.79 0-1.483-.203-2.08-.608a3.437 3.437 0 0 1-1.28-1.632l1.312-.56c.192.469.469.837.832 1.104.373.256.778.384 1.216.384.469 0 .858-.101 1.168-.304.32-.203.48-.443.48-.72 0-.501-.384-.869-1.152-1.104l-1.344-.336c-1.526-.384-2.288-1.12-2.288-2.208 0-.715.288-1.285.864-1.712.586-.437 1.333-.656 2.24-.656.693 0 1.317.165 1.872.496.565.331.96.773 1.184 1.328l-1.312.544a1.605 1.605 0 0 0-.736-.768 2.19 2.19 0 0 0-1.12-.288c-.384 0-.731.096-1.04.288-.299.192-.449.427-.449.704 0 .448.422.768 1.265.96l1.184.304c1.557.384 2.336 1.168 2.336 2.352Zm1.281-9.28h1.472v3.616l-.064 1.088h.064c.224-.384.565-.704 1.024-.96a3 3 0 0 1 1.456-.384c.96 0 1.696.277 2.208.832.522.544.784 1.323.784 2.336V194h-1.472v-4.64c0-1.408-.624-2.112-1.872-2.112-.598 0-1.104.251-1.52.752a2.628 2.628 0 0 0-.608 1.728V194h-1.472v-11.456Z" fill="#000"/><rect x="288" y="214" width="12" height="12" rx="6" fill="#00BAFC"/><path d="m315.904 218.16-4.912 11.296h-1.52l1.824-3.952-3.232-7.344h1.6l2.336 5.632h.032l2.272-5.632h1.6Zm4.168 8.096c-1.152 0-2.101-.395-2.848-1.184-.746-.789-1.12-1.787-1.12-2.992 0-1.195.363-2.187 1.088-2.976.726-.8 1.654-1.2 2.784-1.2 1.163 0 2.086.379 2.768 1.136.694.747 1.04 1.797 1.04 3.152l-.016.16h-6.16c.022.768.278 1.387.768 1.856a2.46 2.46 0 0 0 1.76.704c.939 0 1.675-.469 2.208-1.408l1.312.64a3.889 3.889 0 0 1-1.472 1.552c-.618.373-1.322.56-2.112.56Zm-2.352-5.12h4.496a1.906 1.906 0 0 0-.672-1.344c-.394-.363-.928-.544-1.6-.544-.554 0-1.034.171-1.44.512-.394.341-.656.8-.784 1.376Zm10.28 4.992c-.64 0-1.173-.197-1.6-.592-.416-.395-.629-.944-.64-1.648v-4.384h-1.376v-1.344h1.376v-2.4h1.472v2.4h1.92v1.344h-1.92v3.904c0 .523.101.88.304 1.072.203.181.432.272.688.272.117 0 .229-.011.336-.032.117-.032.224-.069.32-.112l.464 1.312c-.384.139-.832.208-1.344.208Zm9.526-.128h-1.776l-2.448-3.696-1.2 1.184V226h-1.472v-11.456h1.472v7.056l3.392-3.44h1.888v.064l-3.056 3.04 3.2 4.672V226Zm1.755-2.4c0 .384.16.704.48.96.33.256.714.384 1.152.384.618 0 1.168-.229 1.648-.688.49-.459.736-.997.736-1.616-.459-.363-1.099-.544-1.92-.544-.598 0-1.099.144-1.504.432-.395.288-.592.645-.592 1.072Zm1.904-5.696c1.088 0 1.946.293 2.576.88.629.576.944 1.371.944 2.384V226h-1.408v-1.088h-.064c-.608.896-1.419 1.344-2.432 1.344-.864 0-1.59-.256-2.176-.768a2.462 2.462 0 0 1-.864-1.92c0-.811.304-1.456.912-1.936.618-.48 1.44-.72 2.464-.72.874 0 1.594.16 2.16.48v-.336c0-.512-.203-.944-.608-1.296a2.067 2.067 0 0 0-1.424-.544c-.822 0-1.472.347-1.953 1.04l-1.295-.816c.714-1.024 1.77-1.536 3.168-1.536ZM352.473 226h-6.336v-1.28l4.464-5.216h-4.336v-1.344h6.144v1.28l-4.464 5.216h4.528V226Zm3.468-10.544c0 .288-.102.533-.304.736a1.002 1.002 0 0 1-.736.304 1 1 0 0 1-.736-.304 1.002 1.002 0 0 1-.304-.736c0-.288.101-.533.304-.736a1 1 0 0 1 .736-.304c.288 0 .533.101.736.304.202.203.304.448.304.736Zm-.304 2.704V226h-1.472v-7.84h1.472Zm6.059 8.096a3.433 3.433 0 0 1-1.584-.368 2.772 2.772 0 0 1-1.088-.976h-.064V226h-1.408v-11.456h1.472v3.616l-.064 1.088h.064a2.772 2.772 0 0 1 1.088-.976 3.433 3.433 0 0 1 1.584-.368c1.035 0 1.91.405 2.624 1.216.736.821 1.104 1.808 1.104 2.96 0 1.163-.368 2.149-1.104 2.96-.714.811-1.589 1.216-2.624 1.216Zm-.24-1.344c.704 0 1.296-.267 1.776-.8.48-.523.72-1.2.72-2.032 0-.821-.24-1.499-.72-2.032-.48-.533-1.072-.8-1.776-.8-.714 0-1.312.267-1.792.8-.469.533-.704 1.211-.704 2.032 0 .832.235 1.515.704 2.048.48.523 1.078.784 1.792.784Zm12.975 1.344a3.433 3.433 0 0 1-1.584-.368 2.765 2.765 0 0 1-1.088-.976h-.064V226h-1.408v-11.456h1.472v3.616l-.064 1.088h.064a2.765 2.765 0 0 1 1.088-.976 3.433 3.433 0 0 1 1.584-.368c1.034 0 1.909.405 2.624 1.216.736.821 1.104 1.808 1.104 2.96 0 1.163-.368 2.149-1.104 2.96-.715.811-1.59 1.216-2.624 1.216Zm-.24-1.344c.704 0 1.296-.267 1.776-.8.48-.523.72-1.2.72-2.032 0-.821-.24-1.499-.72-2.032-.48-.533-1.072-.8-1.776-.8-.715 0-1.312.267-1.792.8-.47.533-.704 1.211-.704 2.032 0 .832.234 1.515.704 2.048.48.523 1.077.784 1.792.784Zm8.834 1.344c-1.152 0-2.101-.395-2.848-1.184-.746-.789-1.12-1.787-1.12-2.992 0-1.195.363-2.187 1.088-2.976.726-.8 1.654-1.2 2.784-1.2 1.163 0 2.086.379 2.768 1.136.694.747 1.04 1.797 1.04 3.152l-.016.16h-6.16c.022.768.278 1.387.768 1.856a2.46 2.46 0 0 0 1.76.704c.939 0 1.675-.469 2.208-1.408l1.312.64a3.889 3.889 0 0 1-1.472 1.552c-.618.373-1.322.56-2.112.56Zm-2.352-5.12h4.496a1.906 1.906 0 0 0-.672-1.344c-.394-.363-.928-.544-1.6-.544-.554 0-1.034.171-1.44.512-.394.341-.656.8-.784 1.376Zm8.883 4.864h-1.472v-7.84h1.408v1.28h.064c.149-.416.453-.768.912-1.056.469-.299.928-.448 1.376-.448.426 0 .789.064 1.088.192l-.448 1.424c-.182-.075-.47-.112-.864-.112-.555 0-1.04.224-1.456.672a2.261 2.261 0 0 0-.608 1.568V226Zm6.244-10.544c0 .288-.101.533-.304.736a1.002 1.002 0 0 1-.736.304c-.288 0-.533-.101-.736-.304a1.002 1.002 0 0 1-.304-.736c0-.288.101-.533.304-.736.203-.203.448-.304.736-.304s.533.101.736.304c.203.203.304.448.304.736Zm-.304 2.704V226h-1.472v-7.84h1.472Zm7.916 5.664c0 .683-.299 1.259-.896 1.728-.598.469-1.35.704-2.256.704-.79 0-1.483-.203-2.08-.608a3.437 3.437 0 0 1-1.28-1.632l1.312-.56c.192.469.469.837.832 1.104.373.256.778.384 1.216.384.469 0 .858-.101 1.168-.304.32-.203.48-.443.48-.72 0-.501-.384-.869-1.152-1.104l-1.344-.336c-1.526-.384-2.288-1.12-2.288-2.208 0-.715.288-1.285.864-1.712.586-.437 1.333-.656 2.24-.656.693 0 1.317.165 1.872.496.565.331.96.773 1.184 1.328l-1.312.544a1.605 1.605 0 0 0-.736-.768 2.19 2.19 0 0 0-1.12-.288c-.384 0-.731.096-1.04.288-.299.192-.448.427-.448.704 0 .448.421.768 1.264.96l1.184.304c1.557.384 2.336 1.168 2.336 2.352Zm1.281-9.28h1.472v3.616l-.064 1.088h.064c.224-.384.565-.704 1.024-.96a3.003 3.003 0 0 1 1.456-.384c.96 0 1.696.277 2.208.832.523.544.784 1.323.784 2.336V226h-1.472v-4.64c0-1.408-.624-2.112-1.872-2.112-.597 0-1.104.251-1.52.752a2.633 2.633 0 0 0-.608 1.728V226h-1.472v-11.456Z" fill="#000"/><rect x="288" y="246" width="12" height="12" rx="6" fill="#00BAFC"/><path d="M313.056 247.952V258h-1.472v-10.048h-3.2v-1.408h7.872v1.408h-3.2Zm6.719 10.304c-1.152 0-2.101-.395-2.848-1.184-.746-.789-1.12-1.787-1.12-2.992 0-1.195.363-2.187 1.088-2.976.726-.8 1.654-1.2 2.784-1.2 1.163 0 2.086.379 2.768 1.136.694.747 1.04 1.797 1.04 3.152l-.016.16h-6.16c.022.768.278 1.387.768 1.856a2.46 2.46 0 0 0 1.76.704c.939 0 1.675-.469 2.208-1.408l1.312.64a3.889 3.889 0 0 1-1.472 1.552c-.618.373-1.322.56-2.112.56Zm-2.352-5.12h4.496a1.906 1.906 0 0 0-.672-1.344c-.394-.363-.928-.544-1.6-.544-.554 0-1.034.171-1.44.512-.394.341-.656.8-.784 1.376Zm8.883-6.592V258h-1.472v-11.456h1.472Zm5.235 11.712c-1.152 0-2.101-.395-2.848-1.184-.747-.789-1.12-1.787-1.12-2.992 0-1.195.363-2.187 1.088-2.976.725-.8 1.653-1.2 2.784-1.2 1.163 0 2.085.379 2.768 1.136.693.747 1.04 1.797 1.04 3.152l-.016.16h-6.16c.021.768.277 1.387.768 1.856a2.459 2.459 0 0 0 1.76.704c.939 0 1.675-.469 2.208-1.408l1.312.64a3.896 3.896 0 0 1-1.472 1.552c-.619.373-1.323.56-2.112.56Zm-2.352-5.12h4.496a1.914 1.914 0 0 0-.672-1.344c-.395-.363-.928-.544-1.6-.544-.555 0-1.035.171-1.44.512-.395.341-.656.8-.784 1.376Zm11.008 3.776c.726 0 1.318-.261 1.776-.784.48-.523.72-1.205.72-2.048 0-.821-.24-1.499-.72-2.032a2.265 2.265 0 0 0-1.776-.8c-.704 0-1.296.267-1.776.8s-.72 1.211-.72 2.032c0 .832.24 1.509.72 2.032.48.533 1.072.8 1.776.8Zm-.048 4.8c-.437 0-.848-.059-1.232-.176a3.923 3.923 0 0 1-1.056-.464 3.472 3.472 0 0 1-.8-.72 3.05 3.05 0 0 1-.512-.928l1.392-.576c.16.459.438.827.832 1.104.395.277.854.416 1.376.416.8 0 1.424-.24 1.872-.72.448-.48.672-1.141.672-1.984v-.752h-.064a2.938 2.938 0 0 1-1.136.992 3.38 3.38 0 0 1-1.536.352c-1.024 0-1.904-.4-2.64-1.2-.725-.821-1.088-1.813-1.088-2.976s.363-2.149 1.088-2.96c.736-.811 1.616-1.216 2.64-1.216.555 0 1.067.123 1.536.368.48.235.859.56 1.136.976h.064v-1.088h1.408v7.504c0 1.259-.357 2.245-1.072 2.96-.725.725-1.685 1.088-2.88 1.088Zm7.219-3.712h-1.472v-7.84h1.408v1.28h.064c.149-.416.453-.768.912-1.056.469-.299.928-.448 1.376-.448.427 0 .789.064 1.088.192l-.448 1.424c-.181-.075-.469-.112-.864-.112-.555 0-1.04.224-1.456.672a2.266 2.266 0 0 0-.608 1.568V258Zm5.1-2.4c0 .384.16.704.48.96a1.83 1.83 0 0 0 1.152.384c.619 0 1.168-.229 1.648-.688.491-.459.736-.997.736-1.616-.459-.363-1.099-.544-1.92-.544-.597 0-1.099.144-1.504.432-.395.288-.592.645-.592 1.072Zm1.904-5.696c1.088 0 1.947.293 2.576.88.629.576.944 1.371.944 2.384V258h-1.408v-1.088h-.064c-.608.896-1.419 1.344-2.432 1.344-.864 0-1.589-.256-2.176-.768a2.462 2.462 0 0 1-.864-1.92c0-.811.304-1.456.912-1.936.619-.48 1.44-.72 2.464-.72.875 0 1.595.16 2.16.48v-.336c0-.512-.203-.944-.608-1.296a2.066 2.066 0 0 0-1.424-.544c-.821 0-1.472.347-1.952 1.04l-1.296-.816c.715-1.024 1.771-1.536 3.168-1.536Zm6.652 8.096h-1.472v-7.84h1.408v1.088h.064c.224-.384.566-.704 1.024-.96.47-.256.934-.384 1.392-.384.576 0 1.083.133 1.52.4.438.267.758.635.96 1.104.651-1.003 1.552-1.504 2.704-1.504.907 0 1.606.277 2.096.832.491.555.736 1.344.736 2.368V258h-1.472v-4.672c0-.736-.133-1.264-.4-1.584-.266-.331-.714-.496-1.344-.496-.565 0-1.04.24-1.424.72-.384.48-.576 1.045-.576 1.696V258h-1.472v-4.672c0-.736-.133-1.264-.4-1.584-.266-.331-.714-.496-1.344-.496-.565 0-1.04.24-1.424.72-.384.48-.576 1.045-.576 1.696V258Zm15.221-3.92c0-1.205.379-2.203 1.136-2.992.768-.789 1.733-1.184 2.896-1.184 1.163 0 2.123.395 2.88 1.184.768.789 1.152 1.787 1.152 2.992 0 1.216-.384 2.213-1.152 2.992-.757.789-1.717 1.184-2.88 1.184-1.163 0-2.128-.395-2.896-1.184-.757-.789-1.136-1.787-1.136-2.992Zm1.472 0c0 .843.245 1.525.736 2.048a2.4 2.4 0 0 0 1.824.784 2.4 2.4 0 0 0 1.824-.784c.491-.523.736-1.205.736-2.048 0-.832-.245-1.509-.736-2.032-.501-.533-1.109-.8-1.824-.8-.715 0-1.323.267-1.824.8-.491.523-.736 1.2-.736 2.032Zm9.323-7.536V258h-1.472v-11.456h1.472Zm5.235 10.368c.726 0 1.318-.261 1.776-.784.48-.523.72-1.205.72-2.048 0-.821-.24-1.499-.72-2.032a2.265 2.265 0 0 0-1.776-.8c-.704 0-1.296.267-1.776.8s-.72 1.211-.72 2.032c0 .832.24 1.509.72 2.032.48.533 1.072.8 1.776.8Zm-.24 1.344c-1.024 0-1.904-.405-2.64-1.216-.725-.821-1.088-1.808-1.088-2.96s.363-2.139 1.088-2.96c.736-.811 1.616-1.216 2.64-1.216.576 0 1.099.123 1.568.368.48.245.848.571 1.104.976h.064l-.064-1.088v-3.616h1.472V258h-1.408v-1.088h-.064c-.256.405-.624.731-1.104.976a3.336 3.336 0 0 1-1.568.368Zm7.843-10.8c0 .288-.101.533-.304.736a1.002 1.002 0 0 1-.736.304c-.288 0-.533-.101-.736-.304a1.002 1.002 0 0 1-.304-.736c0-.288.101-.533.304-.736.203-.203.448-.304.736-.304s.533.101.736.304c.203.203.304.448.304.736Zm-.304 2.704V258h-1.472v-7.84h1.472Zm7.036 3.488h-5.12v-1.216h5.12v1.216Zm7.786 2.176c0 .683-.299 1.259-.896 1.728-.597.469-1.349.704-2.256.704-.789 0-1.483-.203-2.08-.608a3.444 3.444 0 0 1-1.28-1.632l1.312-.56c.192.469.469.837.832 1.104.373.256.779.384 1.216.384.469 0 .859-.101 1.168-.304.32-.203.48-.443.48-.72 0-.501-.384-.869-1.152-1.104l-1.344-.336c-1.525-.384-2.288-1.12-2.288-2.208 0-.715.288-1.285.864-1.712.587-.437 1.333-.656 2.24-.656.693 0 1.317.165 1.872.496.565.331.96.773 1.184 1.328l-1.312.544a1.601 1.601 0 0 0-.736-.768 2.19 2.19 0 0 0-1.12-.288c-.384 0-.731.096-1.04.288-.299.192-.448.427-.448.704 0 .448.421.768 1.264.96l1.184.304c1.557.384 2.336 1.168 2.336 2.352Zm.911-1.744c0-1.205.379-2.203 1.136-2.992.768-.789 1.734-1.184 2.896-1.184 1.163 0 2.123.395 2.88 1.184.768.789 1.152 1.787 1.152 2.992 0 1.216-.384 2.213-1.152 2.992-.757.789-1.717 1.184-2.88 1.184-1.162 0-2.128-.395-2.896-1.184-.757-.789-1.136-1.787-1.136-2.992Zm1.472 0c0 .843.246 1.525.736 2.048a2.4 2.4 0 0 0 1.824.784c.726 0 1.334-.261 1.824-.784.491-.523.736-1.205.736-2.048 0-.832-.245-1.509-.736-2.032-.501-.533-1.109-.8-1.824-.8-.714 0-1.322.267-1.824.8-.49.523-.736 1.2-.736 2.032Zm10.799 4.048c-.64 0-1.173-.197-1.6-.592-.416-.395-.629-.944-.64-1.648v-4.384h-1.376v-1.344h1.376v-2.4h1.472v2.4h1.92v1.344h-1.92v3.904c0 .523.101.88.304 1.072.203.181.432.272.688.272.117 0 .229-.011.336-.032.117-.032.224-.069.32-.112l.464 1.312c-.384.139-.832.208-1.344.208Zm5.994-1.216c.726 0 1.318-.261 1.776-.784.48-.523.72-1.205.72-2.048 0-.821-.24-1.499-.72-2.032a2.265 2.265 0 0 0-1.776-.8c-.704 0-1.296.267-1.776.8s-.72 1.211-.72 2.032c0 .832.24 1.509.72 2.032.48.533 1.072.8 1.776.8Zm-.24 1.344c-1.024 0-1.904-.405-2.64-1.216-.725-.821-1.088-1.808-1.088-2.96s.363-2.139 1.088-2.96c.736-.811 1.616-1.216 2.64-1.216.576 0 1.099.123 1.568.368.48.245.848.571 1.104.976h.064l-.064-1.088v-3.616h1.472V258h-1.408v-1.088h-.064c-.256.405-.624.731-1.104.976a3.336 3.336 0 0 1-1.568.368Zm7.843-10.8c0 .288-.101.533-.304.736a1.002 1.002 0 0 1-.736.304c-.288 0-.533-.101-.736-.304a1.002 1.002 0 0 1-.304-.736c0-.288.101-.533.304-.736.203-.203.448-.304.736-.304s.533.101.736.304c.203.203.304.448.304.736Zm-.304 2.704V258h-1.472v-7.84h1.472Z" fill="#000"/><rect x="288" y="278" width="12" height="12" rx="6" fill="#00BAFC"/><path d="M308.448 286.08c0-1.205.379-2.203 1.136-2.992.768-.789 1.733-1.184 2.896-1.184 1.163 0 2.123.395 2.88 1.184.768.789 1.152 1.787 1.152 2.992 0 1.216-.384 2.213-1.152 2.992-.757.789-1.717 1.184-2.88 1.184-1.163 0-2.128-.395-2.896-1.184-.757-.789-1.136-1.787-1.136-2.992Zm1.472 0c0 .843.245 1.525.736 2.048a2.4 2.4 0 0 0 1.824.784 2.4 2.4 0 0 0 1.824-.784c.491-.523.736-1.205.736-2.048 0-.832-.245-1.509-.736-2.032-.501-.533-1.109-.8-1.824-.8-.715 0-1.323.267-1.824.8-.491.523-.736 1.2-.736 2.032Zm11.581 3.92h-1.472l-3.168-7.84h1.6l2.304 6.08h.032l2.336-6.08h1.568l-3.2 7.84Zm3.478-3.92c0-1.205.379-2.203 1.136-2.992.768-.789 1.734-1.184 2.896-1.184 1.163 0 2.123.395 2.88 1.184.768.789 1.152 1.787 1.152 2.992 0 1.216-.384 2.213-1.152 2.992-.757.789-1.717 1.184-2.88 1.184-1.162 0-2.128-.395-2.896-1.184-.757-.789-1.136-1.787-1.136-2.992Zm1.472 0c0 .843.246 1.525.736 2.048a2.4 2.4 0 0 0 1.824.784c.726 0 1.334-.261 1.824-.784.491-.523.736-1.205.736-2.048 0-.832-.245-1.509-.736-2.032-.501-.533-1.109-.8-1.824-.8-.714 0-1.322.267-1.824.8-.49.523-.736 1.2-.736 2.032Zm13.725 3.92h-6.336v-1.28l4.464-5.216h-4.336v-1.344h6.144v1.28l-4.464 5.216h4.528V290Zm9.067.256a3.433 3.433 0 0 1-1.584-.368 2.772 2.772 0 0 1-1.088-.976h-.064V290h-1.408v-11.456h1.472v3.616l-.064 1.088h.064a2.772 2.772 0 0 1 1.088-.976 3.433 3.433 0 0 1 1.584-.368c1.035 0 1.909.405 2.624 1.216.736.821 1.104 1.808 1.104 2.96 0 1.163-.368 2.149-1.104 2.96-.715.811-1.589 1.216-2.624 1.216Zm-.24-1.344c.704 0 1.296-.267 1.776-.8.48-.523.72-1.2.72-2.032 0-.821-.24-1.499-.72-2.032-.48-.533-1.072-.8-1.776-.8-.715 0-1.312.267-1.792.8-.469.533-.704 1.211-.704 2.032 0 .832.235 1.515.704 2.048.48.523 1.077.784 1.792.784Zm7.141-9.456c0 .288-.102.533-.304.736a1.002 1.002 0 0 1-.736.304 1 1 0 0 1-.736-.304 1.002 1.002 0 0 1-.304-.736c0-.288.101-.533.304-.736a1 1 0 0 1 .736-.304c.288 0 .533.101.736.304.202.203.304.448.304.736Zm-.304 2.704V290h-1.472v-7.84h1.472Zm3.387-3.616V290h-1.472v-11.456h1.472Zm2.788 9.056c0 .384.16.704.48.96a1.83 1.83 0 0 0 1.152.384c.619 0 1.168-.229 1.648-.688.491-.459.736-.997.736-1.616-.459-.363-1.099-.544-1.92-.544-.597 0-1.099.144-1.504.432-.395.288-.592.645-.592 1.072Zm1.904-5.696c1.088 0 1.947.293 2.576.88.629.576.944 1.371.944 2.384V290h-1.408v-1.088h-.064c-.608.896-1.419 1.344-2.432 1.344-.864 0-1.589-.256-2.176-.768a2.462 2.462 0 0 1-.864-1.92c0-.811.304-1.456.912-1.936.619-.48 1.44-.72 2.464-.72.875 0 1.595.16 2.16.48v-.336c0-.512-.203-.944-.608-1.296a2.066 2.066 0 0 0-1.424-.544c-.821 0-1.472.347-1.952 1.04l-1.296-.816c.715-1.024 1.771-1.536 3.168-1.536Zm5.18.256h1.408v1.088h.064c.224-.384.565-.704 1.024-.96a3.003 3.003 0 0 1 1.456-.384c.96 0 1.696.277 2.208.832.523.544.784 1.323.784 2.336V290h-1.472v-4.832c-.032-1.28-.677-1.92-1.936-1.92-.587 0-1.077.24-1.472.72-.395.469-.592 1.035-.592 1.696V290h-1.472v-7.84Zm14.092-2.704c0 .288-.102.533-.304.736a1.002 1.002 0 0 1-.736.304 1 1 0 0 1-.736-.304 1.002 1.002 0 0 1-.304-.736c0-.288.101-.533.304-.736a1 1 0 0 1 .736-.304c.288 0 .533.101.736.304.202.203.304.448.304.736Zm-.304 2.704V290h-1.472v-7.84h1.472Zm7.915 5.664c0 .683-.298 1.259-.896 1.728-.597.469-1.349.704-2.256.704-.789 0-1.482-.203-2.08-.608a3.444 3.444 0 0 1-1.28-1.632l1.312-.56c.192.469.47.837.832 1.104a2.11 2.11 0 0 0 1.216.384c.47 0 .859-.101 1.168-.304.32-.203.48-.443.48-.72 0-.501-.384-.869-1.152-1.104l-1.344-.336c-1.525-.384-2.288-1.12-2.288-2.208 0-.715.288-1.285.864-1.712.587-.437 1.334-.656 2.24-.656.694 0 1.318.165 1.872.496.566.331.96.773 1.184 1.328l-1.312.544a1.596 1.596 0 0 0-.736-.768 2.187 2.187 0 0 0-1.12-.288c-.384 0-.73.096-1.04.288-.298.192-.448.427-.448.704 0 .448.422.768 1.264.96l1.184.304c1.558.384 2.336 1.168 2.336 2.352Zm1.282-9.28h1.472v3.616l-.064 1.088h.064c.224-.384.565-.704 1.024-.96a3 3 0 0 1 1.456-.384c.96 0 1.696.277 2.208.832.522.544.784 1.323.784 2.336V290h-1.472v-4.64c0-1.408-.624-2.112-1.872-2.112-.598 0-1.104.251-1.52.752a2.628 2.628 0 0 0-.608 1.728V290h-1.472v-11.456Zm10.143 0V290h-1.472v-11.456h1.472Zm2.788 9.056c0 .384.16.704.48.96a1.83 1.83 0 0 0 1.152.384c.619 0 1.168-.229 1.648-.688.491-.459.736-.997.736-1.616-.459-.363-1.099-.544-1.92-.544-.597 0-1.099.144-1.504.432-.395.288-.592.645-.592 1.072Zm1.904-5.696c1.088 0 1.947.293 2.576.88.629.576.944 1.371.944 2.384V290h-1.408v-1.088h-.064c-.608.896-1.419 1.344-2.432 1.344-.864 0-1.589-.256-2.176-.768a2.462 2.462 0 0 1-.864-1.92c0-.811.304-1.456.912-1.936.619-.48 1.44-.72 2.464-.72.875 0 1.595.16 2.16.48v-.336c0-.512-.203-.944-.608-1.296a2.066 2.066 0 0 0-1.424-.544c-.821 0-1.472.347-1.952 1.04l-1.296-.816c.715-1.024 1.771-1.536 3.168-1.536Zm11.102 5.92c0 .683-.299 1.259-.896 1.728-.597.469-1.349.704-2.256.704-.789 0-1.483-.203-2.08-.608a3.444 3.444 0 0 1-1.28-1.632l1.312-.56c.192.469.469.837.832 1.104.373.256.779.384 1.216.384.469 0 .859-.101 1.168-.304.32-.203.48-.443.48-.72 0-.501-.384-.869-1.152-1.104l-1.344-.336c-1.525-.384-2.288-1.12-2.288-2.208 0-.715.288-1.285.864-1.712.587-.437 1.333-.656 2.24-.656.693 0 1.317.165 1.872.496.565.331.96.773 1.184 1.328l-1.312.544a1.601 1.601 0 0 0-.736-.768 2.19 2.19 0 0 0-1.12-.288c-.384 0-.731.096-1.04.288-.299.192-.448.427-.448.704 0 .448.421.768 1.264.96l1.184.304c1.557.384 2.336 1.168 2.336 2.352Zm1.281-9.28h1.472v3.616l-.064 1.088h.064c.224-.384.566-.704 1.024-.96.47-.256.955-.384 1.456-.384.96 0 1.696.277 2.208.832.523.544.784 1.323.784 2.336V290h-1.472v-4.64c0-1.408-.624-2.112-1.872-2.112-.597 0-1.104.251-1.52.752a2.633 2.633 0 0 0-.608 1.728V290h-1.472v-11.456Z" fill="#000"/><rect x="288" y="310" width="12" height="12" rx="6" fill="#00BAFC"/><path d="M310.368 322h-1.472v-7.84h1.408v1.088h.064c.224-.384.565-.704 1.024-.96.469-.256.933-.384 1.392-.384.576 0 1.083.133 1.52.4.437.267.757.635.96 1.104.651-1.003 1.552-1.504 2.704-1.504.907 0 1.605.277 2.096.832.491.555.736 1.344.736 2.368V322h-1.472v-4.672c0-.736-.133-1.264-.4-1.584-.267-.331-.715-.496-1.344-.496-.565 0-1.04.24-1.424.72-.384.48-.576 1.045-.576 1.696V322h-1.472v-4.672c0-.736-.133-1.264-.4-1.584-.267-.331-.715-.496-1.344-.496-.565 0-1.04.24-1.424.72-.384.48-.576 1.045-.576 1.696V322Zm13.147-2.4c0 .384.16.704.48.96a1.83 1.83 0 0 0 1.152.384c.619 0 1.168-.229 1.648-.688.491-.459.736-.997.736-1.616-.459-.363-1.099-.544-1.92-.544-.597 0-1.099.144-1.504.432-.395.288-.592.645-.592 1.072Zm1.904-5.696c1.088 0 1.947.293 2.576.88.629.576.944 1.371.944 2.384V322h-1.408v-1.088h-.064c-.608.896-1.419 1.344-2.432 1.344-.864 0-1.589-.256-2.176-.768a2.462 2.462 0 0 1-.864-1.92c0-.811.304-1.456.912-1.936.619-.48 1.44-.72 2.464-.72.875 0 1.595.16 2.16.48v-.336c0-.512-.203-.944-.608-1.296a2.066 2.066 0 0 0-1.424-.544c-.821 0-1.472.347-1.952 1.04l-1.296-.816c.715-1.024 1.771-1.536 3.168-1.536Zm8.83 4.112 2.8 3.984h-1.728l-1.936-2.896-1.904 2.896h-1.728l2.768-3.984-2.704-3.856h1.664l1.936 2.768 1.84-2.768h1.728l-2.736 3.856Zm9.585 1.808c0 .683-.299 1.259-.896 1.728-.598.469-1.35.704-2.256.704-.79 0-1.483-.203-2.08-.608a3.437 3.437 0 0 1-1.28-1.632l1.312-.56c.192.469.469.837.832 1.104.373.256.778.384 1.216.384.469 0 .858-.101 1.168-.304.32-.203.48-.443.48-.72 0-.501-.384-.869-1.152-1.104l-1.344-.336c-1.526-.384-2.288-1.12-2.288-2.208 0-.715.288-1.285.864-1.712.586-.437 1.333-.656 2.24-.656.693 0 1.317.165 1.872.496.565.331.96.773 1.184 1.328l-1.312.544a1.605 1.605 0 0 0-.736-.768 2.19 2.19 0 0 0-1.12-.288c-.384 0-.731.096-1.04.288-.299.192-.449.427-.449.704 0 .448.422.768 1.265.96l1.184.304c1.557.384 2.336 1.168 2.336 2.352Zm8.161 2.176h-1.408v-1.088h-.064c-.224.384-.571.704-1.04.96a2.916 2.916 0 0 1-1.44.384c-.96 0-1.702-.272-2.224-.816-.512-.555-.768-1.339-.768-2.352v-4.928h1.472v4.832c.032 1.28.677 1.92 1.936 1.92.586 0 1.077-.235 1.472-.704.394-.48.592-1.051.592-1.712v-4.336h1.472V322Zm7.714-2.176c0 .683-.299 1.259-.896 1.728-.598.469-1.35.704-2.256.704-.79 0-1.483-.203-2.08-.608a3.437 3.437 0 0 1-1.28-1.632l1.312-.56c.192.469.469.837.832 1.104.373.256.778.384 1.216.384.469 0 .858-.101 1.168-.304.32-.203.48-.443.48-.72 0-.501-.384-.869-1.152-1.104l-1.344-.336c-1.526-.384-2.288-1.12-2.288-2.208 0-.715.288-1.285.864-1.712.586-.437 1.333-.656 2.24-.656.693 0 1.317.165 1.872.496.565.331.96.773 1.184 1.328l-1.312.544a1.605 1.605 0 0 0-.736-.768 2.19 2.19 0 0 0-1.12-.288c-.384 0-.731.096-1.04.288-.299.192-.449.427-.449.704 0 .448.422.768 1.265.96l1.184.304c1.557.384 2.336 1.168 2.336 2.352Z" fill="#000"/><rect x="288" y="344" width="167" height="40" rx="5" fill="#00BAFC"/><path d="M305.438 358.578h3.554c1.62 0 2.794.232 3.524.695.734.459 1.101 1.191 1.101 2.196 0 .682-.161 1.242-.484 1.679a1.906 1.906 0 0 1-1.274.79v.078c.724.161 1.245.463 1.563.906.323.443.484 1.031.484 1.766 0 1.041-.377 1.854-1.133 2.437-.75.583-1.77.875-3.062.875h-4.273v-11.422Zm2.421 4.524h1.407c.656 0 1.13-.102 1.422-.305.296-.203.445-.539.445-1.008 0-.437-.162-.75-.485-.937-.317-.193-.822-.29-1.515-.29h-1.274v2.54Zm0 1.921V368h1.579c.666 0 1.158-.128 1.476-.383.318-.255.477-.646.477-1.172 0-.948-.677-1.422-2.032-1.422h-1.5ZM322.188 370l-.321-1.117h-.125a2.538 2.538 0 0 1-1.086.945c-.468.219-1.002.328-1.601.328-1.026 0-1.8-.273-2.321-.82-.52-.552-.781-1.344-.781-2.375v-5.695h2.383v5.101c0 .63.112 1.104.336 1.422.224.313.581.469 1.07.469.667 0 1.149-.222 1.446-.664.296-.448.445-1.188.445-2.219v-4.109h2.383V370h-1.828Zm3.078-8.734h2.609l1.648 4.914c.141.427.237.932.289 1.515h.047c.058-.536.17-1.041.336-1.515l1.617-4.914h2.555l-3.695 9.851c-.339.912-.823 1.594-1.453 2.047-.625.453-1.357.68-2.196.68-.411 0-.815-.045-1.211-.133v-1.891c.287.068.599.102.938.102.422 0 .789-.13 1.102-.391.317-.255.565-.643.742-1.164l.14-.429-3.468-8.672ZM341.812 370l-.32-1.117h-.125a2.538 2.538 0 0 1-1.086.945c-.469.219-1.002.328-1.601.328-1.026 0-1.8-.273-2.321-.82-.52-.552-.781-1.344-.781-2.375v-5.695h2.383v5.101c0 .63.112 1.104.336 1.422.224.313.581.469 1.07.469.667 0 1.149-.222 1.445-.664.297-.448.446-1.188.446-2.219v-4.109h2.383V370h-1.829Zm9.204-8.898c.323 0 .591.023.804.07l-.179 2.234a2.735 2.735 0 0 0-.703-.078c-.761 0-1.355.195-1.782.586-.422.391-.633.938-.633 1.641V370h-2.382v-8.734h1.804l.352 1.468h.117a3.263 3.263 0 0 1 1.094-1.179 2.708 2.708 0 0 1 1.508-.453Zm6.07 7.156c.417 0 .917-.091 1.5-.274v1.774c-.594.265-1.323.398-2.188.398-.953 0-1.648-.239-2.086-.718-.432-.485-.648-1.209-.648-2.172v-4.211h-1.141v-1.008l1.313-.797.687-1.844h1.524v1.86h2.445v1.789h-2.445v4.211c0 .338.094.588.281.75.193.161.445.242.758.242ZM368.18 370h-2.383v-5.102c0-.63-.107-1.101-.32-1.414-.209-.317-.539-.476-.993-.476-.609 0-1.052.224-1.328.672-.276.448-.414 1.185-.414 2.211V370h-2.383v-8.734h1.821l.32 1.117h.133a2.398 2.398 0 0 1 1.015-.938c.443-.229.951-.343 1.524-.343 1.307 0 2.193.427 2.656 1.281h.211a2.357 2.357 0 0 1 1.031-.945 3.479 3.479 0 0 1 1.547-.336c.99 0 1.737.255 2.242.765.511.505.766 1.318.766 2.438V370h-2.391v-5.102c0-.63-.106-1.101-.32-1.414-.208-.317-.539-.476-.992-.476-.583 0-1.021.208-1.313.625-.286.416-.429 1.078-.429 1.984V370Zm13.445 0-.461-1.188h-.062c-.401.506-.816.857-1.243 1.055-.421.193-.974.289-1.656.289-.838 0-1.5-.239-1.984-.718-.479-.48-.719-1.162-.719-2.047 0-.927.323-1.61.969-2.047.651-.443 1.63-.688 2.937-.735l1.516-.047v-.382c0-.886-.453-1.328-1.36-1.328-.697 0-1.518.21-2.46.632l-.79-1.609c1.006-.526 2.12-.789 3.344-.789 1.172 0 2.071.255 2.696.766.625.51.937 1.286.937 2.328V370h-1.664Zm-.703-4.047-.922.031c-.693.021-1.208.146-1.547.375-.338.23-.508.579-.508 1.047 0 .672.386 1.008 1.157 1.008.552 0 .992-.159 1.32-.476.333-.318.5-.74.5-1.266v-.719Zm13.844-4.851c1.031 0 1.838.403 2.422 1.21.583.803.874 1.904.874 3.305 0 1.443-.302 2.56-.906 3.352-.599.791-1.416 1.187-2.453 1.187-1.026 0-1.831-.372-2.414-1.117h-.164l-.398.961h-1.821v-12.156h2.383v2.828c0 .359-.031.935-.094 1.726h.094c.557-.864 1.383-1.296 2.477-1.296Zm-.766 1.906c-.589 0-1.018.182-1.289.547-.271.359-.412.955-.422 1.789v.258c0 .937.138 1.609.414 2.015.281.406.724.61 1.328.61.49 0 .878-.224 1.164-.672.292-.453.438-1.11.438-1.969s-.146-1.503-.438-1.93c-.291-.432-.69-.648-1.195-.648Zm9.648-.211c-.505 0-.901.161-1.187.484-.287.318-.451.771-.492 1.36h3.343c-.01-.589-.164-1.042-.46-1.36-.297-.323-.698-.484-1.204-.484Zm.336 7.359c-1.406 0-2.505-.388-3.296-1.164-.792-.776-1.188-1.875-1.188-3.297 0-1.463.365-2.593 1.094-3.39.734-.802 1.747-1.203 3.039-1.203 1.234 0 2.195.351 2.883 1.054.687.703 1.031 1.675 1.031 2.914v1.157h-5.633c.026.677.227 1.205.602 1.585.375.381.901.571 1.578.571.526 0 1.023-.055 1.492-.164.469-.11.958-.284 1.469-.524v1.844a5.496 5.496 0 0 1-1.336.461c-.474.104-1.052.156-1.735.156Zm10.375-9.054c.323 0 .592.023.805.07l-.18 2.234a2.73 2.73 0 0 0-.703-.078c-.76 0-1.354.195-1.781.586-.422.391-.633.938-.633 1.641V370h-2.383v-8.734h1.805l.352 1.468h.117a3.263 3.263 0 0 1 1.094-1.179 2.707 2.707 0 0 1 1.507-.453Zm2.289-2.094c0-.776.433-1.164 1.297-1.164.865 0 1.297.388 1.297 1.164 0 .37-.109.659-.328.867-.213.203-.536.305-.969.305-.864 0-1.297-.391-1.297-1.172ZM419.133 370h-2.383v-8.734h2.383V370Zm8.601-2.594c0 .896-.312 1.578-.937 2.047-.62.469-1.55.703-2.789.703-.636 0-1.177-.044-1.625-.133a5.951 5.951 0 0 1-1.258-.375v-1.968c.443.208.94.382 1.492.523.557.141 1.047.211 1.469.211.865 0 1.297-.25 1.297-.75a.612.612 0 0 0-.172-.453c-.115-.12-.313-.253-.594-.399a13.827 13.827 0 0 0-1.125-.523c-.672-.281-1.166-.542-1.484-.781a2.262 2.262 0 0 1-.688-.82c-.14-.313-.211-.696-.211-1.149 0-.776.3-1.375.899-1.797.604-.427 1.458-.64 2.562-.64a7.27 7.27 0 0 1 3.071.687l-.719 1.719a13.115 13.115 0 0 0-1.227-.461c-.38-.12-.768-.18-1.164-.18-.703 0-1.054.19-1.054.571 0 .213.112.398.335.554.23.156.727.388 1.493.696.682.276 1.182.533 1.5.773a2.3 2.3 0 0 1 .703.828c.151.313.226.685.226 1.117Zm9.922 2.594h-2.383v-5.102c0-1.26-.468-1.89-1.406-1.89-.666 0-1.148.226-1.445.68-.297.453-.445 1.187-.445 2.203V370h-2.383v-12.156h2.383v2.476c0 .193-.019.646-.055 1.36l-.055.703h.125c.531-.854 1.375-1.281 2.531-1.281 1.026 0 1.805.276 2.336.828.532.552.797 1.343.797 2.375V370Z" fill="#fff"/><path d="M472.688 358.578h3.226c1.516 0 2.612.227 3.289.68.677.453 1.016 1.169 1.016 2.148 0 .677-.19 1.237-.571 1.68-.375.437-.924.721-1.648.852v.078c1.734.296 2.602 1.208 2.602 2.734 0 1.021-.347 1.818-1.04 2.391-.687.573-1.651.859-2.89.859h-3.984v-11.422Zm1.328 4.891h2.187c.938 0 1.612-.146 2.024-.438.411-.297.617-.794.617-1.492 0-.641-.229-1.101-.688-1.383-.458-.286-1.187-.429-2.187-.429h-1.953v3.742Zm0 1.125v4.273h2.382c.922 0 1.615-.177 2.079-.531.468-.359.703-.919.703-1.68 0-.708-.24-1.229-.719-1.562-.474-.334-1.198-.5-2.172-.5h-2.273ZM488.133 370l-.258-1.219h-.063c-.427.537-.854.901-1.281 1.094-.422.187-.95.281-1.586.281-.849 0-1.515-.218-2-.656-.479-.438-.718-1.06-.718-1.867 0-1.729 1.382-2.636 4.148-2.719l1.453-.047v-.531c0-.672-.146-1.167-.437-1.484-.287-.323-.748-.485-1.383-.485-.714 0-1.521.219-2.422.656l-.398-.992a6.085 6.085 0 0 1 1.382-.539 6.07 6.07 0 0 1 1.516-.195c1.021 0 1.776.226 2.266.68.494.453.742 1.179.742 2.179V370h-.961Zm-2.93-.914c.807 0 1.44-.221 1.899-.664.463-.443.695-1.063.695-1.86v-.773l-1.297.055c-1.031.036-1.776.198-2.234.484-.454.281-.68.721-.68 1.32 0 .469.141.826.422 1.071.286.245.685.367 1.195.367Zm9.336 0c.229 0 .451-.016.664-.047.214-.036.383-.073.508-.109v.992c-.141.068-.349.122-.625.164-.271.047-.516.07-.734.07-1.657 0-2.485-.872-2.485-2.617v-5.094h-1.226v-.625l1.226-.539.547-1.828h.75v1.985h2.484v1.007h-2.484v5.039c0 .516.122.912.367 1.188.245.276.581.414 1.008.414Zm8.156.914-.257-1.219h-.063c-.427.537-.854.901-1.281 1.094-.422.187-.951.281-1.586.281-.849 0-1.516-.218-2-.656-.479-.438-.719-1.06-.719-1.867 0-1.729 1.383-2.636 4.149-2.719l1.453-.047v-.531c0-.672-.146-1.167-.438-1.484-.286-.323-.747-.485-1.383-.485-.713 0-1.521.219-2.422.656l-.398-.992a6.112 6.112 0 0 1 1.383-.539 6.056 6.056 0 0 1 1.515-.195c1.021 0 1.776.226 2.266.68.495.453.742 1.179.742 2.179V370h-.961Zm-2.929-.914c.807 0 1.44-.221 1.898-.664.464-.443.695-1.063.695-1.86v-.773l-1.297.055c-1.031.036-1.776.198-2.234.484-.453.281-.68.721-.68 1.32 0 .469.141.826.422 1.071.287.245.685.367 1.196.367Zm10.429-6.641h-2.179V370h-1.297v-7.555h-1.531v-.586l1.531-.468v-.477c0-2.104.919-3.156 2.758-3.156.453 0 .984.091 1.593.273l-.336 1.039c-.5-.161-.927-.242-1.281-.242-.489 0-.851.164-1.086.492-.234.323-.351.844-.351 1.563v.555h2.179v1.007Zm7.086 5.219c0 .797-.297 1.412-.89 1.844-.594.432-1.427.648-2.5.648-1.136 0-2.021-.179-2.657-.539v-1.203a6.49 6.49 0 0 0 1.321.492c.474.12.929.18 1.367.18.677 0 1.198-.107 1.562-.32.365-.219.547-.55.547-.993 0-.333-.146-.617-.437-.851-.287-.24-.849-.521-1.688-.844-.797-.297-1.364-.555-1.703-.773a2.42 2.42 0 0 1-.75-.758c-.161-.281-.242-.617-.242-1.008 0-.698.284-1.247.851-1.648.568-.407 1.347-.61 2.336-.61.922 0 1.823.188 2.704.563l-.461 1.054c-.86-.354-1.638-.531-2.336-.531-.615 0-1.078.097-1.391.289-.312.193-.469.459-.469.797a.99.99 0 0 0 .172.586c.12.162.31.315.571.461.26.146.76.357 1.5.633 1.015.37 1.7.742 2.054 1.117.36.375.539.846.539 1.414Zm3.414 2.336h-1.297v-8.562h1.297V370Zm-1.406-10.883c0-.297.073-.513.219-.648a.755.755 0 0 1 .547-.211c.208 0 .388.07.539.211.151.14.226.357.226.648 0 .292-.075.511-.226.656a.763.763 0 0 1-.539.211.755.755 0 0 1-.547-.211c-.146-.145-.219-.364-.219-.656ZM524.742 370h-1.297v-12.156h1.297V370Zm17.82 0v-5.57c0-.683-.145-1.193-.437-1.532-.292-.343-.745-.515-1.359-.515-.808 0-1.404.232-1.789.695-.386.464-.579 1.177-.579 2.141V370h-1.296v-5.57c0-.683-.146-1.193-.438-1.532-.292-.343-.747-.515-1.367-.515-.813 0-1.409.245-1.789.734-.375.485-.563 1.281-.563 2.391V370h-1.297v-8.562h1.055l.211 1.171h.063a2.548 2.548 0 0 1 1.031-.976 3.179 3.179 0 0 1 1.5-.352c1.338 0 2.213.485 2.625 1.453h.062a2.729 2.729 0 0 1 1.11-1.062c.484-.261 1.036-.391 1.656-.391.969 0 1.693.25 2.172.75.484.495.726 1.289.726 2.383V370h-1.297Zm9.243 0-.258-1.219h-.063c-.427.537-.854.901-1.281 1.094-.422.187-.95.281-1.586.281-.849 0-1.515-.218-2-.656-.479-.438-.719-1.06-.719-1.867 0-1.729 1.383-2.636 4.149-2.719l1.453-.047v-.531c0-.672-.146-1.167-.438-1.484-.286-.323-.747-.485-1.382-.485-.714 0-1.521.219-2.422.656l-.399-.992a6.112 6.112 0 0 1 1.383-.539 6.064 6.064 0 0 1 1.516-.195c1.021 0 1.776.226 2.265.68.495.453.743 1.179.743 2.179V370h-.961Zm-2.93-.914c.807 0 1.44-.221 1.898-.664.464-.443.696-1.063.696-1.86v-.773l-1.297.055c-1.031.036-1.776.198-2.234.484-.454.281-.68.721-.68 1.32 0 .469.14.826.422 1.071.286.245.685.367 1.195.367Zm7.609-10.508.118.172a19.91 19.91 0 0 1-.586 1.82 26.477 26.477 0 0 1-.797 1.922h-.953c.364-1.484.63-2.789.796-3.914h1.422ZM559.461 370h-1.297v-12.156h1.297V370Zm3.969-8.562v5.554c0 .698.159 1.219.476 1.563.318.343.815.515 1.492.515.896 0 1.55-.244 1.961-.734.417-.49.625-1.289.625-2.398v-4.5h1.297V370h-1.07l-.188-1.148h-.07a2.58 2.58 0 0 1-1.109.968c-.469.224-1.005.336-1.61.336-1.041 0-1.823-.247-2.343-.742-.516-.495-.774-1.286-.774-2.375v-5.601h1.313ZM582.953 370v-5.57c0-.683-.146-1.193-.437-1.532-.292-.343-.745-.515-1.36-.515-.807 0-1.403.232-1.789.695-.385.464-.578 1.177-.578 2.141V370h-1.297v-5.57c0-.683-.146-1.193-.437-1.532-.292-.343-.748-.515-1.367-.515-.813 0-1.409.245-1.79.734-.375.485-.562 1.281-.562 2.391V370h-1.297v-8.562h1.055l.211 1.171h.062a2.56 2.56 0 0 1 1.031-.976 3.179 3.179 0 0 1 1.5-.352c1.339 0 2.214.485 2.625 1.453h.063a2.726 2.726 0 0 1 1.109-1.062c.485-.261 1.037-.391 1.657-.391.968 0 1.692.25 2.171.75.485.495.727 1.289.727 2.383V370h-1.297Zm11.367-4.289c0 1.396-.351 2.487-1.054 3.273-.704.782-1.675 1.172-2.914 1.172-.766 0-1.446-.179-2.04-.539-.593-.359-1.052-.875-1.374-1.547-.323-.672-.485-1.458-.485-2.359 0-1.396.349-2.482 1.047-3.258.698-.781 1.667-1.172 2.906-1.172 1.198 0 2.149.399 2.852 1.196.708.796 1.062 1.875 1.062 3.234Zm-6.523 0c0 1.094.219 1.927.656 2.5.438.573 1.081.859 1.93.859s1.492-.284 1.929-.851c.443-.573.665-1.409.665-2.508 0-1.089-.222-1.914-.665-2.477-.437-.567-1.085-.851-1.945-.851-.849 0-1.489.278-1.922.836-.432.557-.648 1.388-.648 2.492Zm11.57 3.375c.229 0 .451-.016.664-.047.214-.036.383-.073.508-.109v.992c-.141.068-.349.122-.625.164-.271.047-.516.07-.734.07-1.657 0-2.485-.872-2.485-2.617v-5.094h-1.226v-.625l1.226-.539.547-1.828h.75v1.985h2.485v1.007h-2.485v5.039c0 .516.123.912.367 1.188.245.276.581.414 1.008.414ZM471.117 371.602h129.758v.796H471.117v-.796Z" fill="#00BAFC"/></g><defs><clipPath id="b"><path fill="#fff" transform="translate(48 38)" d="M0 0h200v117.051H0z"/></clipPath><filter id="a" x="0" y="0" width="836" height="442" filterUnits="userSpaceOnUse" color-interpolation-filters="sRGB"><feFlood flood-opacity="0" result="BackgroundImageFix"/><feColorMatrix in="SourceAlpha" values="0 0 0 0 0 0 0 0 0 0 0 0 0 0 0 0 0 0 127 0" result="hardAlpha"/><feOffset dy="10"/><feGaussianBlur stdDeviation="8"/><feColorMatrix values="0 0 0 0 0 0 0 0 0 0 0 0 0 0 0 0 0 0 0.12 0"/><feBlend in2="BackgroundImageFix" result="effect1_dropShadow_705_50"/><feBlend in="SourceGraphic" in2="effect1_dropShadow_705_50" result="shape"/></filter></defs></svg>