<svg width="836" height="410" fill="none" xmlns="http://www.w3.org/2000/svg"><g filter="url(#a)"><rect x="16" y="6" width="804" height="378" rx="5" fill="#fff"/><g clip-path="url(#b)"><path opacity=".5" d="M235.91 147.735c-.362-1.492-1.549-2.616-2.423-3.879a10.51 10.51 0 0 1-.645-10.659c.84-1.599 2.158-3.253 1.681-4.999-.319-1.175-1.381-1.979-2.423-2.61a23.716 23.716 0 0 0-13.147-3.381c-5.661.232-11.302 2.492-16.854 1.373-5.406-1.095-9.987-3.806-15.643-4.127-4.225-.24-8.405.029-12.639-.433a187.283 187.283 0 0 0-31.503-.752 187.368 187.368 0 0 0-31.501.752c-4.223.462-8.405.193-12.639.433-5.673.319-10.243 3.034-15.651 4.127-5.554 1.122-11.194-1.141-16.854-1.373a23.716 23.716 0 0 0-13.147 3.381c-1.05.631-2.101 1.435-2.423 2.61-.475 1.744.84 3.398 1.681 4.999a10.505 10.505 0 0 1-.64 10.659c-.875 1.261-2.062 2.387-2.423 3.879-.727 3 2.189 5.644 5.042 6.835 7.785 3.255 17.253 1.681 24.374 6.213 3.192 2.034 5.984 5.299 9.767 5.421 2.557.082 4.883-1.338 7.116-2.588a68.2 68.2 0 0 1 10.445-4.743c3.152-1.122 6.491-2.021 9.817-1.649 5.079.561 27.032 11.168 36.929 4.9 6.778-4.297 12.065-4.333 17.156-4.902 3.326-.372 6.663.527 9.817 1.649a68.229 68.229 0 0 1 10.445 4.743c2.231 1.25 4.559 2.67 7.116 2.588 3.783-.122 6.575-3.387 9.767-5.421 7.116-4.534 16.582-2.958 24.374-6.213 2.838-1.196 5.757-3.831 5.028-6.833Z" fill="url(#c)"/><path d="M234.88 147.674c-.357-1.471-1.532-2.589-2.395-3.837a10.4 10.4 0 0 1-.631-10.542c.841-1.582 2.135-3.216 1.665-4.942-.318-1.162-1.366-1.958-2.396-2.58a23.452 23.452 0 0 0-13.002-3.345c-5.598.227-11.176 2.465-16.669 1.355-5.349-1.08-9.875-3.765-15.479-4.082-4.18-.236-8.321.029-12.498-.421a185.287 185.287 0 0 0-31.157-.743 185.275 185.275 0 0 0-31.156.743c-4.177.459-8.319.192-12.498.421-5.602.315-10.13 3-15.48 4.082-5.49 1.11-11.07-1.128-16.668-1.355a23.453 23.453 0 0 0-13.003 3.345c-1.03.631-2.078 1.418-2.395 2.58-.47 1.726.84 3.362 1.664 4.942a10.4 10.4 0 0 1-.63 10.542c-.866 1.248-2.038 2.36-2.395 3.837-.738 2.967 2.147 5.581 4.965 6.749 7.7 3.217 17.063 1.66 24.1 6.144 3.152 2.011 5.92 5.242 9.666 5.362 2.521.082 4.833-1.324 7.039-2.561a67.411 67.411 0 0 1 10.331-4.692c3.121-1.112 6.42-2.001 9.71-1.633 5.043.563 26.748 11.046 36.527 4.848 6.705-4.249 11.933-4.285 16.967-4.848 3.291-.368 6.592.521 9.71 1.633a67.421 67.421 0 0 1 10.332 4.692c2.208 1.235 4.509 2.641 7.039 2.561 3.74-.12 6.503-3.349 9.665-5.362 7.039-4.484 16.402-2.927 24.101-6.144 2.807-1.168 5.692-3.782 4.971-6.749Z" fill="#00BAFC"/><path opacity=".6" d="M55.342 84.062c.6-.21 1.24-.41 1.867-.3 1.051.183 1.789 1.179 2.102 2.202.313 1.023.302 2.101.502 3.152.2 1.05.676 2.137 1.618 2.639.941.502 2.053.305 3.097.183 1.37-.158 2.752-.171 4.125-.038 1.151.111 2.504.5 2.843 1.607.277.904-.274 1.826-.63 2.698-.686 1.63-.74 3.557.043 5.142.784 1.584 2.373 2.765 3.036 4.437.193.419.249.887.16 1.339-.098.316-.26.609-.475.861-.52.671-1.143 1.261-1.618 1.967-.99 1.471-1.26 3.299-1.374 5.066a36.926 36.926 0 0 0 .03 5.217c-1.29-.42-2.715-.046-4.045-.321-2.83-.584-4.598-3.934-7.48-4.137-1.364-.097-2.83.546-4.047-.078a3.056 3.056 0 0 1-1.295-1.471 5.22 5.22 0 0 1-.332-3.509c.21-.811.63-1.605.549-2.439-.07-.715-.498-1.345-.99-1.868-1.401-1.488-3.435-2.398-4.442-4.178a4.757 4.757 0 0 1 .566-5.356c.359-.35.699-.72 1.018-1.107.484-.68.63-1.54.696-2.374.139-1.998-.21-4.114.443-6.056.587-1.756 2.377-2.69 4.033-3.278Z" fill="#00BAFC"/><path opacity=".6" d="M55.371 84.121s5.738 31.869 13.19 35.67" stroke="#535461" stroke-miterlimit="10"/><path opacity=".6" d="M71.336 92.942s-6.146.84-12.286 7.155M60.13 103.799s-4.73-4.623-12.12-3.839M74.042 105.81s-8.632.733-11.827 4.047M63.507 112.943s-4.833-.84-9.294 2.007" stroke="#535461" stroke-miterlimit="10"/><path opacity=".6" d="M232.995 59.029c-.964-.343-1.987-.656-2.994-.481-1.681.294-2.866 1.89-3.362 3.527-.496 1.637-.485 3.383-.804 5.064-.32 1.681-1.085 3.423-2.593 4.23-1.509.807-3.291.488-4.965.294a31.36 31.36 0 0 0-6.607-.07c-1.847.18-4.013.804-4.555 2.577-.443 1.45.437 2.925 1.025 4.322 1.099 2.612 1.188 5.703-.071 8.243-1.28 2.585-3.803 4.434-4.866 7.113-.269.68-.44 1.435-.257 2.143.158.508.417.978.763 1.383.84 1.075 1.832 2.023 2.593 3.151 1.586 2.354 2.017 5.287 2.202 8.119a59.216 59.216 0 0 1-.046 8.361c2.067-.681 4.353-.074 6.484-.513 4.536-.935 7.369-6.303 11.989-6.631 2.186-.154 4.537.874 6.487-.126.95-.488 1.624-1.398 2.076-2.366a8.365 8.365 0 0 0 .502-5.61c-.343-1.301-1.009-2.572-.878-3.91.111-1.146.796-2.157 1.586-2.993 2.246-2.385 5.507-3.843 7.121-6.694 1.513-2.673 1.13-6.289-.906-8.586-.533-.603-1.168-1.12-1.634-1.775-.776-1.09-1.024-2.47-1.116-3.805-.221-3.205.323-6.594-.712-9.706-.946-2.832-3.814-4.33-6.462-5.261Z" fill="#00BAFC"/><path opacity=".6" d="M232.941 59.113s-9.197 51.082-21.142 57.173" stroke="#535461" stroke-miterlimit="10"/><path opacity=".6" d="M207.35 73.252s9.851 1.353 19.693 11.47M225.311 90.654s7.584-7.415 19.426-6.155M203.024 93.877s13.834 1.175 18.957 6.489M219.901 105.312s7.751-1.358 14.897 3.215" stroke="#535461" stroke-miterlimit="10"/><path d="M63.74 38v104.051h152.742V38H63.74Z" fill="url(#d)"/><path d="M214.864 42.721H66.005v97.448h148.859V42.721Z" fill="#fff"/><path d="M214.864 38.086H66.005v7.17h148.859v-7.17Z" fill="#EEE"/><path d="M71.67 43.3a1.738 1.738 0 1 0 0-3.476 1.738 1.738 0 0 0 0 3.475Z" fill="#FF5252"/><path d="M76.45 43.3a1.738 1.738 0 1 0 0-3.476 1.738 1.738 0 0 0 0 3.475Z" fill="#FF0"/><path d="M81.23 43.3a1.738 1.738 0 1 0 0-3.476 1.738 1.738 0 0 0 0 3.475Z" fill="#69F0AE"/><path opacity=".5" d="M127.181 56.738H71.71v2.312h55.471v-2.312ZM127.181 61.361H71.71v2.311h55.471v-2.31ZM127.181 65.984H71.71v2.311h55.471v-2.311ZM127.181 70.606h-36.35v2.312h36.35v-2.312ZM100.916 75.229H71.71v2.311h29.206V75.23ZM109.952 79.852H87.469v2.31h22.483v-2.31ZM199.883 72.918h-65.347v37.611h65.347V72.918Z" fill="#00BAFC"/><path d="M207.657 76.49H142.31V114.1h65.347V76.49Z" fill="#EEE"/><path opacity=".5" d="M246.945 111.189a.985.985 0 0 0 .21-.607v-.017c0-.005.013-.044.019-.065v-.028a.62.62 0 0 0 0-.061v-.025a.322.322 0 0 0 0-.076c-.124-.84-5.118-6.316-6.366-12.995a11.842 11.842 0 0 0-.616-2.129 2.949 2.949 0 0 0-.067-1.03c-.21-.855-.631-1.723-.42-2.576.029-.111.068-.22.115-.325.262-.385.503-.784.721-1.196.081-.134.151-.275.21-.42.767-2.021-1.608-4.108-1.17-6.218.189-.914.897-1.712.878-2.643-.023-1.065-1.002-1.89-2.019-2.286-1.017-.395-2.137-.508-3.135-.95-2.188-.968-3.385-3.307-5.382-4.608-2.536-1.649-5.845-1.355-8.885-.928a.617.617 0 0 0-.467.344h-.029a2.792 2.792 0 0 1-.08.198c-.42.716-1.129 1.26-1.828 1.763-.853.6-1.767 1.193-2.288 2.084a4.49 4.49 0 0 0-.2.38c-1.135 2.024.229 2.898 1.891 3.383-.05.29-.075.583-.076.876 0 2.942 2.461 5.344 5.493 5.344.239 0 .479-.016.716-.046l.177.115h.04c.563.406 1.05.914 1.261 1.52l-1.761 1.344s.071.185.176.48l-6.921 3.189c-2.622.122-6.867-8.138-6.867-8.138s-.63-4.736-2.872-5.587c-.677-.256-.946.28-.992 1.153-1.002 1.051.681 6.951.681 6.951l5.368 9.474c.501.971.631 1.578 2.997 1.944 1.948.298 8.016-1.858 10.127-2.64l.099.841a4.927 4.927 0 0 0-.319 2.011c0 1.549.691 3.801 4.066 5.596 0 0 3.483 4.503 3.097 8.753 0 0 .168.177.437.408-.038 1.198-.21 2.675-.813 3.25a.32.32 0 0 0-.095.299.304.304 0 0 0 .147.325l-4.398 7.701c-.163.21-.329.421-.5.631a22.563 22.563 0 0 1-2.708 2.889c-.733.653-1.496 1.368-1.647 1.635-.234.42-.82 1.775-.572 2.895.321 1.358.453 2.754.391 4.148l-.57 9.962a26.122 26.122 0 0 1-.787 3.288h-.087s-2.122 2.551-5.492 3.152-3.247 2.311-2.248 2.551c.998.239 13.109-.244 13.109-.244s.458-.893.332-1.708c3.866-.372 9.222-1.003 9.222-1.003s.733-1.763-.332-2.532a2.491 2.491 0 0 1-.853-1.212 43.666 43.666 0 0 1-.2-.897c-.016-.158-.016-.255-.016-.255h-.036c-.187-.939-.336-1.945-.25-2.473.313-1.397 1.124-9.474-.874-11.781-.908-1.051-.784-2.244-.381-3.24 2.398-1.57 5.751-4.946 7.691-6.989.109.091.21.181.304.271l.063.061s6.6-3.267 6.628-9.035c.01-1.48-.35-2.94-1.047-4.246Zm-21.14 40.687a3.403 3.403 0 0 1 .023-.63l-.21-.023c.122-.916.42-1.942 1.089-2.65a22.51 22.51 0 0 0 2.403-6.656l1.213 4.586s.122.95.155 1.955h-.021s-1.691 2.414-4.652 3.418Z" fill="url(#e)"/><path d="M231.285 92.467s-2.965 1.068-4.623 2.847c0 0-8.066 3.203-10.321 2.847-2.254-.355-2.372-.95-2.847-1.89l-5.101-9.246s-2.135-7.711 0-6.881c2.134.83 2.731 5.463 2.731 5.463s4.034 8.066 6.524 7.949l6.756-3.22s1.542-2.254 2.254-2.134c.712.12 4.627 4.265 4.627 4.265Z" fill="#FDB797"/><path opacity=".05" d="M231.285 92.467s-2.965 1.068-4.623 2.847c0 0-8.066 3.203-10.321 2.847-2.254-.355-2.372-.95-2.847-1.89l-5.101-9.246s-2.135-7.711 0-6.881c2.134.83 2.731 5.463 2.731 5.463s4.034 8.066 6.524 7.949l6.756-3.22s1.542-2.254 2.254-2.134c.712.12 4.627 4.265 4.627 4.265Z" fill="#000"/><path d="m226.414 88.094-2.366 1.858s1.183 3.095.887 4.18c-.296 1.084 4.732-1.703 4.732-1.703l-2.07-4.643-1.183.308Z" fill="#F9CE43"/><path opacity=".05" d="m226.414 88.094-2.366 1.858s1.183 3.095.887 4.18c-.296 1.084 4.732-1.703 4.732-1.703l-2.07-4.643-1.183.308Z" fill="#000"/><path d="M222.33 86.027s5.278 1.72 2.847 4.745l7.592-3.678s-3.203.238-5.22-4.622l-5.219 3.555ZM232.294 116.99l-6.525 11.744 4.392 17.074s.475 3.797-.238 4.152h4.982s-.96-3.362-.712-4.507c.296-1.364 1.067-9.245-.84-11.506-1.908-2.261.949-5.22.949-5.22l5.695-9.016-7.703-2.721Z" fill="#FDB797"/><path opacity=".05" d="m232.294 116.99-6.525 11.744 4.392 17.074s.475 3.797-.238 4.152h4.982s-.888-3.381-.712-4.507c.177-1.126 1.067-9.245-.84-11.506-1.908-2.261.949-5.22.949-5.22l5.695-9.016-7.703-2.721Z" fill="#000"/><path d="M230.287 147.724s-1.807 2.663-4.959 3.507c-3.152.845-2.895 2.492-1.931 2.652.965.16 12.397-1.225 12.397-1.225s.696-1.721-.315-2.473c-1.011-.752-1.017-2.311-1.017-2.311l-4.175-.15Z" fill="#0D134D"/><path opacity=".1" d="M232.651 112.244s.281 3.857-.746 4.87a.302.302 0 0 0-.08.122.294.294 0 0 0-.016.144.307.307 0 0 0 .159.234l3.055 1.629 2.732-5.22-5.104-1.779Z" fill="#000"/><path d="M232.651 112.126s.281 3.858-.746 4.87a.309.309 0 0 0-.096.267.31.31 0 0 0 .159.234l3.055 1.628 2.732-5.219-5.104-1.78Z" fill="#E23553"/><path opacity=".1" d="M232.651 112.336s.281 3.858-.746 4.871a.299.299 0 0 0-.08.121.298.298 0 0 0-.016.145.305.305 0 0 0 .159.234l3.055 1.628 2.732-5.219-5.104-1.78Z" fill="#000"/><path d="M232.768 119.718s-1.762 1.176-5.463 6.019a21.648 21.648 0 0 1-2.574 2.822c-.695.631-1.42 1.337-1.565 1.597-.223.402-.78 1.736-.542 2.828a15.21 15.21 0 0 1 .372 4.052l-.54 9.73s-.713 4.39-1.66 4.864l4.864.841s-.355-3.085 1.067-4.623c0 0 3.322-5.694 2.493-12.1 0 0-.356-2.848 2.847-4.39 3.202-1.542 9.728-9.016 9.728-9.016l-9.027-2.624Z" fill="#FDB797"/><path d="M221.617 149.968s-2.017 2.492-5.219 3.085c-3.202.592-3.084 2.255-2.135 2.492.95.237 12.456-.237 12.456-.237s.841-1.66-.117-2.493c-.959-.832-.713-2.372-.713-2.372l-4.272-.475Z" fill="#0D134D"/><path opacity=".1" d="M235.735 113.431s-1.447 4.862-3.282 6.278a.238.238 0 0 0-.041.338.247.247 0 0 0 .102.072c1.517.552 6.392 2.414 8.086 4.108l.058.058s10.143-5.16 4.686-13.939l-9.609 3.085Z" fill="#000"/><path d="M235.735 113.313s-1.447 4.862-3.282 6.278a.238.238 0 0 0-.041.338.23.23 0 0 0 .102.072c1.517.553 6.392 2.414 8.086 4.108l.058.059s10.143-5.161 4.686-13.939l-9.609 3.084Z" fill="#E23553"/><path opacity=".1" d="M227.406 89.204c-.753.507-1.578.9-2.446 1.168l.816 7.256s-1.906 4.265 3.544 7.245c0 0 3.31 4.397 2.942 8.549 0 0 1.776 1.904 2.963 1.431 1.187-.473.117.238.355.12.237-.118.71.952 4.389.011 3.679-.942 6.304-3.423 6.18-4.255-.124-.832-4.848-6.182-6.018-12.71-1.17-6.529-8.157-11.173-8.157-11.173s-.231.129-.63.299a27.604 27.604 0 0 0-3.938 2.059Z" fill="#000"/><g opacity=".1" fill="#000"><path opacity=".1" d="M232.361 119.753a.232.232 0 0 0 .153.238c1.307.477 5.106 1.924 7.216 3.399-1.826-1.475-5.711-3.006-7.369-3.637ZM245.344 110.229l-.21.071c4.663 8.15-4.118 13.074-4.885 13.483.132.11.252.21.361.326l.059.059s10.132-5.161 4.675-13.939Z"/></g><path d="M240.005 114.736c-3.677.949-4.152-.118-4.389 0-.238.117.84-.593-.356-.118-1.195.475-2.964-1.425-2.964-1.425a7.87 7.87 0 0 0 .025-.609c.013-3.967-3.001-7.932-3.001-7.932-5.463-2.965-3.559-7.237-3.559-7.237l-.223-1.945-.611-5.308a9.263 9.263 0 0 0 2.441-1.172 27.804 27.804 0 0 1 3.932-2.068c.401-.172.63-.3.63-.3s6.999 4.622 8.195 11.15c1.195 6.529 5.931 11.864 6.049 12.694.118.83-2.492 3.32-6.169 4.27Z" fill="#F9CE43"/><path opacity=".1" d="m227.667 82.587-5.22 3.56c.72.25 1.404.59 2.036 1.015 1.778-.25 2.866-1.524 3.6-3.091-.286-.458-.16-.868-.416-1.484Z" fill="#000"/><path d="M223.635 87.096a5.22 5.22 0 1 0 0-10.438 5.22 5.22 0 0 0 0 10.438Z" fill="#FDB797"/><path opacity=".1" d="M240.835 114.143c-3.677.95-4.152-.118-4.39 0-.237.118.841-.592-.355-.118-1.195.475-2.964-1.424-2.964-1.424.016-.21.025-.406.025-.61.015-3.96-2.992-7.932-2.992-7.932-5.463-2.964-3.56-7.236-3.56-7.236l-.22-1.948-.578-5.024c-.279.126-.568.23-.864.31l.601 5.309.225 1.945s-1.891 4.272 3.559 7.237c0 0 3.007 3.971 2.993 7.932 0 .21 0 .406-.026.609 0 0 1.78 1.891 2.965 1.425 1.185-.467.118.237.355.118.238-.12.712.949 4.39 0a12.752 12.752 0 0 0 4.595-2.251 12.93 12.93 0 0 1-3.759 1.658Z" fill="#000"/><path d="M230.989 93.5s-2.965 1.068-4.623 2.848c0 0-8.066 3.202-10.321 2.847-2.255-.355-2.372-.95-2.847-1.891l-5.102-9.245s-2.135-7.712 0-6.882c2.135.83 2.732 5.463 2.732 5.463s4.034 8.067 6.524 7.95l6.757-3.224s1.543-2.254 2.255-2.135c.712.12 4.625 4.27 4.625 4.27Z" fill="#FDB797"/><path opacity=".1" d="M226.984 89.158s-2.461-.225-3.173 2.86c-.712 3.084 5.463 4.981 5.463 4.981l3.322-4.622-5.612-3.22Z" fill="#000"/><path d="M227.104 89.158s-2.461-.225-3.173 2.86c-.713 3.084 5.463 4.981 5.463 4.981l3.322-4.622-5.612-3.22Z" fill="#F9CE43"/><g opacity=".1" fill="#000"><path opacity=".1" d="M226.099 89.706a6.353 6.353 0 0 1-1.164.45l.021.178c.392-.189.774-.398 1.143-.628ZM246.174 110.466c-.118-.841-4.864-6.169-6.049-12.693-1.185-6.525-8.195-11.151-8.195-11.151s-.231.128-.63.3c-1.066.458-2.104.98-3.106 1.565.665-.35 1.345-.673 2.038-.97.402-.173.631-.3.631-.3s6.999 4.622 8.194 11.15c1.196 6.529 5.932 11.864 6.05 12.694.075.523-.935 1.706-2.614 2.748 2.305-1.145 3.771-2.717 3.681-3.343Z"/></g><path opacity=".1" d="M228.514 89.206s3.067 1.52 3.645 4.44" stroke="#000" stroke-miterlimit="10"/><path opacity=".1" d="M221.012 81.583c.49.11 1.036.263 1.278.702.174.32.143.72.313 1.05.437.824 1.719.54 2.521 1.024 1.471.886.511 3.651 1.975 4.542.276.169.601.236.885.39 1.238.676 1.063 2.466.841 3.859-.223 1.393.042 3.299 1.439 3.496.769.108 1.632-.4 2.28.026.338.222.491.63.775.926a1.41 1.41 0 0 0 1.517.313c.475-.197.817-.649 1.311-.794.794-.233 1.681.41 2.446.114.765-.297.939-1.402.742-2.236-.198-.834-.601-1.681-.391-2.522.174-.693.742-1.222.99-1.89.727-1.974-1.528-4.012-1.112-6.073.181-.893.853-1.681.84-2.583-.021-1.05-.951-1.846-1.92-2.233s-2.032-.496-2.98-.927c-2.078-.945-3.214-3.231-5.114-4.5a7.174 7.174 0 0 0-2.813-1.08 9.223 9.223 0 0 0-7.342 1.996c-.187.151-.378.294-.571.433-.811.586-1.681 1.164-2.175 2.034-1.803 3.139 2.339 3.498 4.265 3.933Z" fill="#000"/><path d="M221.159 81.287c.49.109 1.036.262 1.278.701.174.32.143.721.313 1.051.437.824 1.719.54 2.521 1.023 1.471.887.511 3.652 1.976 4.543.275.168.6.236.884.389 1.238.677 1.063 2.467.841 3.86-.223 1.393.042 3.299 1.439 3.496.769.107 1.633-.401 2.28.025.338.223.491.63.775.927a1.41 1.41 0 0 0 1.517.313c.475-.197.817-.65 1.311-.794.795-.233 1.681.41 2.446.113.765-.296.939-1.401.742-2.235-.198-.834-.601-1.681-.391-2.522.174-.693.742-1.223.99-1.89.727-1.974-1.528-4.012-1.112-6.073.181-.893.853-1.681.841-2.583-.021-1.05-.952-1.847-1.921-2.233-.969-.387-2.032-.496-2.979-.927-2.079-.945-3.215-3.231-5.115-4.5a7.036 7.036 0 0 0-2.542-1.03 9.234 9.234 0 0 0-7.619 1.95c-.185.149-.376.292-.565.42-.811.586-1.681 1.164-2.175 2.034-1.803 3.148 2.341 3.509 4.265 3.942ZM178.871 114.101H142.31v-6.89c8.932-4.175 22.676-6.52 36.561 6.89Z" fill="#00BAFC"/><path opacity=".1" d="M207.237 113.116v.985h-45.596v-.21s22.437-21.846 45.596-.775Z" fill="#000"/><path d="M207.657 113.116v.985h-45.596v-.21s22.437-21.846 45.596-.775ZM149.874 86.575a3.362 3.362 0 1 0 0-6.723 3.362 3.362 0 0 0 0 6.723Z" fill="#00BAFC"/><path d="M178.497 80.671c-.385 0-.813 0-1.105.023-.131.007-.26.034-.383.078l-1.977.71c1.597.04 3.263.027 4.9.015l9.178-.072c.937 0 1.92-.016 2.7-.071.523-.038.908-.093 1.391-.135 1.738-.155 4.27-.126 6.532-.117 2.263.008 4.995-.05 5.791-.278h-4.858c-.523 0-1.073 0-1.536-.025-.54-.031-.869-.09-1.344-.132-.786-.067-1.87-.076-2.879-.08-5.537-.023-11.004.107-16.41.084ZM183.935 84.743h-.24a.288.288 0 0 0-.084.017l-.42.153h1.061l1.988-.014c.21 0 .42 0 .584-.015.113 0 .197-.021.3-.03.376-.033.925-.027 1.416-.025.422.015.843-.006 1.261-.06H188.419c-.099 0-.19-.02-.293-.03a8.16 8.16 0 0 0-.63-.017c-1.198 0-2.383.028-3.561.021ZM169.857 90.626h-.24a.288.288 0 0 0-.084.017l-.42.154h1.061l1.988-.015c.21 0 .42 0 .584-.015.113 0 .197-.02.3-.03.376-.033.925-.026 1.416-.024.422.014.843-.007 1.261-.061H174.341c-.099 0-.19-.02-.293-.03a8.16 8.16 0 0 0-.63-.016c-1.198 0-2.383.027-3.561.02Z" fill="#F4F4F4"/><path d="M161.958 112.237h-1.58s-.494-17.28 1.58-22.613h.395s-1.382 19.552-.395 22.613Z" fill="#00BAFC"/><path d="M160.872 88.735s-1.284 3.556-.691 5.136c0 0 .888-3.26 1.924-3.753 1.036-.494 2.123 3.753 2.123 3.753s.592-2.667-.494-4.833c0 0 2.172 1.185 3.259 3.456 0 0 .197-1.47-2.37-4.542 0 0 2.271.592 3.752 1.975 0 0 .494-1.087-2.567-2.864 0 0 .395-1.284 2.765-.692 0 0 0-1.68-3.753-1.382 0 0 0-1.086 2.469-.889 0 0 0-1.382-2.864-.889 0 0 .593-.888.988-1.086a1.987 1.987 0 0 0-1.383.395s.099-1.778-1.383-2.469l-.197 2.469s-1.66-1.956-1.284-1.58c.099.099.395 1.284.296 1.876 0 0-1.681-1.382-3.752.1 0 0 2.567.197 2.962 1.085 0 0-2.172-.395-2.666-.098 0 0 1.681.592 1.58.987 0 0-2.963 0-3.362 1.087 0 0 3.062.394 3.259.69 0 0-3.555 2.569-3.753 3.26 0 0 3.654-2.173 4.247-2.173.592 0-2.667 3.152-2.469 3.95.008-.006 2.683-3.166 3.364-2.969ZM181.447 111.59h1.206s.378-13.202-1.206-17.276h-.303s1.059 14.933.303 17.276Z" fill="#00BAFC"/><path d="M182.277 93.635s.981 2.717.527 3.923c0 0-.679-2.49-1.471-2.866-.792-.376-1.622 2.866-1.622 2.866s-.452-2.036.378-3.696a6.549 6.549 0 0 0-2.489 2.642s-.152-1.133 1.811-3.472c0 0-1.736.452-2.866 1.51 0 0-.379-.83 1.962-2.188 0 0-.302-.981-2.111-.528 0 0 0-1.281 2.866-1.05 0 0 0-.83-1.892-.679 0 0 0-1.05 2.188-.679 0 0-.452-.678-.755-.83.376-.033.751.075 1.051.303 0 0-.076-1.357 1.051-1.891l.151 1.89s1.261-1.493.981-1.205c-.18.455-.258.944-.227 1.433 0 0 1.282-1.05 2.866.076 0 0-1.962.15-2.263.83 0 0 1.66-.303 2.036-.076 0 0-1.281.452-1.206.754 0 0 2.263 0 2.566.83 0 0-2.339.303-2.49.528 0 0 2.717 1.962 2.866 2.49 0 0-2.79-1.66-3.244-1.66-.454 0 2.036 2.414 1.891 3.017.01-.009-2.026-2.419-2.555-2.272ZM195.888 109.01h.748s.234-8.176-.748-10.7h-.187s.654 9.256.187 10.7Z" fill="#00BAFC"/><path d="M196.403 97.89s.607 1.681.328 2.429c0 0-.42-1.542-.912-1.775-.492-.233-1.004 1.775-1.004 1.775s-.28-1.26.233-2.29a4.057 4.057 0 0 0-1.542 1.635s-.093-.702 1.122-2.15a4.74 4.74 0 0 0-1.776.935s-.233-.515 1.215-1.355c0 0-.187-.607-1.309-.328 0 0 0-.794 1.775-.653 0 0 0-.515-1.168-.42 0 0 0-.654 1.355-.42a2.059 2.059 0 0 0-.466-.516.94.94 0 0 1 .653.187s-.046-.84.654-1.168l.092 1.168s.786-.924.607-.748a2.05 2.05 0 0 0-.141.887 1.458 1.458 0 0 1 1.776.046s-1.215.093-1.402.515c0 0 1.028-.187 1.261-.046 0 0-.794.28-.748.466 0 0 1.402 0 1.589.515 0 0-1.448.187-1.543.328 0 0 1.681 1.214 1.776 1.542 0 0-1.729-1.027-2.009-1.027-.279 0 1.261 1.496 1.168 1.868.005.002-1.258-1.494-1.584-1.4Z" fill="#00BAFC"/><path d="m168.573 99.764-.158-.84a.462.462 0 0 0-.143-.33l-.729-.357a.828.828 0 0 1-.13-.21l.013-.02a.449.449 0 0 0 .084-.17.39.39 0 0 0 0-.048h.01a.27.27 0 0 0 .301-.21v-.019a.268.268 0 0 1-.089.146.268.268 0 0 1-.157.064.752.752 0 0 0 .33-.617v-.032a.278.278 0 0 0 .124-.18v-.02a.272.272 0 0 1-.129.169.722.722 0 0 0-.046-.21h.019a.272.272 0 0 0 .271-.271v-.02a.272.272 0 0 1-.269.253h-.033v-.013a.444.444 0 0 0 .311-.36v-.018a.273.273 0 0 1-.055.145.272.272 0 0 0-.421-.24.271.271 0 0 0-.113.16l-.048-.027a.274.274 0 0 1 .09-.138.274.274 0 0 1 .154-.06h-.019a.27.27 0 0 0-.259.183.744.744 0 0 0-.937.269c-.057.042-.13.103-.128.156a.533.533 0 0 0-.065.08 1.03 1.03 0 0 0-.084.56.598.598 0 0 1-.194.515.261.261 0 0 0 .198 0 .764.764 0 0 0 .174-.103.389.389 0 0 0 .124-.12v-.01a.623.623 0 0 0 .112.059c.014.126.019.27-.038.32l.01-.024a.681.681 0 0 1-.472.135.593.593 0 0 0-.49.315l-.229.956v.033c.004.013.01.025.02.034.01.01.022.016.035.019l.071.019a1.47 1.47 0 0 1-.048.485 4.09 4.09 0 0 0-.082.715c.017.119.046.743.061 1.04a2.905 2.905 0 0 0-.061.306l-.338 2.03s-.253 1.624-.24 2.116l-.044.284s-.687.861-.486.983c.202.122.513.175.809-.284a.737.737 0 0 1 .19-.283.279.279 0 0 0 .094-.238l-.021-.21.036.013h.021s.338-1.112.3-1.891c0 0 .631-2.232 1.103-2.583v-.014l.045-.021.1 2.162-.103 2.383-.023.142s-.687.862-.485.984c.202.122.513.174.809-.284a.746.746 0 0 1 .189-.284.275.275 0 0 0 .095-.237l-.032-.315c.118-.401.42-1.557.296-2.227l.21-1.425c.211-.237.183-.84.183-.84.166-.347.21-1.707.21-1.707l.042-.672a.558.558 0 0 1 .095 0h.034v-.013a.053.053 0 0 0 .014-.019h.013v-.016l-.002-.002Zm-.589 1.366a1.406 1.406 0 0 0-.063-.138h-.016v-.017a.049.049 0 0 1 0-.017v-.017a.809.809 0 0 0 .025-.069.267.267 0 0 0 .04-.145c.024.133.029.269.014.403Zm-.063-.575-.042-.45.013-.036.057.572-.028-.086Zm-1.992.061a.147.147 0 0 0-.031.056.144.144 0 0 0-.006.065v.015c0 .046.006.091.019.135l-.066.281v-.538c.044-.056.082-.117.114-.18a.29.29 0 0 1-.03.166Z" fill="url(#f)"/><path d="M166.354 97.144a.993.993 0 0 0-.082.54.569.569 0 0 1-.187.496.247.247 0 0 0 .191 0 .73.73 0 0 0 .168-.098.38.38 0 0 0 .12-.116.437.437 0 0 0 .027-.229c.001-.137.013-.274.036-.41.013-.084.093-.313 0-.357-.092-.044-.233.111-.273.174Z" fill="#72351C"/><path d="m164.965 106.077-.065.42s-.662.84-.467.947c.196.108.494.168.78-.273a.707.707 0 0 1 .181-.273.27.27 0 0 0 .09-.229l-.065-.641-.454.049ZM166.957 106.243l-.065.42s-.662.84-.467.947c.196.108.494.169.78-.273a.707.707 0 0 1 .181-.273.277.277 0 0 0 .073-.103.284.284 0 0 0 .017-.126l-.065-.641-.454.049Z" fill="#333"/><path d="M165.925 101.219s-.311.224-.42 1.006l-.326 1.956s-.275 1.774-.224 2.114l.55.189s.326-1.071.29-1.817c0 0 .662-2.358 1.126-2.522l.099 2.083-.105 2.342.471.095s.477-1.492.325-2.282l.246-1.681s.282-.897-.109-1.681l-1.923.198Z" fill="#4D8AF0"/><g opacity=".1" fill="#000"><path opacity=".1" d="M166.873 102.177v-.036c-.464.166-1.126 2.522-1.126 2.522a6.644 6.644 0 0 1-.284 1.798l.059.021s.326-1.071.29-1.817c-.002.002.603-2.141 1.061-2.488ZM167.867 101.032h-.063c.226.526.263 1.115.105 1.666l-.246 1.681c.145.748-.277 2.124-.322 2.269l.061.013s.477-1.492.326-2.282l.246-1.681s.284-.893-.107-1.666Z"/></g><path d="M165.503 99.687a.069.069 0 0 0 .055.07c.153.038.297.11.42.21.231.18-.246-.362-.246-.362l-.16.036-.065.058-.004-.012Z" fill="#F55F44"/><path opacity=".1" d="M165.503 99.687a.069.069 0 0 0 .055.07c.153.038.297.11.42.21.231.18-.246-.362-.246-.362l-.16.036-.065.058-.004-.012Z" fill="#000"/><path d="M167.776 100.166c.195-.138.42-.227.656-.258a.06.06 0 0 0 .043-.018.059.059 0 0 0 .018-.043s-.551-.217-.717.319Z" fill="#F55F44"/><path opacity=".1" d="M168.493 99.844s-.551-.21-.717.32c0 0 .406-.311.688-.26" fill="#000"/><path d="M167.138 98.029a.717.717 0 1 0-.001-1.433.717.717 0 0 0 .001 1.433Z" fill="#72351C"/><path d="M166.644 97.815s.101.42 0 .506c-.101.086-.305.246-.151.37.153.124.701.334.884.231.183-.103.391-.071.341-.281-.051-.21-.45-.166-.456-1.21l-.618.384Z" fill="#FDB797"/><path opacity=".1" d="M165.629 99.56c.015.229 0 .458-.044.682a3.963 3.963 0 0 0-.08.687c.021.151.065 1.151.065 1.151s-.08.876.347.796c.426-.079-.065-1-.065-1l.021-1.195c.115-.157.188-.342.21-.536.031-.288-.454-.584-.454-.584Z" fill="#000"/><path d="M165.623 99.56c.015.229 0 .458-.044.682a3.868 3.868 0 0 0-.08.687c.021.151.065 1.151.065 1.151s-.08.876.347.796c.426-.079-.066-1-.066-1l.021-1.195c.116-.157.189-.342.211-.536.029-.288-.454-.584-.454-.584Z" fill="#FDB797"/><path opacity=".1" d="m168.352 99.626-.059.935s-.035 1.311-.195 1.643c0 0 .044.92-.385.897-.428-.023.072-1.006.072-1.006s.229-1.024.111-1.347l-.111-1.122h.567Z" fill="#000"/><path d="m168.358 99.626-.058.935s-.036 1.311-.196 1.643c0 0 .044.92-.384.897-.429-.023.071-1.006.071-1.006s.229-1.024.111-1.347l-.111-1.122h.567Z" fill="#FDB797"/><path opacity=".1" d="M166.97 98.72s.346.16.535-.315l.704.345a.433.433 0 0 1 .137.32l.151.81s-.515-.174-.674.305l.044.456a.492.492 0 0 1-.023.34.067.067 0 0 0-.007.031c0 .01.002.02.007.03a.224.224 0 0 1-.21.29c-.19.002-.378.017-.566.044-.151.044-.609-.086-.76 0-.152.086-.471-.065-.471-.065l.086-.37s-.059-.181.015-.246c.073-.065.029-.63-.036-.79 0 0-.26-.246-.42-.21l.21-.935a.568.568 0 0 1 .471-.305.66.66 0 0 0 .456-.13s-.158.345.351.395Z" fill="#000"/><path opacity=".1" d="M167.005 98.704c.095.025.347.052.498-.328l.704.344a.435.435 0 0 1 .137.32l.151.81s-.515-.174-.674.305l.044.456.029.091a.256.256 0 0 1-.036.231.083.083 0 0 0-.019.04.083.083 0 0 0 .005.044.224.224 0 0 1-.21.29c-.19.002-.378.017-.566.044-.151.044-.609-.086-.76 0-.152.086-.471-.065-.471-.065l.086-.37s-.059-.181.015-.246c.073-.065.029-.63-.036-.79 0 0-.26-.246-.42-.21l.21-.935a.568.568 0 0 1 .471-.305.66.66 0 0 0 .456-.13s-.171.311.277.378l.109.026Z" fill="#000"/><path d="M167.005 98.718c.095.025.347.053.498-.328l.704.345a.435.435 0 0 1 .137.32l.151.81s-.515-.174-.674.305l.044.456a.492.492 0 0 1-.023.34.067.067 0 0 0-.007.031c0 .01.002.021.007.03a.226.226 0 0 1-.111.266.214.214 0 0 1-.1.024 4.45 4.45 0 0 0-.565.044c-.151.045-.609-.086-.76 0-.152.087-.471-.065-.471-.065l.086-.369s-.059-.181.015-.246c.073-.065.029-.631-.036-.79 0 0-.26-.246-.42-.21l.21-.935a.568.568 0 0 1 .471-.305.661.661 0 0 0 .456-.13s-.171.31.277.378l.111.03Z" fill="#F55F44"/><path opacity=".1" d="m167.272 97.468-.616.385c.016.069.028.139.036.21.07.028.145.042.221.042a.63.63 0 0 0 .399-.181 2.405 2.405 0 0 1-.04-.456Z" fill="#000"/><path d="M166.9 98.058a.595.595 0 1 0 0-1.189.595.595 0 0 0 0 1.19Z" fill="#FDB797"/><path d="M167.776 97.008a.26.26 0 1 0 0-.522.26.26 0 0 0 0 .522Z" fill="#72351C"/><path d="M167.827 97.022a.26.26 0 0 1-.261-.241v.019a.26.26 0 0 0 .521 0v-.02a.258.258 0 0 1-.26.242Z" fill="#72351C"/><path d="M167.678 97.27a.261.261 0 0 1-.162-.101.262.262 0 0 1-.048-.184V97a.26.26 0 0 0 .404.262c.057-.039.096-.099.108-.167v-.019a.26.26 0 0 1-.302.194ZM167.476 97.9a.26.26 0 0 1-.21-.285v.017a.26.26 0 0 0 .209.304.26.26 0 0 0 .304-.21v-.018a.263.263 0 0 1-.303.193ZM167.827 96.884a.263.263 0 0 1-.179-.07.266.266 0 0 1-.082-.174v.019a.26.26 0 0 0 .521 0v-.019a.26.26 0 0 1-.26.244Z" fill="#72351C"/><path d="M167.463 96.743a.262.262 0 0 1 .246-.258h-.019a.26.26 0 0 0 0 .52h.019a.263.263 0 0 1-.246-.263Z" fill="#72351C"/><path opacity=".1" d="M167.726 99.201a.953.953 0 0 1 0 .391s-.036.34.021.4M165.965 99.281a.92.92 0 0 1 0 .391s-.036.34.021.399M165.95 100.679c.057.02.118.02.175 0a.358.358 0 0 1 .21 0M166.039 100.166c.204.01.409-.023.601-.095 0 0 .739.181.949.051" fill="#000"/><path d="M165.816 103.288h-.174a.14.14 0 1 0 0 .282h.174a.14.14 0 1 0 0-.282Z" fill="#FDB797"/><path d="m165.503 103.364.244-.011.21.034h-.074l-.38-.023ZM167.146 102.185h.244l.21.021h-.074l-.38-.021ZM167.146 102.236h.244l.21.021h-.074l-.38-.021ZM167.146 102.288h.244l.21.021h-.074l-.38-.021ZM167.146 102.339h.244l.21.02h-.074l-.38-.02ZM165.503 103.559h.244l.21.026h-.074l-.38-.026ZM165.503 103.534h.244l.21.025h-.074l-.38-.025ZM165.503 103.509h.244l.21.025h-.074l-.38-.025ZM165.503 103.484h.244l.21.025h-.074l-.38-.025ZM165.503 103.326l.244-.01.21.033h-.074l-.38-.023ZM165.503 103.282l.244-.011.21.034h-.074l-.38-.023Z" fill="#F0E4E4"/><path opacity=".1" d="M167.001 97.084a1.45 1.45 0 0 0 .084.655.786.786 0 0 1-.031.63.21.21 0 0 0 .185-.046.72.72 0 0 0 .134-.157.422.422 0 0 0 .082-.164.656.656 0 0 0-.042-.278 3.534 3.534 0 0 1-.088-.49c-.013-.1 0-.39-.114-.42-.113-.029-.189.185-.21.27Z" fill="#000"/><path d="M167.016 97.077c-.024.222.005.447.084.656a.787.787 0 0 1-.032.63.21.21 0 0 0 .185-.046.73.73 0 0 0 .135-.158.422.422 0 0 0 .082-.164.656.656 0 0 0-.042-.277 3.535 3.535 0 0 1-.089-.49c-.012-.1 0-.39-.113-.42-.114-.03-.189.183-.21.27Z" fill="#72351C"/><path opacity=".1" d="M166.759 97.233c.051.052.061.13.103.189a.376.376 0 0 0 .295.117.168.168 0 0 1 .086.02c.046.029.048.096.077.142a.17.17 0 0 0 .123.054.168.168 0 0 0 .123-.054.407.407 0 0 0 .095-.258c.01-.104.01-.21 0-.313a.481.481 0 0 0-.132-.32.56.56 0 0 0-.234-.1.69.69 0 0 0-.359-.028.662.662 0 0 0-.164.082 9.36 9.36 0 0 0-.21.14c-.078.055-.225.165-.082.224.09.042.204.023.279.105Z" fill="#000"/><path d="M166.774 97.224c.051.053.061.13.103.19a.368.368 0 0 0 .294.117c.03-.002.06.005.086.019.047.03.049.097.078.143a.172.172 0 0 0 .123.053.168.168 0 0 0 .123-.053.407.407 0 0 0 .095-.259c.01-.104.01-.209 0-.313a.478.478 0 0 0-.133-.32.562.562 0 0 0-.233-.1.69.69 0 0 0-.359-.027.63.63 0 0 0-.164.082 6.285 6.285 0 0 0-.21.14c-.078.055-.225.164-.082.223.09.042.21.025.279.105Z" fill="#72351C"/><path d="M167.161 102.185h.244l.21.021h-.07l-.384-.021ZM167.161 102.236h.244l.21.021h-.07l-.384-.021ZM167.161 102.288h.244l.21.021h-.07l-.384-.021ZM167.161 102.339h.244l.21.02h-.07l-.384-.02ZM167.056 105.127h.243l.211.021h-.074l-.38-.021ZM167.056 105.179h.243l.211.021h-.074l-.38-.021ZM167.056 105.23h.243l.211.021h-.074l-.38-.021ZM167.056 105.28h.243l.211.021h-.074l-.38-.021Z" fill="#F0E4E4"/></g><path d="M298.225 55.035c0 1.29-.466 2.305-1.397 3.047-.924.742-2.213 1.113-3.867 1.113-1.523 0-2.871-.286-4.043-.86v-2.812c.964.43 1.777.733 2.441.909.671.175 1.283.263 1.836.263.664 0 1.172-.127 1.524-.38.358-.255.537-.632.537-1.133 0-.28-.078-.528-.235-.742-.156-.222-.387-.433-.693-.635-.299-.202-.915-.524-1.846-.967-.872-.41-1.526-.804-1.962-1.182a4.417 4.417 0 0 1-1.045-1.318c-.261-.501-.391-1.087-.391-1.758 0-1.263.426-2.256 1.279-2.978.86-.723 2.045-1.084 3.555-1.084.742 0 1.449.087 2.119.263.677.176 1.384.423 2.119.742l-.976 2.354c-.762-.313-1.394-.53-1.895-.654a6.025 6.025 0 0 0-1.465-.186c-.573 0-1.012.134-1.318.4-.306.267-.459.616-.459 1.045 0 .267.062.502.186.703.123.196.319.388.585.577.274.182.915.514 1.924.996 1.335.638 2.25 1.28 2.744 1.924.495.638.743 1.422.743 2.353ZM307.512 59l-.576-1.484h-.079c-.501.631-1.018 1.07-1.552 1.318-.528.24-1.218.361-2.071.361-1.048 0-1.875-.3-2.48-.898-.599-.6-.899-1.452-.899-2.559 0-1.159.404-2.011 1.211-2.558.814-.554 2.038-.86 3.672-.918l1.895-.059v-.478c0-1.107-.567-1.66-1.699-1.66-.873 0-1.898.263-3.077.79l-.986-2.011c1.257-.658 2.65-.987 4.18-.987 1.465 0 2.588.32 3.369.958.781.638 1.172 1.608 1.172 2.91V59h-2.08Zm-.879-5.059-1.153.04c-.865.026-1.51.182-1.933.468-.423.287-.635.723-.635 1.309 0 .84.482 1.26 1.445 1.26.691 0 1.241-.199 1.651-.596.416-.397.625-.925.625-1.582v-.899Zm4.472-5.859h3.262l2.061 6.143c.176.533.296 1.165.361 1.894h.059c.071-.67.211-1.302.42-1.894l2.021-6.143h3.193l-4.619 12.315c-.423 1.139-1.028 1.992-1.816 2.558-.781.567-1.696.85-2.744.85a6.917 6.917 0 0 1-1.514-.166v-2.364c.358.085.749.127 1.172.127.527 0 .986-.162 1.377-.488.397-.319.706-.804.928-1.455l.175-.537-4.336-10.84Zm17.549 8.74c.521 0 1.146-.114 1.875-.342v2.217c-.742.332-1.653.498-2.734.498-1.191 0-2.061-.3-2.607-.898-.541-.606-.811-1.51-.811-2.715v-5.264h-1.426v-1.26l1.641-.995.859-2.305h1.904v2.324h3.057v2.236h-3.057v5.264c0 .423.118.736.352.938.241.201.557.302.947.302Zm13.887 0c.521 0 1.146-.114 1.875-.342v2.217c-.742.332-1.654.498-2.734.498-1.192 0-2.061-.3-2.608-.898-.54-.606-.81-1.51-.81-2.715v-5.264h-1.426v-1.26l1.641-.995.859-2.305h1.904v2.324h3.057v2.236h-3.057v5.264c0 .423.117.736.352.938.241.201.556.302.947.302ZM354.367 59l-.4-1.397h-.156c-.319.508-.772.902-1.358 1.182-.586.274-1.253.41-2.002.41-1.282 0-2.249-.342-2.9-1.025-.651-.69-.977-1.68-.977-2.969v-7.119h2.979v6.377c0 .788.14 1.38.42 1.777.28.391.726.586 1.338.586.833 0 1.435-.276 1.806-.83.371-.56.557-1.484.557-2.773v-5.137h2.978V59h-2.285Zm13.008 0h-8.623v-1.758l5.059-6.885h-4.756v-2.275h8.144v1.934l-4.922 6.709h5.098V59Zm2.041-13.74c0-.97.54-1.455 1.621-1.455s1.621.485 1.621 1.455c0 .462-.137.823-.41 1.084-.267.254-.671.38-1.211.38-1.081 0-1.621-.488-1.621-1.464ZM372.521 59h-2.978V48.082h2.978V59Zm10.752-3.242c0 1.12-.39 1.972-1.171 2.558-.775.586-1.937.88-3.487.88-.794 0-1.471-.056-2.031-.167a7.468 7.468 0 0 1-1.572-.469V56.1c.553.26 1.175.478 1.865.654.697.176 1.309.264 1.836.264 1.081 0 1.621-.313 1.621-.938a.767.767 0 0 0-.215-.566c-.143-.15-.39-.316-.742-.498-.352-.19-.82-.407-1.406-.655-.84-.351-1.459-.677-1.856-.976-.39-.3-.677-.642-.859-1.026-.176-.39-.264-.869-.264-1.435 0-.97.375-1.719 1.123-2.246.755-.534 1.823-.801 3.203-.801 1.315 0 2.595.286 3.838.86l-.898 2.148a16.548 16.548 0 0 0-1.533-.576 4.823 4.823 0 0 0-1.455-.225c-.879 0-1.319.238-1.319.713 0 .267.14.498.42.693.287.195.908.485 1.865.87.853.344 1.478.667 1.875.966.397.3.69.645.879 1.035.189.391.283.856.283 1.397ZM395.676 59h-2.979v-6.377c0-1.575-.586-2.363-1.758-2.363-.833 0-1.435.283-1.806.85-.371.566-.557 1.484-.557 2.753V59h-2.978V43.805h2.978V46.9c0 .241-.023.808-.068 1.7l-.069.878h.157c.664-1.067 1.718-1.601 3.164-1.601 1.282 0 2.256.345 2.92 1.035.664.69.996 1.68.996 2.969V59ZM295.584 98h-6.432V86.544h1.472v10.048h4.96V98Zm.833-3.92c0-1.205.378-2.203 1.136-2.992.768-.79 1.733-1.184 2.896-1.184 1.162 0 2.122.395 2.88 1.184.768.79 1.152 1.787 1.152 2.992 0 1.216-.384 2.213-1.152 2.992-.758.79-1.718 1.184-2.88 1.184-1.163 0-2.128-.395-2.896-1.184-.758-.79-1.136-1.787-1.136-2.992Zm1.472 0c0 .843.245 1.525.736 2.048.49.523 1.098.784 1.824.784.725 0 1.333-.261 1.824-.784.49-.523.736-1.205.736-2.048 0-.832-.246-1.51-.736-2.032-.502-.533-1.11-.8-1.824-.8-.715 0-1.323.267-1.824.8-.491.523-.736 1.2-.736 2.032Zm9.245 3.92h-1.472v-7.84h1.408v1.28h.064c.149-.416.453-.768.912-1.056.469-.299.928-.448 1.376-.448.426 0 .789.064 1.088.192l-.448 1.424c-.182-.075-.47-.112-.864-.112-.555 0-1.04.224-1.456.672a2.26 2.26 0 0 0-.608 1.568V98Zm7.376.256c-1.152 0-2.102-.395-2.848-1.184-.747-.79-1.12-1.787-1.12-2.992 0-1.195.362-2.187 1.088-2.976.725-.8 1.653-1.2 2.784-1.2 1.162 0 2.085.379 2.768 1.136.693.747 1.04 1.797 1.04 3.152l-.016.16h-6.16c.021.768.277 1.387.768 1.856.49.47 1.077.704 1.76.704.938 0 1.674-.47 2.208-1.408l1.312.64a3.896 3.896 0 0 1-1.472 1.552c-.619.373-1.323.56-2.112.56Zm-2.352-5.12h4.496a1.914 1.914 0 0 0-.672-1.344c-.395-.363-.928-.544-1.6-.544-.555 0-1.035.17-1.44.512-.395.341-.656.8-.784 1.376ZM321.04 98h-1.472v-7.84h1.408v1.088h.064c.224-.384.565-.704 1.024-.96.469-.256.933-.384 1.392-.384.576 0 1.083.133 1.52.4.437.267.757.635.96 1.104.651-1.003 1.552-1.504 2.704-1.504.907 0 1.605.277 2.096.832.491.555.736 1.344.736 2.368V98H330v-4.672c0-.736-.133-1.264-.4-1.584-.267-.33-.715-.496-1.344-.496-.565 0-1.04.24-1.424.72-.384.48-.576 1.045-.576 1.696V98h-1.472v-4.672c0-.736-.133-1.264-.4-1.584-.267-.33-.715-.496-1.344-.496-.565 0-1.04.24-1.424.72-.384.48-.576 1.045-.576 1.696V98Zm17.573-10.544c0 .288-.102.533-.304.736a1.003 1.003 0 0 1-.736.304c-.288 0-.534-.101-.736-.304a1.001 1.001 0 0 1-.304-.736c0-.288.101-.533.304-.736.202-.203.448-.304.736-.304s.533.101.736.304c.202.203.304.448.304.736Zm-.304 2.704V98h-1.472v-7.84h1.472Zm5.755 6.752c.704 0 1.296-.267 1.776-.8.48-.523.72-1.2.72-2.032 0-.821-.24-1.499-.72-2.032-.48-.533-1.072-.8-1.776-.8-.715 0-1.312.267-1.792.8-.469.533-.704 1.21-.704 2.032 0 .832.235 1.515.704 2.048.48.523 1.077.784 1.792.784Zm.24 1.344a3.43 3.43 0 0 1-1.584-.368 2.772 2.772 0 0 1-1.088-.976h-.064l.064 1.088v3.456h-1.472V90.16h1.408v1.088h.064c.256-.405.619-.73 1.088-.976a3.43 3.43 0 0 1 1.584-.368c1.035 0 1.909.405 2.624 1.216.736.821 1.104 1.808 1.104 2.96 0 1.163-.368 2.15-1.104 2.96-.715.81-1.589 1.216-2.624 1.216Zm10.998-2.432c0 .683-.298 1.259-.896 1.728-.597.47-1.349.704-2.256.704-.789 0-1.482-.203-2.08-.608a3.444 3.444 0 0 1-1.28-1.632l1.312-.56c.192.47.47.837.832 1.104a2.11 2.11 0 0 0 1.216.384c.47 0 .859-.101 1.168-.304.32-.203.48-.443.48-.72 0-.501-.384-.87-1.152-1.104l-1.344-.336c-1.525-.384-2.288-1.12-2.288-2.208 0-.715.288-1.285.864-1.712.587-.437 1.334-.656 2.24-.656.694 0 1.318.165 1.872.496.566.33.96.773 1.184 1.328l-1.312.544a1.599 1.599 0 0 0-.736-.768 2.187 2.187 0 0 0-1.12-.288c-.384 0-.73.096-1.04.288-.298.192-.448.427-.448.704 0 .448.422.768 1.264.96l1.184.304c1.558.384 2.336 1.168 2.336 2.352ZM363.464 98h-1.408v-1.088h-.064c-.224.384-.571.704-1.04.96a2.916 2.916 0 0 1-1.44.384c-.96 0-1.702-.272-2.224-.816-.512-.555-.768-1.339-.768-2.352V90.16h1.472v4.832c.032 1.28.677 1.92 1.936 1.92.586 0 1.077-.235 1.472-.704.394-.48.592-1.05.592-1.712V90.16h1.472V98Zm3.263 0h-1.472v-7.84h1.408v1.088h.064c.224-.384.566-.704 1.024-.96.47-.256.934-.384 1.392-.384.576 0 1.083.133 1.52.4.438.267.758.635.96 1.104.651-1.003 1.552-1.504 2.704-1.504.907 0 1.606.277 2.096.832.491.555.736 1.344.736 2.368V98h-1.472v-4.672c0-.736-.133-1.264-.4-1.584-.266-.33-.714-.496-1.344-.496-.565 0-1.04.24-1.424.72-.384.48-.576 1.045-.576 1.696V98h-1.472v-4.672c0-.736-.133-1.264-.4-1.584-.266-.33-.714-.496-1.344-.496-.565 0-1.04.24-1.424.72-.384.48-.576 1.045-.576 1.696V98Zm19.189-1.088c.725 0 1.317-.261 1.776-.784.48-.523.72-1.205.72-2.048 0-.821-.24-1.499-.72-2.032a2.264 2.264 0 0 0-1.776-.8c-.704 0-1.296.267-1.776.8s-.72 1.21-.72 2.032c0 .832.24 1.51.72 2.032.48.533 1.072.8 1.776.8Zm-.24 1.344c-1.024 0-1.904-.405-2.64-1.216-.725-.821-1.088-1.808-1.088-2.96s.363-2.139 1.088-2.96c.736-.81 1.616-1.216 2.64-1.216.576 0 1.099.123 1.568.368.48.245.848.57 1.104.976h.064l-.064-1.088v-3.616h1.472V98h-1.408v-1.088h-.064c-.256.405-.624.73-1.104.976a3.332 3.332 0 0 1-1.568.368Zm5.413-4.176c0-1.205.378-2.203 1.136-2.992.768-.79 1.733-1.184 2.896-1.184 1.162 0 2.122.395 2.88 1.184.768.79 1.152 1.787 1.152 2.992 0 1.216-.384 2.213-1.152 2.992-.758.79-1.718 1.184-2.88 1.184-1.163 0-2.128-.395-2.896-1.184-.758-.79-1.136-1.787-1.136-2.992Zm1.472 0c0 .843.245 1.525.736 2.048.49.523 1.098.784 1.824.784.725 0 1.333-.261 1.824-.784.49-.523.736-1.205.736-2.048 0-.832-.246-1.51-.736-2.032-.502-.533-1.11-.8-1.824-.8-.715 0-1.323.267-1.824.8-.491.523-.736 1.2-.736 2.032Zm9.323-7.536V98h-1.472V86.544h1.472Zm1.267 7.536c0-1.205.379-2.203 1.136-2.992.768-.79 1.733-1.184 2.896-1.184 1.163 0 2.123.395 2.88 1.184.768.79 1.152 1.787 1.152 2.992 0 1.216-.384 2.213-1.152 2.992-.757.79-1.717 1.184-2.88 1.184-1.163 0-2.128-.395-2.896-1.184-.757-.79-1.136-1.787-1.136-2.992Zm1.472 0c0 .843.245 1.525.736 2.048a2.402 2.402 0 0 0 1.824.784c.725 0 1.333-.261 1.824-.784.491-.523.736-1.205.736-2.048 0-.832-.245-1.51-.736-2.032-.501-.533-1.109-.8-1.824-.8-.715 0-1.323.267-1.824.8-.491.523-.736 1.2-.736 2.032Zm9.245 3.92h-1.472v-7.84h1.408v1.28h.064c.149-.416.453-.768.912-1.056.469-.299.928-.448 1.376-.448.427 0 .789.064 1.088.192l-.448 1.424c-.181-.075-.469-.112-.864-.112-.555 0-1.04.224-1.456.672-.405.448-.608.97-.608 1.568V98Zm13.856-2.176c0 .683-.299 1.259-.896 1.728-.597.47-1.349.704-2.256.704-.789 0-1.483-.203-2.08-.608a3.444 3.444 0 0 1-1.28-1.632l1.312-.56c.192.47.469.837.832 1.104.373.256.779.384 1.216.384.469 0 .859-.101 1.168-.304.32-.203.48-.443.48-.72 0-.501-.384-.87-1.152-1.104l-1.344-.336c-1.525-.384-2.288-1.12-2.288-2.208 0-.715.288-1.285.864-1.712.587-.437 1.333-.656 2.24-.656.693 0 1.317.165 1.872.496.565.33.96.773 1.184 1.328l-1.312.544a1.604 1.604 0 0 0-.736-.768 2.19 2.19 0 0 0-1.12-.288c-.384 0-.731.096-1.04.288-.299.192-.448.427-.448.704 0 .448.421.768 1.264.96l1.184.304c1.557.384 2.336 1.168 2.336 2.352Zm3.107-8.368c0 .288-.101.533-.304.736a1.001 1.001 0 0 1-.736.304c-.288 0-.533-.101-.736-.304a1.005 1.005 0 0 1-.304-.736c0-.288.102-.533.304-.736.203-.203.448-.304.736-.304s.534.101.736.304c.203.203.304.448.304.736Zm-.304 2.704V98h-1.472v-7.84h1.472Zm4.942 7.968c-.64 0-1.174-.197-1.6-.592-.416-.395-.63-.944-.64-1.648v-4.384h-1.376V90.16h1.376v-2.4h1.472v2.4h1.92v1.344h-1.92v3.904c0 .523.101.88.304 1.072.202.181.432.272.688.272.117 0 .229-.01.336-.032a2.25 2.25 0 0 0 .32-.112l.464 1.312c-.384.139-.832.208-1.344.208Zm7.14-2.528c0 .384.16.704.48.96.33.256.714.384 1.152.384.618 0 1.168-.23 1.648-.688.49-.459.736-.997.736-1.616-.459-.363-1.099-.544-1.92-.544-.598 0-1.099.144-1.504.432-.395.288-.592.645-.592 1.072Zm1.904-5.696c1.088 0 1.946.293 2.576.88.629.576.944 1.37.944 2.384V98h-1.408v-1.088h-.064c-.608.896-1.419 1.344-2.432 1.344-.864 0-1.59-.256-2.176-.768a2.462 2.462 0 0 1-.864-1.92c0-.81.304-1.456.912-1.936.618-.48 1.44-.72 2.464-.72.874 0 1.594.16 2.16.48v-.336c0-.512-.203-.944-.608-1.296a2.069 2.069 0 0 0-1.424-.544c-.822 0-1.472.347-1.952 1.04l-1.296-.816c.714-1.024 1.77-1.536 3.168-1.536ZM451.165 98h-1.472v-7.84h1.408v1.088h.064c.224-.384.565-.704 1.024-.96.469-.256.933-.384 1.392-.384.576 0 1.083.133 1.52.4.437.267.757.635.96 1.104.651-1.003 1.552-1.504 2.704-1.504.907 0 1.605.277 2.096.832.491.555.736 1.344.736 2.368V98h-1.472v-4.672c0-.736-.133-1.264-.4-1.584-.267-.33-.715-.496-1.344-.496-.565 0-1.04.24-1.424.72-.384.48-.576 1.045-.576 1.696V98h-1.472v-4.672c0-.736-.133-1.264-.4-1.584-.267-.33-.715-.496-1.344-.496-.565 0-1.04.24-1.424.72-.384.48-.576 1.045-.576 1.696V98Zm15.673.256c-1.152 0-2.101-.395-2.848-1.184-.747-.79-1.12-1.787-1.12-2.992 0-1.195.363-2.187 1.088-2.976.725-.8 1.653-1.2 2.784-1.2 1.163 0 2.085.379 2.768 1.136.693.747 1.04 1.797 1.04 3.152l-.016.16h-6.16c.021.768.277 1.387.768 1.856.491.47 1.077.704 1.76.704.939 0 1.675-.47 2.208-1.408l1.312.64a3.896 3.896 0 0 1-1.472 1.552c-.619.373-1.323.56-2.112.56Zm-2.352-5.12h4.496a1.914 1.914 0 0 0-.672-1.344c-.395-.363-.928-.544-1.6-.544-.555 0-1.035.17-1.44.512-.395.341-.656.8-.784 1.376Zm10.28 4.992c-.64 0-1.174-.197-1.6-.592-.416-.395-.63-.944-.64-1.648v-4.384h-1.376V90.16h1.376v-2.4h1.472v2.4h1.92v1.344h-1.92v3.904c0 .523.101.88.304 1.072.202.181.432.272.688.272.117 0 .229-.01.336-.032a2.25 2.25 0 0 0 .32-.112l.464 1.312c-.384.139-.832.208-1.344.208Zm3.048 1.664-.688-.448.864-1.344a1.004 1.004 0 0 1-.576-.336 1 1 0 0 1-.224-.656c0-.31.107-.565.32-.768.213-.213.469-.32.768-.32.309 0 .565.107.768.32.213.203.32.459.32.768 0 .288-.107.603-.32.944l-1.232 1.84Zm10.322-1.536c-1.162 0-2.128-.395-2.896-1.184-.757-.81-1.136-1.808-1.136-2.992 0-1.205.379-2.203 1.136-2.992.768-.79 1.734-1.184 2.896-1.184.8 0 1.499.203 2.096.608.598.395 1.046.944 1.344 1.648l-1.344.56c-.416-.981-1.146-1.472-2.192-1.472-.672 0-1.253.272-1.744.816-.48.544-.72 1.216-.72 2.016s.24 1.472.72 2.016c.491.544 1.072.816 1.744.816 1.078 0 1.835-.49 2.272-1.472l1.312.56a3.54 3.54 0 0 1-1.36 1.664c-.608.395-1.317.592-2.128.592Zm4.25-4.176c0-1.205.378-2.203 1.136-2.992.768-.79 1.733-1.184 2.896-1.184 1.162 0 2.122.395 2.88 1.184.768.79 1.152 1.787 1.152 2.992 0 1.216-.384 2.213-1.152 2.992-.758.79-1.718 1.184-2.88 1.184-1.163 0-2.128-.395-2.896-1.184-.758-.79-1.136-1.787-1.136-2.992Zm1.472 0c0 .843.245 1.525.736 2.048.49.523 1.098.784 1.824.784.725 0 1.333-.261 1.824-.784.49-.523.736-1.205.736-2.048 0-.832-.246-1.51-.736-2.032-.502-.533-1.11-.8-1.824-.8-.715 0-1.323.267-1.824.8-.491.523-.736 1.2-.736 2.032Zm7.772-3.92h1.408v1.088h.064c.224-.384.566-.704 1.024-.96.47-.256.955-.384 1.456-.384.96 0 1.696.277 2.208.832.523.544.784 1.323.784 2.336V98h-1.472v-4.832c-.032-1.28-.677-1.92-1.936-1.92-.586 0-1.077.24-1.472.72-.394.47-.592 1.035-.592 1.696V98h-1.472v-7.84Zm14.594 5.664c0 .683-.299 1.259-.896 1.728-.597.47-1.349.704-2.256.704-.789 0-1.483-.203-2.08-.608a3.444 3.444 0 0 1-1.28-1.632l1.312-.56c.192.47.469.837.832 1.104.373.256.779.384 1.216.384.469 0 .859-.101 1.168-.304.32-.203.48-.443.48-.72 0-.501-.384-.87-1.152-1.104l-1.344-.336c-1.525-.384-2.288-1.12-2.288-2.208 0-.715.288-1.285.864-1.712.587-.437 1.333-.656 2.24-.656.693 0 1.317.165 1.872.496.565.33.96.773 1.184 1.328l-1.312.544a1.604 1.604 0 0 0-.736-.768 2.19 2.19 0 0 0-1.12-.288c-.384 0-.731.096-1.04.288-.299.192-.448.427-.448.704 0 .448.421.768 1.264.96l1.184.304c1.557.384 2.336 1.168 2.336 2.352Zm4.88 2.432c-1.152 0-2.102-.395-2.848-1.184-.747-.79-1.12-1.787-1.12-2.992 0-1.195.362-2.187 1.088-2.976.725-.8 1.653-1.2 2.784-1.2 1.162 0 2.085.379 2.768 1.136.693.747 1.04 1.797 1.04 3.152l-.016.16h-6.16c.021.768.277 1.387.768 1.856.49.47 1.077.704 1.76.704.938 0 1.674-.47 2.208-1.408l1.312.64a3.896 3.896 0 0 1-1.472 1.552c-.619.373-1.323.56-2.112.56Zm-2.352-5.12h4.496a1.914 1.914 0 0 0-.672-1.344c-.395-.363-.928-.544-1.6-.544-.555 0-1.035.17-1.44.512-.395.341-.656.8-.784 1.376Zm11.072 5.12c-1.163 0-2.128-.395-2.896-1.184-.758-.81-1.136-1.808-1.136-2.992 0-1.205.378-2.203 1.136-2.992.768-.79 1.733-1.184 2.896-1.184.8 0 1.498.203 2.096.608.597.395 1.045.944 1.344 1.648l-1.344.56c-.416-.981-1.147-1.472-2.192-1.472-.672 0-1.254.272-1.744.816-.48.544-.72 1.216-.72 2.016s.24 1.472.72 2.016c.49.544 1.072.816 1.744.816 1.077 0 1.834-.49 2.272-1.472l1.312.56a3.546 3.546 0 0 1-1.36 1.664c-.608.395-1.318.592-2.128.592Zm7.801-.128c-.64 0-1.173-.197-1.6-.592-.416-.395-.629-.944-.64-1.648v-4.384h-1.376V90.16h1.376v-2.4h1.472v2.4h1.92v1.344h-1.92v3.904c0 .523.101.88.304 1.072.203.181.432.272.688.272.117 0 .229-.01.336-.032a2.25 2.25 0 0 0 .32-.112l.464 1.312c-.384.139-.832.208-1.344.208Zm5.994.128c-1.152 0-2.101-.395-2.848-1.184-.747-.79-1.12-1.787-1.12-2.992 0-1.195.363-2.187 1.088-2.976.725-.8 1.653-1.2 2.784-1.2 1.163 0 2.085.379 2.768 1.136.693.747 1.04 1.797 1.04 3.152l-.016.16h-6.16c.021.768.277 1.387.768 1.856.491.47 1.077.704 1.76.704.939 0 1.675-.47 2.208-1.408l1.312.64a3.896 3.896 0 0 1-1.472 1.552c-.619.373-1.323.56-2.112.56Zm-2.352-5.12h4.496a1.914 1.914 0 0 0-.672-1.344c-.395-.363-.928-.544-1.6-.544-.555 0-1.035.17-1.44.512-.395.341-.656.8-.784 1.376Zm10.28 4.992c-.64 0-1.173-.197-1.6-.592-.416-.395-.629-.944-.64-1.648v-4.384h-1.376V90.16h1.376v-2.4h1.472v2.4h1.92v1.344h-1.92v3.904c0 .523.101.88.304 1.072.203.181.432.272.688.272.117 0 .229-.01.336-.032a2.25 2.25 0 0 0 .32-.112l.464 1.312c-.384.139-.832.208-1.344.208Zm9.432-.128h-1.408v-1.088h-.064c-.224.384-.571.704-1.04.96a2.916 2.916 0 0 1-1.44.384c-.96 0-1.701-.272-2.224-.816-.512-.555-.768-1.339-.768-2.352V90.16h1.472v4.832c.032 1.28.677 1.92 1.936 1.92.587 0 1.077-.235 1.472-.704.395-.48.592-1.05.592-1.712V90.16h1.472V98Zm3.264 0h-1.472v-7.84h1.408v1.28h.064c.149-.416.453-.768.912-1.056.469-.299.928-.448 1.376-.448.427 0 .789.064 1.088.192l-.448 1.424c-.181-.075-.469-.112-.864-.112-.555 0-1.04.224-1.456.672-.405.448-.608.97-.608 1.568V98Zm8.928-2.4c0 .384.16.704.48.96a1.83 1.83 0 0 0 1.152.384c.619 0 1.168-.23 1.648-.688.491-.459.736-.997.736-1.616-.459-.363-1.099-.544-1.92-.544-.597 0-1.099.144-1.504.432-.395.288-.592.645-.592 1.072Zm1.904-5.696c1.088 0 1.947.293 2.576.88.629.576.944 1.37.944 2.384V98h-1.408v-1.088h-.064c-.608.896-1.419 1.344-2.432 1.344-.864 0-1.589-.256-2.176-.768a2.462 2.462 0 0 1-.864-1.92c0-.81.304-1.456.912-1.936.619-.48 1.44-.72 2.464-.72.875 0 1.595.16 2.16.48v-.336c0-.512-.203-.944-.608-1.296a2.067 2.067 0 0 0-1.424-.544c-.821 0-1.472.347-1.952 1.04l-1.296-.816c.715-1.024 1.771-1.536 3.168-1.536Zm8.622 7.008c.726 0 1.318-.261 1.776-.784.48-.523.72-1.205.72-2.048 0-.821-.24-1.499-.72-2.032a2.264 2.264 0 0 0-1.776-.8c-.704 0-1.296.267-1.776.8s-.72 1.21-.72 2.032c0 .832.24 1.51.72 2.032.48.533 1.072.8 1.776.8Zm-.24 1.344c-1.024 0-1.904-.405-2.64-1.216-.725-.821-1.088-1.808-1.088-2.96s.363-2.139 1.088-2.96c.736-.81 1.616-1.216 2.64-1.216.576 0 1.099.123 1.568.368.48.245.848.57 1.104.976h.064l-.064-1.088v-3.616h1.472V98h-1.408v-1.088h-.064c-.256.405-.624.73-1.104.976a3.332 3.332 0 0 1-1.568.368Zm7.843-10.8c0 .288-.101.533-.304.736a1.003 1.003 0 0 1-.736.304c-.288 0-.533-.101-.736-.304a1.001 1.001 0 0 1-.304-.736c0-.288.101-.533.304-.736.203-.203.448-.304.736-.304s.533.101.736.304c.203.203.304.448.304.736Zm-.304 2.704V98h-1.472v-7.84h1.472Zm5.756 6.752c.704 0 1.296-.267 1.776-.8.48-.523.72-1.2.72-2.032 0-.821-.24-1.499-.72-2.032-.48-.533-1.072-.8-1.776-.8-.715 0-1.312.267-1.792.8-.47.533-.704 1.21-.704 2.032 0 .832.234 1.515.704 2.048.48.523 1.077.784 1.792.784Zm.24 1.344a3.43 3.43 0 0 1-1.584-.368 2.765 2.765 0 0 1-1.088-.976h-.064L594.32 98v3.456h-1.472V90.16h1.408v1.088h.064c.256-.405.618-.73 1.088-.976a3.43 3.43 0 0 1 1.584-.368c1.034 0 1.909.405 2.624 1.216.736.821 1.104 1.808 1.104 2.96 0 1.163-.368 2.15-1.104 2.96-.715.81-1.59 1.216-2.624 1.216Zm6.902-10.8c0 .288-.102.533-.304.736a1.003 1.003 0 0 1-.736.304c-.288 0-.534-.101-.736-.304a1.001 1.001 0 0 1-.304-.736c0-.288.101-.533.304-.736.202-.203.448-.304.736-.304s.533.101.736.304c.202.203.304.448.304.736Zm-.304 2.704V98h-1.472v-7.84h1.472Zm7.915 5.664c0 .683-.298 1.259-.896 1.728-.597.47-1.349.704-2.256.704-.789 0-1.482-.203-2.08-.608a3.444 3.444 0 0 1-1.28-1.632l1.312-.56c.192.47.47.837.832 1.104a2.11 2.11 0 0 0 1.216.384c.47 0 .859-.101 1.168-.304.32-.203.48-.443.48-.72 0-.501-.384-.87-1.152-1.104l-1.344-.336c-1.525-.384-2.288-1.12-2.288-2.208 0-.715.288-1.285.864-1.712.587-.437 1.334-.656 2.24-.656.694 0 1.318.165 1.872.496.566.33.96.773 1.184 1.328l-1.312.544a1.599 1.599 0 0 0-.736-.768 2.187 2.187 0 0 0-1.12-.288c-.384 0-.73.096-1.04.288-.298.192-.448.427-.448.704 0 .448.422.768 1.264.96l1.184.304c1.558.384 2.336 1.168 2.336 2.352Zm4.944 2.432c-1.163 0-2.128-.395-2.896-1.184-.758-.81-1.136-1.808-1.136-2.992 0-1.205.378-2.203 1.136-2.992.768-.79 1.733-1.184 2.896-1.184.8 0 1.498.203 2.096.608.597.395 1.045.944 1.344 1.648l-1.344.56c-.416-.981-1.147-1.472-2.192-1.472-.672 0-1.254.272-1.744.816-.48.544-.72 1.216-.72 2.016s.24 1.472.72 2.016c.49.544 1.072.816 1.744.816 1.077 0 1.834-.49 2.272-1.472l1.312.56a3.546 3.546 0 0 1-1.36 1.664c-.608.395-1.318.592-2.128.592Zm6.679-10.8c0 .288-.101.533-.304.736a1.003 1.003 0 0 1-.736.304c-.288 0-.533-.101-.736-.304a1.001 1.001 0 0 1-.304-.736c0-.288.101-.533.304-.736.203-.203.448-.304.736-.304s.533.101.736.304c.203.203.304.448.304.736Zm-.304 2.704V98h-1.472v-7.84h1.472Zm1.916 0h1.408v1.088h.064c.224-.384.565-.704 1.024-.96a3 3 0 0 1 1.456-.384c.96 0 1.696.277 2.208.832.522.544.784 1.323.784 2.336V98h-1.472v-4.832c-.032-1.28-.678-1.92-1.936-1.92-.587 0-1.078.24-1.472.72-.395.47-.592 1.035-.592 1.696V98h-1.472v-7.84Zm12.114 6.752c.725 0 1.317-.261 1.776-.784.48-.523.72-1.205.72-2.048 0-.821-.24-1.499-.72-2.032a2.267 2.267 0 0 0-1.776-.8c-.704 0-1.296.267-1.776.8s-.72 1.21-.72 2.032c0 .832.24 1.51.72 2.032.48.533 1.072.8 1.776.8Zm-.048 4.8c-.438 0-.848-.059-1.232-.176a3.923 3.923 0 0 1-1.056-.464 3.452 3.452 0 0 1-.8-.72 3.025 3.025 0 0 1-.512-.928l1.392-.576c.16.459.437.827.832 1.104.394.277.853.416 1.376.416.8 0 1.424-.24 1.872-.72.448-.48.672-1.141.672-1.984v-.752h-.064a2.948 2.948 0 0 1-1.136.992 3.39 3.39 0 0 1-1.536.352c-1.024 0-1.904-.4-2.64-1.2-.726-.821-1.088-1.813-1.088-2.976s.362-2.15 1.088-2.96c.736-.81 1.616-1.216 2.64-1.216a3.27 3.27 0 0 1 1.536.368c.48.235.858.56 1.136.976h.064V90.16h1.408v7.504c0 1.259-.358 2.245-1.072 2.96-.726.725-1.686 1.088-2.88 1.088Zm12.782-3.456c-1.152 0-2.101-.395-2.848-1.184-.747-.79-1.12-1.787-1.12-2.992 0-1.195.363-2.187 1.088-2.976.725-.8 1.653-1.2 2.784-1.2 1.163 0 2.085.379 2.768 1.136.693.747 1.04 1.797 1.04 3.152l-.016.16h-6.16c.021.768.277 1.387.768 1.856.491.47 1.077.704 1.76.704.939 0 1.675-.47 2.208-1.408l1.312.64a3.896 3.896 0 0 1-1.472 1.552c-.619.373-1.323.56-2.112.56Zm-2.352-5.12h4.496a1.914 1.914 0 0 0-.672-1.344c-.395-.363-.928-.544-1.6-.544-.555 0-1.035.17-1.44.512-.395.341-.656.8-.784 1.376Zm8.882-6.592V98h-1.472V86.544h1.472Zm3.698.912c0 .288-.102.533-.304.736a1.003 1.003 0 0 1-.736.304c-.288 0-.534-.101-.736-.304a1.001 1.001 0 0 1-.304-.736c0-.288.101-.533.304-.736.202-.203.448-.304.736-.304s.533.101.736.304c.202.203.304.448.304.736Zm-.304 2.704V98h-1.472v-7.84h1.472Zm4.941 7.968c-.64 0-1.173-.197-1.6-.592-.416-.395-.629-.944-.64-1.648v-4.384h-1.376V90.16h1.376v-2.4h1.472v2.4h1.92v1.344h-1.92v3.904c0 .523.101.88.304 1.072.203.181.432.272.688.272.117 0 .229-.01.336-.032a2.25 2.25 0 0 0 .32-.112l.464 1.312c-.384.139-.832.208-1.344.208Zm4.6-1.12c0 .299-.106.555-.32.768-.202.213-.458.32-.768.32a1.05 1.05 0 0 1-.768-.32 1.049 1.049 0 0 1-.32-.768c0-.31.107-.565.32-.768.214-.213.47-.32.768-.32.31 0 .566.107.768.32.214.203.32.459.32.768Zm12.03-2.064c0 1.003-.368 1.808-1.104 2.416-.746.597-1.653.896-2.72.896-.949 0-1.786-.277-2.512-.832-.725-.555-1.226-1.312-1.504-2.272l1.408-.576c.096.341.23.65.4.928.171.277.368.517.592.72.235.192.491.347.768.464.278.107.571.16.88.16.672 0 1.222-.17 1.648-.512.427-.352.64-.816.64-1.392 0-.48-.176-.89-.528-1.232-.33-.33-.949-.65-1.856-.96-.917-.33-1.488-.555-1.712-.672-1.216-.619-1.824-1.53-1.824-2.736 0-.843.336-1.563 1.008-2.16.683-.597 1.52-.896 2.512-.896.875 0 1.632.224 2.272.672.64.437 1.067.987 1.28 1.648l-1.376.576a1.982 1.982 0 0 0-.768-1.056c-.373-.288-.832-.432-1.376-.432-.576 0-1.061.16-1.456.48-.394.299-.592.688-.592 1.168 0 .395.155.736.464 1.024.342.288 1.083.63 2.224 1.024 1.163.395 1.99.88 2.48 1.456.502.565.752 1.264.752 2.096Zm5.036 3.312c-1.152 0-2.101-.395-2.848-1.184-.747-.79-1.12-1.787-1.12-2.992 0-1.195.363-2.187 1.088-2.976.725-.8 1.653-1.2 2.784-1.2 1.163 0 2.085.379 2.768 1.136.693.747 1.04 1.797 1.04 3.152l-.016.16h-6.16c.021.768.277 1.387.768 1.856.491.47 1.077.704 1.76.704.939 0 1.675-.47 2.208-1.408l1.312.64a3.896 3.896 0 0 1-1.472 1.552c-.619.373-1.323.56-2.112.56Zm-2.352-5.12h4.496a1.914 1.914 0 0 0-.672-1.344c-.395-.363-.928-.544-1.6-.544-.555 0-1.035.17-1.44.512-.395.341-.656.8-.784 1.376Zm11.008 3.776c.726 0 1.318-.261 1.776-.784.48-.523.72-1.205.72-2.048 0-.821-.24-1.499-.72-2.032a2.264 2.264 0 0 0-1.776-.8c-.704 0-1.296.267-1.776.8s-.72 1.21-.72 2.032c0 .832.24 1.51.72 2.032.48.533 1.072.8 1.776.8Zm-.24 1.344c-1.024 0-1.904-.405-2.64-1.216-.725-.821-1.088-1.808-1.088-2.96s.363-2.139 1.088-2.96c.736-.81 1.616-1.216 2.64-1.216.576 0 1.099.123 1.568.368.48.245.848.57 1.104.976h.064l-.064-1.088v-3.616h1.472V98h-1.408v-1.088h-.064c-.256.405-.624.73-1.104.976a3.332 3.332 0 0 1-1.568.368Zm13.295-1.344c.704 0 1.296-.267 1.776-.8.48-.523.72-1.2.72-2.032 0-.821-.24-1.499-.72-2.032-.48-.533-1.072-.8-1.776-.8-.715 0-1.312.267-1.792.8-.47.533-.704 1.21-.704 2.032 0 .832.234 1.515.704 2.048.48.523 1.077.784 1.792.784Zm.24 1.344a3.43 3.43 0 0 1-1.584-.368 2.765 2.765 0 0 1-1.088-.976h-.064l.064 1.088v3.456h-1.472V90.16h1.408v1.088h.064c.256-.405.618-.73 1.088-.976a3.43 3.43 0 0 1 1.584-.368c1.034 0 1.909.405 2.624 1.216.736.821 1.104 1.808 1.104 2.96 0 1.163-.368 2.15-1.104 2.96-.715.81-1.59 1.216-2.624 1.216Zm6.47-.256h-1.472v-7.84h1.408v1.28h.064c.149-.416.453-.768.912-1.056.469-.299.928-.448 1.376-.448.427 0 .789.064 1.088.192l-.448 1.424c-.181-.075-.469-.112-.864-.112-.555 0-1.04.224-1.456.672-.405.448-.608.97-.608 1.568V98Zm7.376.256c-1.152 0-2.101-.395-2.848-1.184-.747-.79-1.12-1.787-1.12-2.992 0-1.195.363-2.187 1.088-2.976.725-.8 1.653-1.2 2.784-1.2 1.163 0 2.085.379 2.768 1.136.693.747 1.04 1.797 1.04 3.152l-.016.16h-6.16c.021.768.277 1.387.768 1.856.491.47 1.077.704 1.76.704.939 0 1.675-.47 2.208-1.408l1.312.64a3.896 3.896 0 0 1-1.472 1.552c-.619.373-1.323.56-2.112.56Zm-2.352-5.12h4.496a1.914 1.914 0 0 0-.672-1.344c-.395-.363-.928-.544-1.6-.544-.555 0-1.035.17-1.44.512-.395.341-.656.8-.784 1.376Zm10.28 4.992c-.64 0-1.174-.197-1.6-.592-.416-.395-.63-.944-.64-1.648v-4.384h-1.376V90.16h1.376v-2.4h1.472v2.4h1.92v1.344h-1.92v3.904c0 .523.101.88.304 1.072.202.181.432.272.688.272.117 0 .229-.01.336-.032a2.25 2.25 0 0 0 .32-.112l.464 1.312c-.384.139-.832.208-1.344.208Zm4.534-10.672c0 .288-.101.533-.304.736a1.003 1.003 0 0 1-.736.304c-.288 0-.533-.101-.736-.304a1.001 1.001 0 0 1-.304-.736c0-.288.101-.533.304-.736.203-.203.448-.304.736-.304s.533.101.736.304c.203.203.304.448.304.736Zm-.304 2.704V98h-1.472v-7.84h1.472ZM742.87 98h-1.408v-1.088h-.064c-.224.384-.571.704-1.04.96a2.916 2.916 0 0 1-1.44.384c-.96 0-1.702-.272-2.224-.816-.512-.555-.768-1.339-.768-2.352V90.16h1.472v4.832c.032 1.28.677 1.92 1.936 1.92.586 0 1.077-.235 1.472-.704.394-.48.592-1.05.592-1.712V90.16h1.472V98Zm3.264 0h-1.472v-7.84h1.408v1.088h.064c.224-.384.565-.704 1.024-.96.469-.256.933-.384 1.392-.384.576 0 1.082.133 1.52.4.437.267.757.635.96 1.104.65-1.003 1.552-1.504 2.704-1.504.906 0 1.605.277 2.096.832.49.555.736 1.344.736 2.368V98h-1.472v-4.672c0-.736-.134-1.264-.4-1.584-.267-.33-.715-.496-1.344-.496-.566 0-1.04.24-1.424.72-.384.48-.576 1.045-.576 1.696V98h-1.472v-4.672c0-.736-.134-1.264-.4-1.584-.267-.33-.715-.496-1.344-.496-.566 0-1.04.24-1.424.72-.384.48-.576 1.045-.576 1.696V98Zm15.22-3.92c0-1.205.379-2.203 1.136-2.992.768-.79 1.734-1.184 2.896-1.184 1.163 0 2.123.395 2.88 1.184.768.79 1.152 1.787 1.152 2.992 0 1.216-.384 2.213-1.152 2.992-.757.79-1.717 1.184-2.88 1.184-1.162 0-2.128-.395-2.896-1.184-.757-.79-1.136-1.787-1.136-2.992Zm1.472 0c0 .843.246 1.525.736 2.048a2.402 2.402 0 0 0 1.824.784c.726 0 1.334-.261 1.824-.784.491-.523.736-1.205.736-2.048 0-.832-.245-1.51-.736-2.032-.501-.533-1.109-.8-1.824-.8-.714 0-1.322.267-1.824.8-.49.523-.736 1.2-.736 2.032Zm9.245 3.92h-1.472v-7.84h1.408v1.28h.064c.149-.416.453-.768.912-1.056.469-.299.928-.448 1.376-.448.427 0 .789.064 1.088.192l-.448 1.424c-.181-.075-.469-.112-.864-.112-.555 0-1.04.224-1.456.672-.405.448-.608.97-.608 1.568V98Zm7.44.256c-1.162 0-2.128-.395-2.896-1.184-.757-.81-1.136-1.808-1.136-2.992 0-1.205.379-2.203 1.136-2.992.768-.79 1.734-1.184 2.896-1.184.8 0 1.499.203 2.096.608.598.395 1.046.944 1.344 1.648l-1.344.56c-.416-.981-1.146-1.472-2.192-1.472-.672 0-1.253.272-1.744.816-.48.544-.72 1.216-.72 2.016s.24 1.472.72 2.016c.491.544 1.072.816 1.744.816 1.078 0 1.835-.49 2.272-1.472l1.312.56a3.54 3.54 0 0 1-1.36 1.664c-.608.395-1.317.592-2.128.592Zm6.68-10.8c0 .288-.102.533-.304.736a1.003 1.003 0 0 1-.736.304c-.288 0-.534-.101-.736-.304a1.001 1.001 0 0 1-.304-.736c0-.288.101-.533.304-.736.202-.203.448-.304.736-.304s.533.101.736.304c.202.203.304.448.304.736Zm-.304 2.704V98h-1.472v-7.84h1.472Zm-496.991 24h1.408v1.088h.064c.224-.384.565-.704 1.024-.96a3.003 3.003 0 0 1 1.456-.384c.96 0 1.696.277 2.208.832.523.544.784 1.323.784 2.336V122h-1.472v-4.832c-.032-1.28-.677-1.92-1.936-1.92-.587 0-1.077.24-1.472.72-.395.469-.592 1.035-.592 1.696V122h-1.472v-7.84Zm12.192 8.096c-1.152 0-2.101-.395-2.848-1.184-.747-.789-1.12-1.787-1.12-2.992 0-1.195.363-2.187 1.088-2.976.725-.8 1.653-1.2 2.784-1.2 1.163 0 2.085.379 2.768 1.136.693.747 1.04 1.797 1.04 3.152l-.016.16h-6.16c.021.768.277 1.387.768 1.856a2.459 2.459 0 0 0 1.76.704c.939 0 1.675-.469 2.208-1.408l1.312.64a3.896 3.896 0 0 1-1.472 1.552c-.619.373-1.323.56-2.112.56Zm-2.352-5.12h4.496a1.914 1.914 0 0 0-.672-1.344c-.395-.363-.928-.544-1.6-.544-.555 0-1.035.171-1.44.512-.395.341-.656.8-.784 1.376Zm11.072 5.12c-1.163 0-2.128-.395-2.896-1.184-.757-.811-1.136-1.808-1.136-2.992 0-1.205.379-2.203 1.136-2.992.768-.789 1.733-1.184 2.896-1.184.8 0 1.499.203 2.096.608.597.395 1.045.944 1.344 1.648l-1.344.56c-.416-.981-1.147-1.472-2.192-1.472-.672 0-1.253.272-1.744.816-.48.544-.72 1.216-.72 2.016s.24 1.472.72 2.016c.491.544 1.072.816 1.744.816 1.077 0 1.835-.491 2.272-1.472l1.312.56a3.539 3.539 0 0 1-1.36 1.664c-.608.395-1.317.592-2.128.592Zm8.291-8.096h1.408v1.088h.064c.224-.384.565-.704 1.024-.96a3.003 3.003 0 0 1 1.456-.384c.96 0 1.696.277 2.208.832.523.544.784 1.323.784 2.336V122h-1.472v-4.832c-.032-1.28-.677-1.92-1.936-1.92-.587 0-1.077.24-1.472.72-.395.469-.592 1.035-.592 1.696V122h-1.472v-7.84Zm12.192 8.096c-1.152 0-2.101-.395-2.848-1.184-.747-.789-1.12-1.787-1.12-2.992 0-1.195.363-2.187 1.088-2.976.725-.8 1.653-1.2 2.784-1.2 1.163 0 2.085.379 2.768 1.136.693.747 1.04 1.797 1.04 3.152l-.016.16h-6.16c.021.768.277 1.387.768 1.856a2.459 2.459 0 0 0 1.76.704c.939 0 1.675-.469 2.208-1.408l1.312.64a3.896 3.896 0 0 1-1.472 1.552c-.619.373-1.323.56-2.112.56Zm-2.352-5.12h4.496a1.914 1.914 0 0 0-.672-1.344c-.395-.363-.928-.544-1.6-.544-.555 0-1.035.171-1.44.512-.395.341-.656.8-.784 1.376Zm14.912 8.32h-1.472V122l.064-1.088h-.064c-.256.405-.624.731-1.104.976a3.336 3.336 0 0 1-1.568.368c-1.024 0-1.904-.405-2.64-1.216-.725-.821-1.088-1.808-1.088-2.96s.363-2.139 1.088-2.96c.736-.811 1.616-1.216 2.64-1.216.576 0 1.099.123 1.568.368.48.245.848.571 1.104.976h.064v-1.088h1.408v11.296Zm-3.904-4.544c.726 0 1.318-.261 1.776-.784.48-.523.72-1.205.72-2.048 0-.821-.24-1.499-.72-2.032a2.265 2.265 0 0 0-1.776-.8c-.704 0-1.296.267-1.776.8s-.72 1.211-.72 2.032c0 .832.24 1.509.72 2.032.48.533 1.072.8 1.776.8ZM351.464 122h-1.408v-1.088h-.064c-.224.384-.571.704-1.04.96a2.916 2.916 0 0 1-1.44.384c-.96 0-1.702-.272-2.224-.816-.512-.555-.768-1.339-.768-2.352v-4.928h1.472v4.832c.032 1.28.677 1.92 1.936 1.92.586 0 1.077-.235 1.472-.704.394-.48.592-1.051.592-1.712v-4.336h1.472V122Zm5.233.256c-1.152 0-2.101-.395-2.848-1.184-.746-.789-1.12-1.787-1.12-2.992 0-1.195.363-2.187 1.088-2.976.726-.8 1.654-1.2 2.784-1.2 1.163 0 2.086.379 2.768 1.136.694.747 1.04 1.797 1.04 3.152l-.016.16h-6.16c.022.768.278 1.387.768 1.856a2.46 2.46 0 0 0 1.76.704c.939 0 1.675-.469 2.208-1.408l1.312.64a3.889 3.889 0 0 1-1.472 1.552c-.618.373-1.322.56-2.112.56Zm-2.352-5.12h4.496a1.906 1.906 0 0 0-.672-1.344c-.394-.363-.928-.544-1.6-.544-.554 0-1.034.171-1.44.512-.394.341-.656.8-.784 1.376Zm18.342-5.68c0 .288-.102.533-.304.736a1.002 1.002 0 0 1-.736.304 1 1 0 0 1-.736-.304 1.002 1.002 0 0 1-.304-.736c0-.288.101-.533.304-.736a1 1 0 0 1 .736-.304c.288 0 .533.101.736.304.202.203.304.448.304.736Zm-5.296 4.048V122h-1.472v-6.496h-1.472v-1.344h1.472v-1.136c0-.384.064-.736.192-1.056.138-.32.325-.592.56-.816.234-.235.512-.416.832-.544.33-.128.688-.192 1.072-.192.533 0 .97.091 1.312.272l-.4 1.296a1.905 1.905 0 0 0-.864-.192 1.16 1.16 0 0 0-.896.384c-.224.245-.336.576-.336.992v.992h4.992V122h-1.472v-6.496h-3.52Zm6.911-1.344h1.408v1.088h.064c.224-.384.566-.704 1.024-.96.47-.256.955-.384 1.456-.384.96 0 1.696.277 2.208.832.523.544.784 1.323.784 2.336V122h-1.472v-4.832c-.032-1.28-.677-1.92-1.936-1.92-.586 0-1.077.24-1.472.72-.394.469-.592 1.035-.592 1.696V122h-1.472v-7.84Zm10.576-2.704c0 .288-.101.533-.304.736a1.002 1.002 0 0 1-.736.304c-.288 0-.533-.101-.736-.304a1.002 1.002 0 0 1-.304-.736c0-.288.101-.533.304-.736.203-.203.448-.304.736-.304s.533.101.736.304c.203.203.304.448.304.736Zm-.304 2.704V122h-1.472v-7.84h1.472Zm6.06 8.096a3.433 3.433 0 0 1-1.584-.368 2.765 2.765 0 0 1-1.088-.976h-.064V122h-1.408v-11.456h1.472v3.616l-.064 1.088h.064a2.765 2.765 0 0 1 1.088-.976 3.433 3.433 0 0 1 1.584-.368c1.034 0 1.909.405 2.624 1.216.736.821 1.104 1.808 1.104 2.96 0 1.163-.368 2.149-1.104 2.96-.715.811-1.59 1.216-2.624 1.216Zm-.24-1.344c.704 0 1.296-.267 1.776-.8.48-.523.72-1.2.72-2.032 0-.821-.24-1.499-.72-2.032-.48-.533-1.072-.8-1.776-.8-.715 0-1.312.267-1.792.8-.47.533-.704 1.211-.704 2.032 0 .832.234 1.515.704 2.048.48.523 1.077.784 1.792.784ZM402.51 122h-1.408v-1.088h-.064c-.224.384-.57.704-1.04.96a2.91 2.91 0 0 1-1.44.384c-.96 0-1.701-.272-2.224-.816-.512-.555-.768-1.339-.768-2.352v-4.928h1.472v4.832c.032 1.28.678 1.92 1.936 1.92.587 0 1.078-.235 1.472-.704.395-.48.592-1.051.592-1.712v-4.336h1.472V122Zm7.714-2.176c0 .683-.299 1.259-.896 1.728-.597.469-1.349.704-2.256.704-.789 0-1.483-.203-2.08-.608a3.444 3.444 0 0 1-1.28-1.632l1.312-.56c.192.469.469.837.832 1.104.373.256.779.384 1.216.384.469 0 .859-.101 1.168-.304.32-.203.48-.443.48-.72 0-.501-.384-.869-1.152-1.104l-1.344-.336c-1.525-.384-2.288-1.12-2.288-2.208 0-.715.288-1.285.864-1.712.587-.437 1.333-.656 2.24-.656.693 0 1.317.165 1.872.496.565.331.96.773 1.184 1.328l-1.312.544a1.601 1.601 0 0 0-.736-.768 2.19 2.19 0 0 0-1.12-.288c-.384 0-.731.096-1.04.288-.299.192-.448.427-.448.704 0 .448.421.768 1.264.96l1.184.304c1.557.384 2.336 1.168 2.336 2.352Zm6.269 2.176h-1.472v-7.84h1.408v1.088h.064c.224-.384.565-.704 1.024-.96.469-.256.933-.384 1.392-.384.576 0 1.083.133 1.52.4.437.267.757.635.96 1.104.651-1.003 1.552-1.504 2.704-1.504.907 0 1.605.277 2.096.832.491.555.736 1.344.736 2.368V122h-1.472v-4.672c0-.736-.133-1.264-.4-1.584-.267-.331-.715-.496-1.344-.496-.565 0-1.04.24-1.424.72-.384.48-.576 1.045-.576 1.696V122h-1.472v-4.672c0-.736-.133-1.264-.4-1.584-.267-.331-.715-.496-1.344-.496-.565 0-1.04.24-1.424.72-.384.48-.576 1.045-.576 1.696V122Zm13.147-2.4c0 .384.16.704.48.96a1.83 1.83 0 0 0 1.152.384c.619 0 1.168-.229 1.648-.688.491-.459.736-.997.736-1.616-.459-.363-1.099-.544-1.92-.544-.597 0-1.099.144-1.504.432-.395.288-.592.645-.592 1.072Zm1.904-5.696c1.088 0 1.947.293 2.576.88.629.576.944 1.371.944 2.384V122h-1.408v-1.088h-.064c-.608.896-1.419 1.344-2.432 1.344-.864 0-1.589-.256-2.176-.768a2.462 2.462 0 0 1-.864-1.92c0-.811.304-1.456.912-1.936.619-.48 1.44-.72 2.464-.72.875 0 1.595.16 2.16.48v-.336c0-.512-.203-.944-.608-1.296a2.066 2.066 0 0 0-1.424-.544c-.821 0-1.472.347-1.952 1.04l-1.296-.816c.715-1.024 1.771-1.536 3.168-1.536Zm13.248 8.224c-.64 0-1.173-.197-1.6-.592-.416-.395-.629-.944-.64-1.648v-4.384h-3.648v3.952c0 .459.091.789.272.992a.897.897 0 0 0 .672.304c.245 0 .48-.048.704-.144l.464 1.312c-.384.139-.832.208-1.344.208-.64 0-1.173-.197-1.6-.592-.416-.395-.629-.944-.64-1.648v-4.384h-1.376v-1.344h1.376v-2.4h1.472v2.4h3.648v-2.4h1.472v2.4h1.92v1.344h-1.92v3.904c0 .523.101.88.304 1.072.203.181.432.272.688.272.117 0 .229-.011.336-.032.117-.032.224-.069.32-.112l.464 1.312c-.384.139-.832.208-1.344.208Zm4.539-10.672c0 .288-.101.533-.304.736a1 1 0 0 1-.736.304c-.288 0-.533-.101-.736-.304a1.006 1.006 0 0 1-.304-.736c0-.288.102-.533.304-.736.203-.203.448-.304.736-.304a1 1 0 0 1 .736.304c.203.203.304.448.304.736Zm-.304 2.704V122h-1.472v-7.84h1.472Zm7.916 5.664c0 .683-.299 1.259-.896 1.728-.597.469-1.349.704-2.256.704-.789 0-1.483-.203-2.08-.608a3.444 3.444 0 0 1-1.28-1.632l1.312-.56c.192.469.469.837.832 1.104.373.256.779.384 1.216.384.469 0 .859-.101 1.168-.304.32-.203.48-.443.48-.72 0-.501-.384-.869-1.152-1.104l-1.344-.336c-1.525-.384-2.288-1.12-2.288-2.208 0-.715.288-1.285.864-1.712.587-.437 1.333-.656 2.24-.656.693 0 1.317.165 1.872.496.565.331.96.773 1.184 1.328l-1.312.544a1.601 1.601 0 0 0-.736-.768 2.19 2.19 0 0 0-1.12-.288c-.384 0-.731.096-1.04.288-.299.192-.448.427-.448.704 0 .448.421.768 1.264.96l1.184.304c1.557.384 2.336 1.168 2.336 2.352Z" fill="#000"/><rect x="288" y="150" width="12" height="12" rx="6" fill="#00BAFC"/><path d="M310.368 150.544V162h-1.472v-11.456h1.472Zm5.236 11.712c-1.152 0-2.102-.395-2.848-1.184-.747-.789-1.12-1.787-1.12-2.992 0-1.195.362-2.187 1.088-2.976.725-.8 1.653-1.2 2.784-1.2 1.162 0 2.085.379 2.768 1.136.693.747 1.04 1.797 1.04 3.152l-.016.16h-6.16c.021.768.277 1.387.768 1.856.49.469 1.077.704 1.76.704.938 0 1.674-.469 2.208-1.408l1.312.64a3.896 3.896 0 0 1-1.472 1.552c-.619.373-1.323.56-2.112.56Zm-2.352-5.12h4.496a1.914 1.914 0 0 0-.672-1.344c-.395-.363-.928-.544-1.6-.544-.555 0-1.035.171-1.44.512-.395.341-.656.8-.784 1.376Zm7.41-2.976h1.408v1.088h.064c.224-.384.565-.704 1.024-.96a3 3 0 0 1 1.456-.384c.96 0 1.696.277 2.208.832.522.544.784 1.323.784 2.336V162h-1.472v-4.832c-.032-1.28-.678-1.92-1.936-1.92-.587 0-1.078.24-1.472.72-.395.469-.592 1.035-.592 1.696V162h-1.472v-7.84Zm12.192 6.752c.725 0 1.317-.261 1.776-.784.48-.523.72-1.205.72-2.048 0-.821-.24-1.499-.72-2.032a2.267 2.267 0 0 0-1.776-.8c-.704 0-1.296.267-1.776.8s-.72 1.211-.72 2.032c0 .832.24 1.509.72 2.032.48.533 1.072.8 1.776.8Zm-.24 1.344c-1.024 0-1.904-.405-2.64-1.216-.726-.821-1.088-1.808-1.088-2.96s.362-2.139 1.088-2.96c.736-.811 1.616-1.216 2.64-1.216.576 0 1.098.123 1.568.368.48.245.848.571 1.104.976h.064l-.064-1.088v-3.616h1.472V162h-1.408v-1.088h-.064c-.256.405-.624.731-1.104.976-.47.245-.992.368-1.568.368Zm7.842-10.8c0 .288-.101.533-.304.736a1 1 0 0 1-.736.304c-.288 0-.533-.101-.736-.304a1.006 1.006 0 0 1-.304-.736c0-.288.102-.533.304-.736.203-.203.448-.304.736-.304a1 1 0 0 1 .736.304c.203.203.304.448.304.736Zm-.304 2.704V162h-1.472v-7.84h1.472Zm1.916 0h1.408v1.088h.064c.224-.384.565-.704 1.024-.96a3.003 3.003 0 0 1 1.456-.384c.96 0 1.696.277 2.208.832.523.544.784 1.323.784 2.336V162h-1.472v-4.832c-.032-1.28-.677-1.92-1.936-1.92-.587 0-1.077.24-1.472.72-.395.469-.592 1.035-.592 1.696V162h-1.472v-7.84Zm12.114 6.752c.725 0 1.317-.261 1.776-.784.48-.523.72-1.205.72-2.048 0-.821-.24-1.499-.72-2.032a2.267 2.267 0 0 0-1.776-.8c-.704 0-1.296.267-1.776.8s-.72 1.211-.72 2.032c0 .832.24 1.509.72 2.032.48.533 1.072.8 1.776.8Zm-.048 4.8c-.438 0-.848-.059-1.232-.176a3.923 3.923 0 0 1-1.056-.464 3.452 3.452 0 0 1-.8-.72 3.028 3.028 0 0 1-.512-.928l1.392-.576c.16.459.437.827.832 1.104.394.277.853.416 1.376.416.8 0 1.424-.24 1.872-.72.448-.48.672-1.141.672-1.984v-.752h-.064a2.945 2.945 0 0 1-1.136.992c-.47.235-.982.352-1.536.352-1.024 0-1.904-.4-2.64-1.2-.726-.821-1.088-1.813-1.088-2.976s.362-2.149 1.088-2.96c.736-.811 1.616-1.216 2.64-1.216.554 0 1.066.123 1.536.368.48.235.858.56 1.136.976h.064v-1.088h1.408v7.504c0 1.259-.358 2.245-1.072 2.96-.726.725-1.686 1.088-2.88 1.088Z" fill="#000"/><rect x="288" y="182" width="12" height="12" rx="6" fill="#00BAFC"/><path d="M312.704 194h-1.472l-3.168-7.84h1.6l2.304 6.08H312l2.336-6.08h1.568l-3.2 7.84Zm6.065-10.544c0 .288-.102.533-.304.736a1.002 1.002 0 0 1-.736.304 1 1 0 0 1-.736-.304 1.002 1.002 0 0 1-.304-.736c0-.288.101-.533.304-.736a1 1 0 0 1 .736-.304c.288 0 .533.101.736.304.202.203.304.448.304.736Zm-.304 2.704V194h-1.472v-7.84h1.472Zm7.867 7.84h-6.336v-1.28l4.464-5.216h-4.336v-1.344h6.144v1.28l-4.464 5.216h4.528V194Zm3.468-10.544c0 .288-.101.533-.304.736a1.002 1.002 0 0 1-.736.304c-.288 0-.533-.101-.736-.304a1.002 1.002 0 0 1-.304-.736c0-.288.101-.533.304-.736.203-.203.448-.304.736-.304s.533.101.736.304c.203.203.304.448.304.736Zm-.304 2.704V194h-1.472v-7.84h1.472Zm4.942 7.968c-.64 0-1.174-.197-1.6-.592-.416-.395-.63-.944-.64-1.648v-4.384h-1.376v-1.344h1.376v-2.4h1.472v2.4h1.92v1.344h-1.92v3.904c0 .523.101.88.304 1.072.202.181.432.272.687.272.118 0 .23-.011.337-.032.117-.032.224-.069.32-.112l.464 1.312c-.384.139-.832.208-1.344.208Zm9.526-.128h-1.776l-2.448-3.696-1.2 1.184V194h-1.472v-11.456h1.472v7.056l3.392-3.44h1.888v.064l-3.056 3.04 3.2 4.672V194Zm1.754-2.4c0 .384.16.704.48.96a1.83 1.83 0 0 0 1.152.384c.619 0 1.168-.229 1.648-.688.491-.459.736-.997.736-1.616-.459-.363-1.099-.544-1.92-.544-.597 0-1.099.144-1.504.432-.395.288-.592.645-.592 1.072Zm1.904-5.696c1.088 0 1.947.293 2.576.88.629.576.944 1.371.944 2.384V194h-1.408v-1.088h-.064c-.608.896-1.419 1.344-2.432 1.344-.864 0-1.589-.256-2.176-.768a2.462 2.462 0 0 1-.864-1.92c0-.811.304-1.456.912-1.936.619-.48 1.44-.72 2.464-.72.875 0 1.595.16 2.16.48v-.336c0-.512-.203-.944-.608-1.296a2.066 2.066 0 0 0-1.424-.544c-.821 0-1.472.347-1.952 1.04l-1.296-.816c.715-1.024 1.771-1.536 3.168-1.536Z" fill="#000"/><rect x="288" y="214" width="12" height="12" rx="6" fill="#00BAFC"/><path d="M315.792 226h-1.776l-2.448-3.696-1.2 1.184V226h-1.472v-11.456h1.472v7.056l3.392-3.44h1.888v.064l-3.056 3.04 3.2 4.672V226Zm.156-3.92c0-1.205.379-2.203 1.136-2.992.768-.789 1.733-1.184 2.896-1.184 1.163 0 2.123.395 2.88 1.184.768.789 1.152 1.787 1.152 2.992 0 1.216-.384 2.213-1.152 2.992-.757.789-1.717 1.184-2.88 1.184-1.163 0-2.128-.395-2.896-1.184-.757-.789-1.136-1.787-1.136-2.992Zm1.472 0c0 .843.245 1.525.736 2.048a2.4 2.4 0 0 0 1.824.784 2.4 2.4 0 0 0 1.824-.784c.491-.523.736-1.205.736-2.048 0-.832-.245-1.509-.736-2.032-.501-.533-1.109-.8-1.824-.8-.715 0-1.323.267-1.824.8-.491.523-.736 1.2-.736 2.032Zm9.245 3.92h-1.472v-7.84h1.408v1.28h.064c.149-.416.453-.768.912-1.056.469-.299.928-.448 1.376-.448.427 0 .789.064 1.088.192l-.448 1.424c-.181-.075-.469-.112-.864-.112-.555 0-1.04.224-1.456.672a2.266 2.266 0 0 0-.608 1.568V226Zm8.18-1.088c.704 0 1.296-.267 1.776-.8.48-.523.72-1.2.72-2.032 0-.821-.24-1.499-.72-2.032-.48-.533-1.072-.8-1.776-.8-.714 0-1.312.267-1.792.8-.469.533-.704 1.211-.704 2.032 0 .832.235 1.515.704 2.048.48.523 1.078.784 1.792.784Zm.24 1.344a3.433 3.433 0 0 1-1.584-.368 2.772 2.772 0 0 1-1.088-.976h-.064l.064 1.088v3.456h-1.472V218.16h1.408v1.088h.064a2.772 2.772 0 0 1 1.088-.976 3.433 3.433 0 0 1 1.584-.368c1.035 0 1.91.405 2.624 1.216.736.821 1.104 1.808 1.104 2.96 0 1.163-.368 2.149-1.104 2.96-.714.811-1.589 1.216-2.624 1.216Zm4.629-4.176c0-1.205.378-2.203 1.136-2.992.768-.789 1.733-1.184 2.896-1.184 1.162 0 2.122.395 2.88 1.184.768.789 1.152 1.787 1.152 2.992 0 1.216-.384 2.213-1.152 2.992-.758.789-1.718 1.184-2.88 1.184-1.163 0-2.128-.395-2.896-1.184-.758-.789-1.136-1.787-1.136-2.992Zm1.472 0c0 .843.245 1.525.736 2.048.49.523 1.098.784 1.824.784a2.4 2.4 0 0 0 1.824-.784c.49-.523.736-1.205.736-2.048 0-.832-.246-1.509-.736-2.032-.502-.533-1.11-.8-1.824-.8-.715 0-1.323.267-1.824.8-.491.523-.736 1.2-.736 2.032Zm9.245 3.92h-1.472v-7.84h1.408v1.28h.064c.149-.416.453-.768.912-1.056.469-.299.928-.448 1.376-.448.426 0 .789.064 1.088.192l-.448 1.424c-.182-.075-.47-.112-.864-.112-.555 0-1.04.224-1.456.672a2.261 2.261 0 0 0-.608 1.568V226Zm5.1-2.4c0 .384.16.704.48.96.33.256.714.384 1.152.384.618 0 1.168-.229 1.648-.688.49-.459.736-.997.736-1.616-.459-.363-1.099-.544-1.92-.544-.598 0-1.099.144-1.504.432-.395.288-.592.645-.592 1.072Zm1.904-5.696c1.088 0 1.946.293 2.576.88.629.576.944 1.371.944 2.384V226h-1.408v-1.088h-.064c-.608.896-1.419 1.344-2.432 1.344-.864 0-1.59-.256-2.176-.768a2.462 2.462 0 0 1-.864-1.92c0-.811.304-1.456.912-1.936.618-.48 1.44-.72 2.464-.72.874 0 1.594.16 2.16.48v-.336c0-.512-.203-.944-.608-1.296a2.067 2.067 0 0 0-1.424-.544c-.822 0-1.472.347-1.953 1.04l-1.295-.816c.714-1.024 1.77-1.536 3.168-1.536Zm8.127 8.224c-.639 0-1.173-.197-1.599-.592-.416-.395-.63-.944-.64-1.648v-4.384h-1.376v-1.344h1.376v-2.4h1.472v2.4h1.92v1.344h-1.92v3.904c0 .523.101.88.304 1.072.202.181.432.272.687.272.118 0 .23-.011.337-.032.117-.032.224-.069.32-.112l.464 1.312c-.384.139-.832.208-1.345.208Zm4.535-10.672c0 .288-.101.533-.304.736a1.002 1.002 0 0 1-.736.304c-.288 0-.533-.101-.736-.304a1.002 1.002 0 0 1-.304-.736c0-.288.101-.533.304-.736.203-.203.448-.304.736-.304s.533.101.736.304c.203.203.304.448.304.736Zm-.304 2.704V226h-1.472v-7.84h1.472Zm5.723 7.84h-1.471l-3.168-7.84h1.6l2.304 6.08h.031l2.337-6.08h1.568l-3.201 7.84Z" fill="#000"/><rect x="288" y="246" width="12" height="12" rx="6" fill="#00BAFC"/><path d="M310.8 247.456c0 .288-.101.533-.304.736a1.002 1.002 0 0 1-.736.304c-.288 0-.533-.101-.736-.304a1.002 1.002 0 0 1-.304-.736c0-.288.101-.533.304-.736.203-.203.448-.304.736-.304s.533.101.736.304c.203.203.304.448.304.736Zm-.304 2.704V258h-1.472v-7.84h1.472Zm1.916 0h1.408v1.088h.064c.224-.384.565-.704 1.024-.96a3 3 0 0 1 1.456-.384c.96 0 1.696.277 2.208.832.522.544.784 1.323.784 2.336V258h-1.472v-4.832c-.032-1.28-.678-1.92-1.936-1.92-.587 0-1.078.24-1.472.72-.395.469-.592 1.035-.592 1.696V258h-1.472v-7.84Zm11.369 7.968c-.64 0-1.173-.197-1.6-.592-.416-.395-.629-.944-.64-1.648v-4.384h-1.376v-1.344h1.376v-2.4h1.472v2.4h1.92v1.344h-1.92v3.904c0 .523.102.88.304 1.072.203.181.432.272.688.272.118 0 .23-.011.336-.032.118-.032.224-.069.32-.112l.464 1.312c-.384.139-.832.208-1.344.208Zm5.994.128c-1.152 0-2.101-.395-2.848-1.184-.746-.789-1.12-1.787-1.12-2.992 0-1.195.363-2.187 1.088-2.976.726-.8 1.654-1.2 2.784-1.2 1.163 0 2.086.379 2.768 1.136.694.747 1.04 1.797 1.04 3.152l-.016.16h-6.16c.022.768.278 1.387.768 1.856a2.46 2.46 0 0 0 1.76.704c.939 0 1.675-.469 2.208-1.408l1.312.64a3.889 3.889 0 0 1-1.472 1.552c-.618.373-1.322.56-2.112.56Zm-2.352-5.12h4.496a1.906 1.906 0 0 0-.672-1.344c-.394-.363-.928-.544-1.6-.544-.554 0-1.034.171-1.44.512-.394.341-.656.8-.784 1.376Zm8.883 4.864h-1.472v-7.84h1.408v1.28h.064c.149-.416.453-.768.912-1.056.469-.299.928-.448 1.376-.448.426 0 .789.064 1.088.192l-.448 1.424c-.182-.075-.47-.112-.864-.112-.555 0-1.04.224-1.456.672a2.261 2.261 0 0 0-.608 1.568V258Zm4.34-7.84h1.408v1.088h.064c.224-.384.565-.704 1.024-.96a3.003 3.003 0 0 1 1.456-.384c.96 0 1.696.277 2.208.832.523.544.784 1.323.784 2.336V258h-1.472v-4.832c-.032-1.28-.677-1.92-1.936-1.92-.587 0-1.077.24-1.472.72-.395.469-.592 1.035-.592 1.696V258h-1.472v-7.84Zm12.192 8.096c-1.152 0-2.101-.395-2.848-1.184-.747-.789-1.12-1.787-1.12-2.992 0-1.195.363-2.187 1.088-2.976.725-.8 1.653-1.2 2.784-1.2 1.163 0 2.085.379 2.768 1.136.693.747 1.04 1.797 1.04 3.152l-.016.16h-6.16c.021.768.277 1.387.768 1.856a2.459 2.459 0 0 0 1.76.704c.939 0 1.675-.469 2.208-1.408l1.312.64a3.896 3.896 0 0 1-1.472 1.552c-.619.373-1.323.56-2.112.56Zm-2.352-5.12h4.496a1.914 1.914 0 0 0-.672-1.344c-.395-.363-.928-.544-1.6-.544-.555 0-1.035.171-1.44.512-.395.341-.656.8-.784 1.376Zm10.28 4.992c-.64 0-1.174-.197-1.6-.592-.416-.395-.63-.944-.64-1.648v-4.384h-1.376v-1.344h1.376v-2.4h1.472v2.4h1.92v1.344h-1.92v3.904c0 .523.101.88.304 1.072.202.181.432.272.688.272.117 0 .229-.011.336-.032.117-.032.224-.069.32-.112l.464 1.312c-.384.139-.832.208-1.344.208Zm9.588-1.216c.725 0 1.317-.261 1.776-.784.48-.523.72-1.205.72-2.048 0-.821-.24-1.499-.72-2.032a2.267 2.267 0 0 0-1.776-.8c-.704 0-1.296.267-1.776.8s-.72 1.211-.72 2.032c0 .832.24 1.509.72 2.032.48.533 1.072.8 1.776.8Zm-.24 1.344c-1.024 0-1.904-.405-2.64-1.216-.726-.821-1.088-1.808-1.088-2.96s.362-2.139 1.088-2.96c.736-.811 1.616-1.216 2.64-1.216.576 0 1.098.123 1.568.368.48.245.848.571 1.104.976h.064l-.064-1.088v-3.616h1.472V258h-1.408v-1.088h-.064c-.256.405-.624.731-1.104.976-.47.245-.992.368-1.568.368Zm5.412-4.176c0-1.205.379-2.203 1.136-2.992.768-.789 1.733-1.184 2.896-1.184 1.163 0 2.123.395 2.88 1.184.768.789 1.152 1.787 1.152 2.992 0 1.216-.384 2.213-1.152 2.992-.757.789-1.717 1.184-2.88 1.184-1.163 0-2.128-.395-2.896-1.184-.757-.789-1.136-1.787-1.136-2.992Zm1.472 0c0 .843.245 1.525.736 2.048a2.4 2.4 0 0 0 1.824.784 2.4 2.4 0 0 0 1.824-.784c.491-.523.736-1.205.736-2.048 0-.832-.245-1.509-.736-2.032-.501-.533-1.109-.8-1.824-.8-.715 0-1.323.267-1.824.8-.491.523-.736 1.2-.736 2.032Zm8.489-4.048-.688-.448.8-1.216a1.007 1.007 0 0 1-.576-.336 1 1 0 0 1-.224-.656c0-.309.107-.565.32-.768.214-.213.47-.32.768-.32.31 0 .566.107.768.32.214.203.32.459.32.768 0 .299-.112.624-.336.976l-1.152 1.68ZM395.542 258h-1.776l-2.448-3.696-1.2 1.184V258h-1.472v-11.456h1.472v7.056l3.392-3.44h1.888v.064l-3.056 3.04 3.2 4.672V258Zm.156-3.92c0-1.205.379-2.203 1.136-2.992.768-.789 1.733-1.184 2.896-1.184 1.163 0 2.123.395 2.88 1.184.768.789 1.152 1.787 1.152 2.992 0 1.216-.384 2.213-1.152 2.992-.757.789-1.717 1.184-2.88 1.184-1.163 0-2.128-.395-2.896-1.184-.757-.789-1.136-1.787-1.136-2.992Zm1.472 0c0 .843.245 1.525.736 2.048a2.4 2.4 0 0 0 1.824.784 2.4 2.4 0 0 0 1.824-.784c.491-.523.736-1.205.736-2.048 0-.832-.245-1.509-.736-2.032-.501-.533-1.109-.8-1.824-.8-.715 0-1.323.267-1.824.8-.491.523-.736 1.2-.736 2.032Zm7.773-3.92h1.408v1.088h.064c.224-.384.565-.704 1.024-.96a3.003 3.003 0 0 1 1.456-.384c.96 0 1.696.277 2.208.832.523.544.784 1.323.784 2.336V258h-1.472v-4.832c-.032-1.28-.677-1.92-1.936-1.92-.587 0-1.077.24-1.472.72-.395.469-.592 1.035-.592 1.696V258h-1.472v-7.84Z" fill="#000"/><rect x="288" y="278" width="12" height="12" rx="6" fill="#00BAFC"/><path d="M310.368 290h-1.472v-7.84h1.408v1.088h.064c.224-.384.565-.704 1.024-.96.469-.256.933-.384 1.392-.384.576 0 1.083.133 1.52.4.437.267.757.635.96 1.104.651-1.003 1.552-1.504 2.704-1.504.907 0 1.605.277 2.096.832.491.555.736 1.344.736 2.368V290h-1.472v-4.672c0-.736-.133-1.264-.4-1.584-.267-.331-.715-.496-1.344-.496-.565 0-1.04.24-1.424.72-.384.48-.576 1.045-.576 1.696V290h-1.472v-4.672c0-.736-.133-1.264-.4-1.584-.267-.331-.715-.496-1.344-.496-.565 0-1.04.24-1.424.72-.384.48-.576 1.045-.576 1.696V290Zm13.147-2.4c0 .384.16.704.48.96a1.83 1.83 0 0 0 1.152.384c.619 0 1.168-.229 1.648-.688.491-.459.736-.997.736-1.616-.459-.363-1.099-.544-1.92-.544-.597 0-1.099.144-1.504.432-.395.288-.592.645-.592 1.072Zm1.904-5.696c1.088 0 1.947.293 2.576.88.629.576.944 1.371.944 2.384V290h-1.408v-1.088h-.064c-.608.896-1.419 1.344-2.432 1.344-.864 0-1.589-.256-2.176-.768a2.462 2.462 0 0 1-.864-1.92c0-.811.304-1.456.912-1.936.619-.48 1.44-.72 2.464-.72.875 0 1.595.16 2.16.48v-.336c0-.512-.203-.944-.608-1.296a2.066 2.066 0 0 0-1.424-.544c-.821 0-1.472.347-1.952 1.04l-1.296-.816c.715-1.024 1.771-1.536 3.168-1.536Zm8.83 4.112 2.8 3.984h-1.728l-1.936-2.896-1.904 2.896h-1.728l2.768-3.984-2.704-3.856h1.664l1.936 2.768 1.84-2.768h1.728l-2.736 3.856Zm9.585 1.808c0 .683-.299 1.259-.896 1.728-.598.469-1.35.704-2.256.704-.79 0-1.483-.203-2.08-.608a3.437 3.437 0 0 1-1.28-1.632l1.312-.56c.192.469.469.837.832 1.104.373.256.778.384 1.216.384.469 0 .858-.101 1.168-.304.32-.203.48-.443.48-.72 0-.501-.384-.869-1.152-1.104l-1.344-.336c-1.526-.384-2.288-1.12-2.288-2.208 0-.715.288-1.285.864-1.712.586-.437 1.333-.656 2.24-.656.693 0 1.317.165 1.872.496.565.331.96.773 1.184 1.328l-1.312.544a1.605 1.605 0 0 0-.736-.768 2.19 2.19 0 0 0-1.12-.288c-.384 0-.731.096-1.04.288-.299.192-.449.427-.449.704 0 .448.422.768 1.265.96l1.184.304c1.557.384 2.336 1.168 2.336 2.352Zm8.161 2.176h-1.408v-1.088h-.064c-.224.384-.571.704-1.04.96a2.916 2.916 0 0 1-1.44.384c-.96 0-1.702-.272-2.224-.816-.512-.555-.768-1.339-.768-2.352v-4.928h1.472v4.832c.032 1.28.677 1.92 1.936 1.92.586 0 1.077-.235 1.472-.704.394-.48.592-1.051.592-1.712v-4.336h1.472V290Zm7.714-2.176c0 .683-.299 1.259-.896 1.728-.598.469-1.35.704-2.256.704-.79 0-1.483-.203-2.08-.608a3.437 3.437 0 0 1-1.28-1.632l1.312-.56c.192.469.469.837.832 1.104.373.256.778.384 1.216.384.469 0 .858-.101 1.168-.304.32-.203.48-.443.48-.72 0-.501-.384-.869-1.152-1.104l-1.344-.336c-1.526-.384-2.288-1.12-2.288-2.208 0-.715.288-1.285.864-1.712.586-.437 1.333-.656 2.24-.656.693 0 1.317.165 1.872.496.565.331.96.773 1.184 1.328l-1.312.544a1.605 1.605 0 0 0-.736-.768 2.19 2.19 0 0 0-1.12-.288c-.384 0-.731.096-1.04.288-.299.192-.449.427-.449.704 0 .448.422.768 1.265.96l1.184.304c1.557.384 2.336 1.168 2.336 2.352Z" fill="#000"/><rect x="288" y="312" width="167" height="40" rx="5" fill="#00BAFC"/><path d="M305.438 326.578h3.554c1.62 0 2.794.232 3.524.695.734.459 1.101 1.191 1.101 2.196 0 .682-.161 1.242-.484 1.679a1.906 1.906 0 0 1-1.274.79v.078c.724.161 1.245.463 1.563.906.323.443.484 1.031.484 1.766 0 1.041-.377 1.854-1.133 2.437-.75.583-1.77.875-3.062.875h-4.273v-11.422Zm2.421 4.524h1.407c.656 0 1.13-.102 1.422-.305.296-.203.445-.539.445-1.008 0-.437-.162-.75-.485-.937-.317-.193-.822-.29-1.515-.29h-1.274v2.54Zm0 1.921V336h1.579c.666 0 1.158-.128 1.476-.383.318-.255.477-.646.477-1.172 0-.948-.677-1.422-2.032-1.422h-1.5ZM322.188 338l-.321-1.117h-.125a2.538 2.538 0 0 1-1.086.945c-.468.219-1.002.328-1.601.328-1.026 0-1.8-.273-2.321-.82-.52-.552-.781-1.344-.781-2.375v-5.695h2.383v5.101c0 .63.112 1.104.336 1.422.224.313.581.469 1.07.469.667 0 1.149-.222 1.446-.664.296-.448.445-1.188.445-2.219v-4.109h2.383V338h-1.828Zm3.078-8.734h2.609l1.648 4.914c.141.427.237.932.289 1.515h.047c.058-.536.17-1.041.336-1.515l1.617-4.914h2.555l-3.695 9.851c-.339.912-.823 1.594-1.453 2.047-.625.453-1.357.68-2.196.68-.411 0-.815-.045-1.211-.133v-1.891c.287.068.599.102.938.102.422 0 .789-.13 1.102-.391.317-.255.565-.643.742-1.164l.14-.429-3.468-8.672ZM341.812 338l-.32-1.117h-.125a2.538 2.538 0 0 1-1.086.945c-.469.219-1.002.328-1.601.328-1.026 0-1.8-.273-2.321-.82-.52-.552-.781-1.344-.781-2.375v-5.695h2.383v5.101c0 .63.112 1.104.336 1.422.224.313.581.469 1.07.469.667 0 1.149-.222 1.445-.664.297-.448.446-1.188.446-2.219v-4.109h2.383V338h-1.829Zm9.204-8.898c.323 0 .591.023.804.07l-.179 2.234a2.735 2.735 0 0 0-.703-.078c-.761 0-1.355.195-1.782.586-.422.391-.633.938-.633 1.641V338h-2.382v-8.734h1.804l.352 1.468h.117a3.263 3.263 0 0 1 1.094-1.179 2.708 2.708 0 0 1 1.508-.453Zm6.07 7.156c.417 0 .917-.091 1.5-.274v1.774c-.594.265-1.323.398-2.188.398-.953 0-1.648-.239-2.086-.718-.432-.485-.648-1.209-.648-2.172v-4.211h-1.141v-1.008l1.313-.797.687-1.844h1.524v1.86h2.445v1.789h-2.445v4.211c0 .338.094.588.281.75.193.161.445.242.758.242ZM368.18 338h-2.383v-5.102c0-.63-.107-1.101-.32-1.414-.209-.317-.539-.476-.993-.476-.609 0-1.052.224-1.328.672-.276.448-.414 1.185-.414 2.211V338h-2.383v-8.734h1.821l.32 1.117h.133a2.398 2.398 0 0 1 1.015-.938c.443-.229.951-.343 1.524-.343 1.307 0 2.193.427 2.656 1.281h.211a2.357 2.357 0 0 1 1.031-.945 3.479 3.479 0 0 1 1.547-.336c.99 0 1.737.255 2.242.765.511.505.766 1.318.766 2.438V338h-2.391v-5.102c0-.63-.106-1.101-.32-1.414-.208-.317-.539-.476-.992-.476-.583 0-1.021.208-1.313.625-.286.416-.429 1.078-.429 1.984V338Zm13.445 0-.461-1.188h-.062c-.401.506-.816.857-1.243 1.055-.421.193-.974.289-1.656.289-.838 0-1.5-.239-1.984-.718-.479-.48-.719-1.162-.719-2.047 0-.927.323-1.61.969-2.047.651-.443 1.63-.688 2.937-.735l1.516-.047v-.382c0-.886-.453-1.328-1.36-1.328-.697 0-1.518.21-2.46.632l-.79-1.609c1.006-.526 2.12-.789 3.344-.789 1.172 0 2.071.255 2.696.766.625.51.937 1.286.937 2.328V338h-1.664Zm-.703-4.047-.922.031c-.693.021-1.208.146-1.547.375-.338.23-.508.579-.508 1.047 0 .672.386 1.008 1.157 1.008.552 0 .992-.159 1.32-.476.333-.318.5-.74.5-1.266v-.719Zm13.844-4.851c1.031 0 1.838.403 2.422 1.21.583.803.874 1.904.874 3.305 0 1.443-.302 2.56-.906 3.352-.599.791-1.416 1.187-2.453 1.187-1.026 0-1.831-.372-2.414-1.117h-.164l-.398.961h-1.821v-12.156h2.383v2.828c0 .359-.031.935-.094 1.726h.094c.557-.864 1.383-1.296 2.477-1.296Zm-.766 1.906c-.589 0-1.018.182-1.289.547-.271.359-.412.955-.422 1.789v.258c0 .937.138 1.609.414 2.015.281.406.724.61 1.328.61.49 0 .878-.224 1.164-.672.292-.453.438-1.11.438-1.969s-.146-1.503-.438-1.93c-.291-.432-.69-.648-1.195-.648Zm9.648-.211c-.505 0-.901.161-1.187.484-.287.318-.451.771-.492 1.36h3.343c-.01-.589-.164-1.042-.46-1.36-.297-.323-.698-.484-1.204-.484Zm.336 7.359c-1.406 0-2.505-.388-3.296-1.164-.792-.776-1.188-1.875-1.188-3.297 0-1.463.365-2.593 1.094-3.39.734-.802 1.747-1.203 3.039-1.203 1.234 0 2.195.351 2.883 1.054.687.703 1.031 1.675 1.031 2.914v1.157h-5.633c.026.677.227 1.205.602 1.585.375.381.901.571 1.578.571.526 0 1.023-.055 1.492-.164.469-.11.958-.284 1.469-.524v1.844a5.496 5.496 0 0 1-1.336.461c-.474.104-1.052.156-1.735.156Zm10.375-9.054c.323 0 .592.023.805.07l-.18 2.234a2.73 2.73 0 0 0-.703-.078c-.76 0-1.354.195-1.781.586-.422.391-.633.938-.633 1.641V338h-2.383v-8.734h1.805l.352 1.468h.117a3.263 3.263 0 0 1 1.094-1.179 2.707 2.707 0 0 1 1.507-.453Zm2.289-2.094c0-.776.433-1.164 1.297-1.164.865 0 1.297.388 1.297 1.164 0 .37-.109.659-.328.867-.213.203-.536.305-.969.305-.864 0-1.297-.391-1.297-1.172ZM419.133 338h-2.383v-8.734h2.383V338Zm8.601-2.594c0 .896-.312 1.578-.937 2.047-.62.469-1.55.703-2.789.703-.636 0-1.177-.044-1.625-.133a5.951 5.951 0 0 1-1.258-.375v-1.968c.443.208.94.382 1.492.523.557.141 1.047.211 1.469.211.865 0 1.297-.25 1.297-.75a.612.612 0 0 0-.172-.453c-.115-.12-.313-.253-.594-.399a13.827 13.827 0 0 0-1.125-.523c-.672-.281-1.166-.542-1.484-.781a2.262 2.262 0 0 1-.688-.82c-.14-.313-.211-.696-.211-1.149 0-.776.3-1.375.899-1.797.604-.427 1.458-.64 2.562-.64a7.27 7.27 0 0 1 3.071.687l-.719 1.719a13.115 13.115 0 0 0-1.227-.461c-.38-.12-.768-.18-1.164-.18-.703 0-1.054.19-1.054.571 0 .213.112.398.335.554.23.156.727.388 1.493.696.682.276 1.182.533 1.5.773a2.3 2.3 0 0 1 .703.828c.151.313.226.685.226 1.117Zm9.922 2.594h-2.383v-5.102c0-1.26-.468-1.89-1.406-1.89-.666 0-1.148.226-1.445.68-.297.453-.445 1.187-.445 2.203V338h-2.383v-12.156h2.383v2.476c0 .193-.019.646-.055 1.36l-.055.703h.125c.531-.854 1.375-1.281 2.531-1.281 1.026 0 1.805.276 2.336.828.532.552.797 1.343.797 2.375V338Z" fill="#fff"/><path d="M472.688 326.578h3.226c1.516 0 2.612.227 3.289.68.677.453 1.016 1.169 1.016 2.148 0 .677-.19 1.237-.571 1.68-.375.437-.924.721-1.648.852v.078c1.734.296 2.602 1.208 2.602 2.734 0 1.021-.347 1.818-1.04 2.391-.687.573-1.651.859-2.89.859h-3.984v-11.422Zm1.328 4.891h2.187c.938 0 1.612-.146 2.024-.438.411-.297.617-.794.617-1.492 0-.641-.229-1.101-.688-1.383-.458-.286-1.187-.429-2.187-.429h-1.953v3.742Zm0 1.125v4.273h2.382c.922 0 1.615-.177 2.079-.531.468-.359.703-.919.703-1.68 0-.708-.24-1.229-.719-1.562-.474-.334-1.198-.5-2.172-.5h-2.273ZM488.133 338l-.258-1.219h-.063c-.427.537-.854.901-1.281 1.094-.422.187-.95.281-1.586.281-.849 0-1.515-.218-2-.656-.479-.438-.718-1.06-.718-1.867 0-1.729 1.382-2.636 4.148-2.719l1.453-.047v-.531c0-.672-.146-1.167-.437-1.484-.287-.323-.748-.485-1.383-.485-.714 0-1.521.219-2.422.656l-.398-.992a6.085 6.085 0 0 1 1.382-.539 6.07 6.07 0 0 1 1.516-.195c1.021 0 1.776.226 2.266.68.494.453.742 1.179.742 2.179V338h-.961Zm-2.93-.914c.807 0 1.44-.221 1.899-.664.463-.443.695-1.063.695-1.86v-.773l-1.297.055c-1.031.036-1.776.198-2.234.484-.454.281-.68.721-.68 1.32 0 .469.141.826.422 1.071.286.245.685.367 1.195.367Zm9.336 0c.229 0 .451-.016.664-.047.214-.036.383-.073.508-.109v.992c-.141.068-.349.122-.625.164-.271.047-.516.07-.734.07-1.657 0-2.485-.872-2.485-2.617v-5.094h-1.226v-.625l1.226-.539.547-1.828h.75v1.985h2.484v1.007h-2.484v5.039c0 .516.122.912.367 1.188.245.276.581.414 1.008.414Zm8.156.914-.257-1.219h-.063c-.427.537-.854.901-1.281 1.094-.422.187-.951.281-1.586.281-.849 0-1.516-.218-2-.656-.479-.438-.719-1.06-.719-1.867 0-1.729 1.383-2.636 4.149-2.719l1.453-.047v-.531c0-.672-.146-1.167-.438-1.484-.286-.323-.747-.485-1.383-.485-.713 0-1.521.219-2.422.656l-.398-.992a6.112 6.112 0 0 1 1.383-.539 6.056 6.056 0 0 1 1.515-.195c1.021 0 1.776.226 2.266.68.495.453.742 1.179.742 2.179V338h-.961Zm-2.929-.914c.807 0 1.44-.221 1.898-.664.464-.443.695-1.063.695-1.86v-.773l-1.297.055c-1.031.036-1.776.198-2.234.484-.453.281-.68.721-.68 1.32 0 .469.141.826.422 1.071.287.245.685.367 1.196.367Zm10.429-6.641h-2.179V338h-1.297v-7.555h-1.531v-.586l1.531-.468v-.477c0-2.104.919-3.156 2.758-3.156.453 0 .984.091 1.593.273l-.336 1.039c-.5-.161-.927-.242-1.281-.242-.489 0-.851.164-1.086.492-.234.323-.351.844-.351 1.563v.555h2.179v1.007Zm7.086 5.219c0 .797-.297 1.412-.89 1.844-.594.432-1.427.648-2.5.648-1.136 0-2.021-.179-2.657-.539v-1.203a6.49 6.49 0 0 0 1.321.492c.474.12.929.18 1.367.18.677 0 1.198-.107 1.562-.32.365-.219.547-.55.547-.993 0-.333-.146-.617-.437-.851-.287-.24-.849-.521-1.688-.844-.797-.297-1.364-.555-1.703-.773a2.42 2.42 0 0 1-.75-.758c-.161-.281-.242-.617-.242-1.008 0-.698.284-1.247.851-1.648.568-.407 1.347-.61 2.336-.61.922 0 1.823.188 2.704.563l-.461 1.054c-.86-.354-1.638-.531-2.336-.531-.615 0-1.078.097-1.391.289-.312.193-.469.459-.469.797a.99.99 0 0 0 .172.586c.12.162.31.315.571.461.26.146.76.357 1.5.633 1.015.37 1.7.742 2.054 1.117.36.375.539.846.539 1.414Zm3.414 2.336h-1.297v-8.562h1.297V338Zm-1.406-10.883c0-.297.073-.513.219-.648a.755.755 0 0 1 .547-.211c.208 0 .388.07.539.211.151.14.226.357.226.648 0 .292-.075.511-.226.656a.763.763 0 0 1-.539.211.755.755 0 0 1-.547-.211c-.146-.145-.219-.364-.219-.656ZM524.742 338h-1.297v-12.156h1.297V338Zm17.82 0v-5.57c0-.683-.145-1.193-.437-1.532-.292-.343-.745-.515-1.359-.515-.808 0-1.404.232-1.789.695-.386.464-.579 1.177-.579 2.141V338h-1.296v-5.57c0-.683-.146-1.193-.438-1.532-.292-.343-.747-.515-1.367-.515-.813 0-1.409.245-1.789.734-.375.485-.563 1.281-.563 2.391V338h-1.297v-8.562h1.055l.211 1.171h.063a2.548 2.548 0 0 1 1.031-.976 3.179 3.179 0 0 1 1.5-.352c1.338 0 2.213.485 2.625 1.453h.062a2.729 2.729 0 0 1 1.11-1.062c.484-.261 1.036-.391 1.656-.391.969 0 1.693.25 2.172.75.484.495.726 1.289.726 2.383V338h-1.297Zm9.243 0-.258-1.219h-.063c-.427.537-.854.901-1.281 1.094-.422.187-.95.281-1.586.281-.849 0-1.515-.218-2-.656-.479-.438-.719-1.06-.719-1.867 0-1.729 1.383-2.636 4.149-2.719l1.453-.047v-.531c0-.672-.146-1.167-.438-1.484-.286-.323-.747-.485-1.382-.485-.714 0-1.521.219-2.422.656l-.399-.992a6.112 6.112 0 0 1 1.383-.539 6.064 6.064 0 0 1 1.516-.195c1.021 0 1.776.226 2.265.68.495.453.743 1.179.743 2.179V338h-.961Zm-2.93-.914c.807 0 1.44-.221 1.898-.664.464-.443.696-1.063.696-1.86v-.773l-1.297.055c-1.031.036-1.776.198-2.234.484-.454.281-.68.721-.68 1.32 0 .469.14.826.422 1.071.286.245.685.367 1.195.367Zm7.609-10.508.118.172a19.91 19.91 0 0 1-.586 1.82 26.477 26.477 0 0 1-.797 1.922h-.953c.364-1.484.63-2.789.796-3.914h1.422ZM559.461 338h-1.297v-12.156h1.297V338Zm3.969-8.562v5.554c0 .698.159 1.219.476 1.563.318.343.815.515 1.492.515.896 0 1.55-.244 1.961-.734.417-.49.625-1.289.625-2.398v-4.5h1.297V338h-1.07l-.188-1.148h-.07a2.58 2.58 0 0 1-1.109.968c-.469.224-1.005.336-1.61.336-1.041 0-1.823-.247-2.343-.742-.516-.495-.774-1.286-.774-2.375v-5.601h1.313ZM582.953 338v-5.57c0-.683-.146-1.193-.437-1.532-.292-.343-.745-.515-1.36-.515-.807 0-1.403.232-1.789.695-.385.464-.578 1.177-.578 2.141V338h-1.297v-5.57c0-.683-.146-1.193-.437-1.532-.292-.343-.748-.515-1.367-.515-.813 0-1.409.245-1.79.734-.375.485-.562 1.281-.562 2.391V338h-1.297v-8.562h1.055l.211 1.171h.062a2.56 2.56 0 0 1 1.031-.976 3.179 3.179 0 0 1 1.5-.352c1.339 0 2.214.485 2.625 1.453h.063a2.726 2.726 0 0 1 1.109-1.062c.485-.261 1.037-.391 1.657-.391.968 0 1.692.25 2.171.75.485.495.727 1.289.727 2.383V338h-1.297Zm11.367-4.289c0 1.396-.351 2.487-1.054 3.273-.704.782-1.675 1.172-2.914 1.172-.766 0-1.446-.179-2.04-.539-.593-.359-1.052-.875-1.374-1.547-.323-.672-.485-1.458-.485-2.359 0-1.396.349-2.482 1.047-3.258.698-.781 1.667-1.172 2.906-1.172 1.198 0 2.149.399 2.852 1.196.708.796 1.062 1.875 1.062 3.234Zm-6.523 0c0 1.094.219 1.927.656 2.5.438.573 1.081.859 1.93.859s1.492-.284 1.929-.851c.443-.573.665-1.409.665-2.508 0-1.089-.222-1.914-.665-2.477-.437-.567-1.085-.851-1.945-.851-.849 0-1.489.278-1.922.836-.432.557-.648 1.388-.648 2.492Zm11.57 3.375c.229 0 .451-.016.664-.047.214-.036.383-.073.508-.109v.992c-.141.068-.349.122-.625.164-.271.047-.516.07-.734.07-1.657 0-2.485-.872-2.485-2.617v-5.094h-1.226v-.625l1.226-.539.547-1.828h.75v1.985h2.485v1.007h-2.485v5.039c0 .516.123.912.367 1.188.245.276.581.414 1.008.414ZM471.117 339.602h129.758v.796H471.117v-.796Z" fill="#00BAFC"/></g><defs><linearGradient id="c" x1="142.31" y1="166.206" x2="142.31" y2="117.934" gradientUnits="userSpaceOnUse"><stop stop-color="gray" stop-opacity=".25"/><stop offset=".54" stop-color="gray" stop-opacity=".12"/><stop offset="1" stop-color="gray" stop-opacity=".1"/></linearGradient><linearGradient id="d" x1="67021.3" y1="51564.1" x2="67021.3" y2="38" gradientUnits="userSpaceOnUse"><stop stop-color="gray" stop-opacity=".25"/><stop offset=".54" stop-color="gray" stop-opacity=".12"/><stop offset="1" stop-color="gray" stop-opacity=".1"/></linearGradient><linearGradient id="e" x1="41108.2" y1="60244" x2="41108.2" y2="25969.3" gradientUnits="userSpaceOnUse"><stop stop-color="gray" stop-opacity=".25"/><stop offset=".54" stop-color="gray" stop-opacity=".12"/><stop offset="1" stop-color="gray" stop-opacity=".1"/></linearGradient><linearGradient id="f" x1="3094.55" y1="5636.01" x2="3094.55" y2="4994.1" gradientUnits="userSpaceOnUse"><stop stop-color="gray" stop-opacity=".25"/><stop offset=".54" stop-color="gray" stop-opacity=".12"/><stop offset="1" stop-color="gray" stop-opacity=".1"/></linearGradient><clipPath id="b"><path fill="#fff" transform="translate(48 38)" d="M0 0h200v128.209H0z"/></clipPath><filter id="a" x="0" y="0" width="836" height="410" filterUnits="userSpaceOnUse" color-interpolation-filters="sRGB"><feFlood flood-opacity="0" result="BackgroundImageFix"/><feColorMatrix in="SourceAlpha" values="0 0 0 0 0 0 0 0 0 0 0 0 0 0 0 0 0 0 127 0" result="hardAlpha"/><feOffset dy="10"/><feGaussianBlur stdDeviation="8"/><feColorMatrix values="0 0 0 0 0 0 0 0 0 0 0 0 0 0 0 0 0 0 0.12 0"/><feBlend in2="BackgroundImageFix" result="effect1_dropShadow_705_49"/><feBlend in="SourceGraphic" in2="effect1_dropShadow_705_49" result="shape"/></filter></defs></svg>